<?xml version="1.0" encoding="utf-8"?>
<svg version="1.1" xmlns="http://www.w3.org/2000/svg" xmlns:xlink="http://www.w3.org/1999/xlink" x="0px" y="0px" viewBox="0 0 20 20" style="enable-background:new 0 0 20 20;" xml:space="preserve">
<path d="M-17.3,0.9"/>
	<rect x="1.3" y="1.3" width="7.9" height="1.3"/>
	<rect x="1.3" y="6.8" width="7.9" height="1.3"/>
	<rect x="1.3" y="9.5" width="7.9" height="1.3"/>
	<rect y="4" width="10.6" height="1.3"/>
	<path d="M15.9,3.6c1.6-0.2,2.9-0.5,4.1-1l-0.5-1.2c-1.2,0.5-2.6,0.8-4.2,1c-2,0.2-3.7,0-3.7,0l-0.2,1.3c0,0,0.9,0.1,2.1,0.1 c0.3,0,0.7,0,1,0v3.1h-3.6v1.3h3.6v4h-3.7v6.5h1.3v-1.3h6.5V18H20v-5.9h-4.1v-4H20V6.8h-4.1V3.6z M18.6,16.1h-6.5v-2.6h6.5V16.1z" />
	<path d="M1.3,18.7h1.3v-1.3h5.3V18h1.3v-5.9h-8V18.7z M7.9,13.5v2.6H2.6v-2.6H7.9z"/>
</svg>
