<?xml version="1.0" encoding="utf-8"?>
<svg version="1.1" id="Layer_1" xmlns="http://www.w3.org/2000/svg" xmlns:xlink="http://www.w3.org/1999/xlink" x="0px" y="0px"
     viewBox="0 0 20 20" style="enable-background:new 0 0 20 20;" xml:space="preserve">
<path d="M-17.3,0.9"/>
    <path d="M6.4,15.6c-1.1,0-1.9-0.4-2.6-1.1c-0.7-0.8-1-1.8-1-3.2c0-0.7,0.1-1.4,0.3-2.1c0.2-0.7,0.4-1.3,0.7-1.9
	c0.3-0.6,0.7-1.1,1.1-1.6c0.4-0.5,0.9-0.9,1.5-1.2l3.3,1.8C9.4,6.4,9,6.5,8.6,6.7C8.2,6.9,7.8,7.2,7.5,7.5c-0.4,0.3-0.7,0.7-1,1.1
	C6.2,9,6,9.4,5.8,10c0.1,0,0.2,0,0.3,0c0.1,0,0.2,0,0.3,0c0.8,0,1.5,0.3,2.1,0.8s0.8,1.2,0.8,2.1c0,0.8-0.3,1.5-0.9,2
	C7.9,15.3,7.2,15.6,6.4,15.6z M13.9,15.6c-1.1,0-1.9-0.4-2.6-1.1c-0.7-0.8-1-1.8-1-3.2c0-0.7,0.1-1.4,0.3-2.1
	c0.2-0.7,0.4-1.3,0.7-1.9c0.3-0.6,0.7-1.1,1.1-1.6c0.4-0.5,0.9-0.9,1.5-1.2l3.3,1.8c-0.3,0.1-0.6,0.3-1,0.5
	c-0.4,0.2-0.8,0.5-1.2,0.8c-0.4,0.3-0.7,0.7-1,1.1C13.7,9,13.5,9.4,13.4,10c0.1,0,0.2,0,0.3,0c0.1,0,0.2,0,0.3,0
	c0.8,0,1.5,0.3,2.1,0.8c0.6,0.5,0.8,1.2,0.8,2.1c0,0.8-0.3,1.5-0.9,2C15.5,15.3,14.8,15.6,13.9,15.6z"/>
</svg>
