<?xml version="1.0" encoding="utf-8"?>
<svg version="1.1" id="hdbt_admin_tools_icon" xmlns="http://www.w3.org/2000/svg" xmlns:xlink="http://www.w3.org/1999/xlink" x="0" y="0" viewBox="0 0 78 78" style="enable-background:new 0 0 78 78;" xml:space="preserve">
  <path d="M36.2,75.2L36.2,75.2c-1.6-1.7-3.9-2.7-6.3-2.7H14c-7.7,0-14-6.4-14-14.3V0h78v58.1c0,7.9-6.3,14.3-14,14.3H48.2 c-2.3,0-4.5,1-6.3,2.7L39.1,78L36.2,75.2z M6.6,58.2c0,4.2,3.2,7.5,7.4,7.5h15.9c3.4,0,6.5,1,9.2,3c2.6-1.9,5.9-3,9.2-3h15.9 c4.1,0,7.4-3.4,7.4-7.5V6.8H6.6V58.2z" />
  <path d="M43.5,39.2h-9v10.8H27V22.2h7.5v10.4h9V22.2H51v27.8h-7.5V39.2z" />
</svg>
