<svg id="Layer_1" data-name="Layer 1" xmlns="http://www.w3.org/2000/svg" viewBox="0 0 1600 900"><defs><style>.cls-1{fill:#575756;}</style></defs><rect class="cls-1" x="210.99" y="344.65" width="483.73" height="40.54"/><rect class="cls-1" x="1060.48" y="455.48" width="329.73" height="18.74" transform="translate(2450.69 929.7) rotate(-180)"/><rect class="cls-1" x="1060.48" y="428.44" width="329.73" height="18.74" transform="translate(2450.69 875.61) rotate(-180)"/><rect class="cls-1" x="1060.48" y="482.52" width="329.73" height="18.74" transform="translate(2450.69 983.78) rotate(-180)"/><rect class="cls-1" x="1060.48" y="509.57" width="329.73" height="18.74" transform="translate(2450.69 1037.87) rotate(-180)"/><rect class="cls-1" x="1060.48" y="536.61" width="329.73" height="18.74" transform="translate(2450.69 1091.96) rotate(-180)"/><rect class="cls-1" x="209.79" y="455.48" width="775.44" height="18.74" transform="translate(1195.02 929.7) rotate(-180)"/><rect class="cls-1" x="209.79" y="428.44" width="775.44" height="18.74" transform="translate(1195.02 875.61) rotate(-180)"/><rect class="cls-1" x="209.79" y="482.52" width="775.44" height="18.74" transform="translate(1195.02 983.78) rotate(-180)"/><rect class="cls-1" x="209.79" y="509.57" width="775.44" height="18.74" transform="translate(1195.02 1037.87) rotate(-180)"/><rect class="cls-1" x="209.79" y="536.61" width="775.44" height="18.74" transform="translate(1195.02 1091.96) rotate(-180)"/></svg>