<?xml version="1.0" encoding="UTF-8"?><svg id="Layer_1" xmlns="http://www.w3.org/2000/svg" viewBox="0 0 1600 900"><defs><style>.cls-1{fill:#e6e6e6;}.cls-2{fill:#fff;}.cls-3{fill:#f1f1f1;}.cls-4{fill:#999;}.cls-5{fill:#c6c6c6;}.cls-6{fill:#575756;}</style></defs><rect class="cls-3" x="-11.94" y="-14.17" width="1623.89" height="928.35"/><rect class="cls-6" x="202.13" y="205.43" width="631.4" height="40.54"/><rect class="cls-2" x="202.13" y="439.79" width="384.45" height="254.78"/><rect class="cls-5" x="202.13" y="287.6" width="384.45" height="254.78"/><rect class="cls-6" x="219.33" y="636.07" width="31.44" height="27.01"/><rect class="cls-6" x="219.33" y="564.18" width="284.35" height="21.87"/><rect class="cls-6" x="219.33" y="596.51" width="105.43" height="12.89"/><rect class="cls-2" x="1013.43" y="439.79" width="384.45" height="254.78"/><rect class="cls-5" x="1013.43" y="287.6" width="384.45" height="254.78"/><rect class="cls-6" x="1030.63" y="636.07" width="31.44" height="27.01"/><rect class="cls-6" x="1030.63" y="564.18" width="284.35" height="21.87"/><rect class="cls-6" x="1030.63" y="596.51" width="105.43" height="12.89"/><rect class="cls-2" x="607.78" y="439.79" width="384.45" height="254.78"/><rect class="cls-5" x="607.78" y="287.6" width="384.45" height="254.78"/><rect class="cls-6" x="624.98" y="636.07" width="31.44" height="27.01"/><rect class="cls-6" x="624.98" y="564.18" width="284.35" height="21.87"/><rect class="cls-6" x="624.98" y="596.51" width="105.43" height="12.89"/><path class="cls-4" d="m394.29,459.02c-14.83,0-29.66,0-44.48,0-4.14,0-6.82-2.66-6.82-6.77,0-24.84,0-49.68,0-74.52,0-4.06,2.68-6.77,6.72-6.77,29.77,0,59.54,0,89.31,0,3.99,0,6.71,2.7,6.71,6.66,0,24.92,0,49.83,0,74.75,0,3.95-2.73,6.65-6.72,6.65-14.9,0-29.81,0-44.71,0Zm44.09-18.31c0-1.29,0-2.31,0-3.32-.03-18.5-.06-37-.1-55.5,0-2.43-1.05-3.59-3.29-3.59-27.1,0-54.2,0-81.29,0-2.17,0-3.38,1.25-3.38,3.44,0,19.22,0,38.45,0,57.67,0,.32.04.63.08,1.11.36-.4.59-.65.81-.91,9.24-11.15,18.48-22.3,27.73-33.44,2.46-2.96,5.75-3.05,8.36-.23,4.13,4.46,8.23,8.94,12.41,13.36,1.96,2.07,3.84,2.09,6.05.25,1.26-1.05,2.5-2.13,3.77-3.17,2.67-2.2,4.32-2.08,6.68.47,5.48,5.91,10.97,11.82,16.45,17.73,1.84,1.98,3.68,3.95,5.72,6.13Z"/><path class="cls-1" d="m438.38,440.7c-2.04-2.19-3.88-4.16-5.72-6.13-5.49-5.91-10.97-11.82-16.45-17.73-2.37-2.55-4.01-2.67-6.68-.47-1.27,1.05-2.51,2.12-3.77,3.17-2.2,1.83-4.09,1.82-6.05-.25-4.17-4.42-8.28-8.9-12.41-13.36-2.61-2.82-5.91-2.73-8.36.23-9.24,11.15-18.48,22.3-27.73,33.44-.22.26-.45.51-.81.91-.04-.48-.08-.79-.08-1.11,0-19.22,0-38.45,0-57.67,0-2.19,1.21-3.44,3.38-3.44,27.1,0,54.2,0,81.29,0,2.24,0,3.28,1.16,3.29,3.59.04,18.5.07,37,.1,55.5,0,1.01,0,2.03,0,3.32Zm-7.34-44.1c0-6.09-4.89-10.97-10.99-10.97-6.17,0-11.03,4.87-11.02,11.04,0,6.09,4.89,10.97,10.99,10.97,6.16,0,11.03-4.87,11.03-11.05Z"/><path class="cls-4" d="m431.04,396.6c0,6.17-4.86,11.05-11.03,11.05-6.1,0-10.98-4.88-10.99-10.97,0-6.18,4.86-11.05,11.02-11.04,6.1,0,10.98,4.88,10.99,10.97Z"/><path class="cls-4" d="m799.94,459.02c-14.83,0-29.66,0-44.48,0-4.14,0-6.82-2.66-6.82-6.77,0-24.84,0-49.68,0-74.52,0-4.06,2.68-6.77,6.72-6.77,29.77,0,59.54,0,89.31,0,3.99,0,6.71,2.7,6.71,6.66,0,24.92,0,49.83,0,74.75,0,3.95-2.73,6.65-6.72,6.65-14.9,0-29.81,0-44.71,0Zm44.09-18.31c0-1.29,0-2.31,0-3.32-.03-18.5-.06-37-.1-55.5,0-2.43-1.05-3.59-3.29-3.59-27.1,0-54.2,0-81.29,0-2.17,0-3.38,1.25-3.38,3.44,0,19.22,0,38.45,0,57.67,0,.32.04.63.08,1.11.36-.4.59-.65.81-.91,9.24-11.15,18.48-22.3,27.73-33.44,2.46-2.96,5.75-3.05,8.36-.23,4.13,4.46,8.23,8.94,12.41,13.36,1.96,2.07,3.84,2.09,6.05.25,1.26-1.05,2.5-2.13,3.77-3.17,2.67-2.2,4.32-2.08,6.68.47,5.48,5.91,10.97,11.82,16.45,17.73,1.84,1.98,3.68,3.95,5.72,6.13Z"/><path class="cls-1" d="m844.03,440.7c-2.04-2.19-3.88-4.16-5.72-6.13-5.49-5.91-10.97-11.82-16.45-17.73-2.37-2.55-4.01-2.67-6.68-.47-1.27,1.05-2.51,2.12-3.77,3.17-2.2,1.83-4.09,1.82-6.05-.25-4.17-4.42-8.28-8.9-12.41-13.36-2.61-2.82-5.91-2.73-8.36.23-9.24,11.15-18.48,22.3-27.73,33.44-.22.26-.45.51-.81.91-.04-.48-.08-.79-.08-1.11,0-19.22,0-38.45,0-57.67,0-2.19,1.21-3.44,3.38-3.44,27.1,0,54.2,0,81.29,0,2.24,0,3.28,1.16,3.29,3.59.04,18.5.07,37,.1,55.5,0,1.01,0,2.03,0,3.32Zm-7.34-44.1c0-6.09-4.89-10.97-10.99-10.97-6.17,0-11.03,4.87-11.02,11.04,0,6.09,4.89,10.97,10.99,10.97,6.16,0,11.03-4.87,11.03-11.05Z"/><path class="cls-4" d="m836.69,396.6c0,6.17-4.86,11.05-11.03,11.05-6.1,0-10.98-4.88-10.99-10.97,0-6.18,4.86-11.05,11.02-11.04,6.1,0,10.98,4.88,10.99,10.97Z"/><path class="cls-4" d="m1205.59,459.02c-14.83,0-29.66,0-44.48,0-4.14,0-6.82-2.66-6.82-6.77,0-24.84,0-49.68,0-74.52,0-4.06,2.68-6.77,6.72-6.77,29.77,0,59.54,0,89.31,0,3.99,0,6.71,2.7,6.71,6.66,0,24.92,0,49.83,0,74.75,0,3.95-2.73,6.65-6.72,6.65-14.9,0-29.81,0-44.71,0Zm44.09-18.31c0-1.29,0-2.31,0-3.32-.03-18.5-.06-37-.1-55.5,0-2.43-1.05-3.59-3.29-3.59-27.1,0-54.2,0-81.29,0-2.17,0-3.38,1.25-3.38,3.44,0,19.22,0,38.45,0,57.67,0,.32.04.63.08,1.11.36-.4.59-.65.81-.91,9.24-11.15,18.48-22.3,27.73-33.44,2.46-2.96,5.75-3.05,8.36-.23,4.13,4.46,8.23,8.94,12.41,13.36,1.96,2.07,3.84,2.09,6.05.25,1.26-1.05,2.5-2.13,3.77-3.17,2.67-2.2,4.32-2.08,6.68.47,5.48,5.91,10.97,11.82,16.45,17.73,1.84,1.98,3.68,3.95,5.72,6.13Z"/><path class="cls-1" d="m1249.68,440.7c-2.04-2.19-3.88-4.16-5.72-6.13-5.49-5.91-10.97-11.82-16.45-17.73-2.37-2.55-4.01-2.67-6.68-.47-1.27,1.05-2.51,2.12-3.77,3.17-2.2,1.83-4.09,1.82-6.05-.25-4.17-4.42-8.28-8.9-12.41-13.36-2.61-2.82-5.91-2.73-8.36.23-9.24,11.15-18.48,22.3-27.73,33.44-.22.26-.45.51-.81.91-.04-.48-.08-.79-.08-1.11,0-19.22,0-38.45,0-57.67,0-2.19,1.21-3.44,3.38-3.44,27.1,0,54.2,0,81.29,0,2.24,0,3.28,1.16,3.29,3.59.04,18.5.07,37,.1,55.5,0,1.01,0,2.03,0,3.32Zm-7.34-44.1c0-6.09-4.89-10.97-10.99-10.97-6.17,0-11.03,4.87-11.02,11.04,0,6.09,4.89,10.97,10.99,10.97,6.16,0,11.03-4.87,11.03-11.05Z"/><path class="cls-4" d="m1242.34,396.6c0,6.17-4.86,11.05-11.03,11.05-6.1,0-10.98-4.88-10.99-10.97,0-6.18,4.86-11.05,11.02-11.04,6.1,0,10.98,4.88,10.99,10.97Z"/></svg>