<svg id="Layer_1" data-name="Layer 1" xmlns="http://www.w3.org/2000/svg" viewBox="0 0 1600 900"><defs><style>.cls-1{fill:#c6c6c6;}.cls-2{fill:#575756;}.cls-3{fill:#999;}.cls-4{fill:#e6e6e6;}</style></defs><rect class="cls-1" x="203.53" y="339.73" width="279.13" height="184.04"/><path class="cls-2" d="M481.25,341.13V522.36H204.93V341.13H481.25m2.81-2.81H202.13V525.16H484.06V338.32Z"/><rect class="cls-2" x="201.9" y="617.06" width="32.93" height="25.65"/><rect class="cls-2" x="201.9" y="547.26" width="208.53" height="16.04"/><rect class="cls-2" x="201.9" y="575.96" width="77.32" height="16.05"/><rect class="cls-1" x="508.13" y="339.73" width="279.13" height="184.04"/><path class="cls-2" d="M785.86,341.13V522.36H509.54V341.13H785.86m2.8-2.81H506.73V525.16H788.66V338.32Z"/><rect class="cls-2" x="506.51" y="617.06" width="32.93" height="25.65"/><rect class="cls-2" x="506.51" y="547.26" width="208.53" height="16.04"/><rect class="cls-2" x="506.51" y="575.96" width="77.32" height="16.05"/><rect class="cls-1" x="812.74" y="339.73" width="279.13" height="184.04"/><path class="cls-2" d="M1090.46,341.13V522.36H814.14V341.13h276.32m2.81-2.81H811.34V525.16h281.93V338.32Z"/><rect class="cls-2" x="811.11" y="617.06" width="32.93" height="25.65"/><rect class="cls-2" x="811.11" y="547.26" width="208.53" height="16.04"/><rect class="cls-2" x="811.11" y="575.96" width="77.32" height="16.05"/><rect class="cls-1" x="1117.35" y="339.73" width="279.13" height="184.04"/><path class="cls-2" d="M1395.07,341.13V522.36H1118.75V341.13h276.32m2.8-2.81H1115.94V525.16h281.93V338.32Z"/><rect class="cls-2" x="1115.72" y="617.06" width="32.93" height="25.65"/><rect class="cls-2" x="1115.72" y="547.26" width="208.53" height="16.04"/><rect class="cls-2" x="1115.72" y="575.96" width="77.32" height="16.05"/><rect class="cls-2" x="202.13" y="242.83" width="631.4" height="40.54"/><path class="cls-3" d="M343,475.77H298.55c-4.14,0-6.83-2.66-6.83-6.77V394.48a6.37,6.37,0,0,1,6.72-6.77h89.31a6.35,6.35,0,0,1,6.71,6.66v74.75a6.36,6.36,0,0,1-6.72,6.65Zm44.09-18.31v-3.32q0-27.75-.1-55.5c0-2.43-1-3.59-3.28-3.59h-81.3a3.09,3.09,0,0,0-3.38,3.44v57.68c0,.31,0,.63.08,1.11.36-.41.59-.66.81-.92q13.86-16.73,27.73-33.44c2.45-3,5.75-3.05,8.36-.23,4.13,4.46,8.23,8.94,12.41,13.36,2,2.07,3.84,2.08,6,.25,1.27-1.05,2.51-2.13,3.78-3.17,2.66-2.21,4.31-2.09,6.68.46q8.22,8.88,16.45,17.74Z"/><path class="cls-4" d="M387.12,457.46l-5.72-6.13q-8.23-8.86-16.45-17.74c-2.37-2.55-4-2.67-6.68-.46-1.27,1-2.51,2.12-3.78,3.17-2.2,1.83-4.08,1.82-6-.25-4.18-4.42-8.28-8.9-12.41-13.36-2.61-2.82-5.91-2.73-8.36.23Q313.81,439.63,300,456.36c-.22.26-.45.51-.81.92,0-.48-.08-.8-.08-1.11V398.49a3.09,3.09,0,0,1,3.38-3.44h81.3c2.23,0,3.28,1.16,3.28,3.59q.06,27.75.1,55.5Zm-7.34-44.1a11,11,0,1,0-11,11A10.94,10.94,0,0,0,379.78,413.36Z"/><path class="cls-3" d="M379.78,413.36a11,11,0,1,1-11-11A10.93,10.93,0,0,1,379.78,413.36Z"/><path class="cls-3" d="M647.64,475.77H603.15c-4.14,0-6.82-2.66-6.82-6.77V394.48a6.37,6.37,0,0,1,6.72-6.77h89.31a6.36,6.36,0,0,1,6.71,6.66v74.75a6.37,6.37,0,0,1-6.72,6.65Zm44.09-18.31v-3.32q-.06-27.75-.1-55.5c0-2.43-1-3.59-3.29-3.59H607.05a3.09,3.09,0,0,0-3.38,3.44q0,28.85,0,57.68c0,.31,0,.63.08,1.11.35-.41.59-.66.81-.92l27.72-33.44c2.46-3,5.76-3.05,8.37-.23,4.13,4.46,8.23,8.94,12.4,13.36,2,2.07,3.85,2.08,6.05.25,1.26-1.05,2.5-2.13,3.77-3.17,2.67-2.21,4.32-2.09,6.68.46L686,451.33Z"/><path class="cls-4" d="M691.73,457.46,686,451.33l-16.46-17.74c-2.36-2.55-4-2.67-6.68-.46-1.27,1-2.51,2.12-3.77,3.17-2.2,1.83-4.09,1.82-6.05-.25-4.17-4.42-8.27-8.9-12.4-13.36-2.61-2.82-5.91-2.73-8.37.23l-27.72,33.44c-.22.26-.46.51-.81.92,0-.48-.08-.8-.08-1.11q0-28.85,0-57.68a3.09,3.09,0,0,1,3.38-3.44h81.29c2.24,0,3.28,1.16,3.29,3.59q0,27.75.1,55.5Zm-7.34-44.1a11,11,0,1,0-11,11A10.95,10.95,0,0,0,684.39,413.36Z"/><path class="cls-3" d="M684.39,413.36a11,11,0,1,1-11-11A10.93,10.93,0,0,1,684.39,413.36Z"/><path class="cls-3" d="M952.24,475.77H907.76c-4.14,0-6.83-2.66-6.83-6.77V394.48a6.37,6.37,0,0,1,6.72-6.77H997a6.35,6.35,0,0,1,6.71,6.66v74.75a6.36,6.36,0,0,1-6.72,6.65Zm44.09-18.31v-3.32q0-27.75-.1-55.5c0-2.43-1.05-3.59-3.28-3.59h-81.3a3.09,3.09,0,0,0-3.38,3.44v57.68c0,.31.05.63.08,1.11.36-.41.59-.66.81-.92l27.73-33.44c2.45-3,5.75-3.05,8.36-.23,4.13,4.46,8.23,8.94,12.41,13.36,2,2.07,3.84,2.08,6.05.25,1.26-1.05,2.5-2.13,3.77-3.17,2.67-2.21,4.31-2.09,6.68.46q8.22,8.88,16.45,17.74Z"/><path class="cls-4" d="M996.33,457.46l-5.72-6.13q-8.22-8.86-16.45-17.74c-2.37-2.55-4-2.67-6.68-.46-1.27,1-2.51,2.12-3.77,3.17-2.21,1.83-4.09,1.82-6.05-.25-4.18-4.42-8.28-8.9-12.41-13.36-2.61-2.82-5.91-2.73-8.36.23l-27.73,33.44c-.22.26-.45.51-.81.92,0-.48-.08-.8-.08-1.11V398.49a3.09,3.09,0,0,1,3.38-3.44H993c2.23,0,3.28,1.16,3.28,3.59q.06,27.75.1,55.5ZM989,413.36a11,11,0,1,0-11,11A10.93,10.93,0,0,0,989,413.36Z"/><path class="cls-3" d="M989,413.36a11,11,0,1,1-11-11A10.93,10.93,0,0,1,989,413.36Z"/><path class="cls-3" d="M1256.85,475.77h-44.49c-4.14,0-6.82-2.66-6.82-6.77V394.48a6.37,6.37,0,0,1,6.72-6.77h89.31a6.36,6.36,0,0,1,6.71,6.66v74.75a6.36,6.36,0,0,1-6.72,6.65Zm44.09-18.31v-3.32q0-27.75-.1-55.5c0-2.43-1-3.59-3.29-3.59h-81.29a3.09,3.09,0,0,0-3.38,3.44q0,28.85,0,57.68c0,.31,0,.63.08,1.11.36-.41.59-.66.81-.92l27.72-33.44c2.46-3,5.76-3.05,8.37-.23,4.13,4.46,8.23,8.94,12.4,13.36,2,2.07,3.85,2.08,6,.25,1.26-1.05,2.51-2.13,3.77-3.17,2.67-2.21,4.32-2.09,6.68.46l16.46,17.74Z"/><path class="cls-4" d="M1300.94,457.46l-5.72-6.13-16.46-17.74c-2.36-2.55-4-2.67-6.68-.46-1.26,1-2.51,2.12-3.77,3.17-2.2,1.83-4.09,1.82-6-.25-4.17-4.42-8.27-8.9-12.4-13.36-2.61-2.82-5.91-2.73-8.37.23l-27.72,33.44c-.22.26-.45.51-.81.92,0-.48-.08-.8-.08-1.11q0-28.85,0-57.68a3.09,3.09,0,0,1,3.38-3.44h81.29c2.24,0,3.29,1.16,3.29,3.59q.06,27.75.1,55.5Zm-7.34-44.1a11,11,0,1,0-11,11A10.94,10.94,0,0,0,1293.6,413.36Z"/><path class="cls-3" d="M1293.6,413.36a11,11,0,1,1-11-11A10.93,10.93,0,0,1,1293.6,413.36Z"/></svg>