<?xml version="1.0" encoding="UTF-8"?><svg id="Layer_1" xmlns="http://www.w3.org/2000/svg" viewBox="0 0 1600 900"><defs><style>.cls-1{fill:#e6e6e6;}.cls-2{fill:#999;}.cls-3{fill:#575756;}.cls-4{fill:#c6c6c6;stroke:#575756;stroke-miterlimit:10;stroke-width:4.36px;}</style></defs><path class="cls-3" d="m731.81,688.13c4.41-13.02,8.39-24.88,12.44-36.72,10.91-31.85,21.79-63.72,32.9-95.51,1.14-3.26,3.2-6.5,5.64-8.94,84.04-84.29,168.21-168.45,252.22-252.77,8.48-8.51,18.12-9.64,28.89-7.04,12.49,3.02,23.12,9.7,32.88,17.75,13.6,11.22,25.77,23.78,34.24,39.43,2.23,4.13,3.9,8.68,5.13,13.23,2.95,10.82.22,20.09-7.85,28.13-42.09,41.94-84.07,84-126.06,126.04-41.05,41.1-82.05,82.24-123.15,123.29-1.81,1.81-4.17,3.4-6.57,4.24-45.59,16.01-91.22,31.88-136.84,47.78-.85.3-1.74.49-3.87,1.08Zm272.11-333.94c-68.49,68.22-137.21,136.67-206.13,205.32,21.84,21.34,43.84,42.83,65.16,63.66,68.85-68.71,137.16-136.88,205.11-204.69-21.58-21.63-43.3-43.4-64.15-64.29Zm78.71,50.19c11.4-11.24,22.92-22.05,33.63-33.61,2.26-2.44,2.57-7.83,1.91-11.51-.71-3.9-2.99-8.02-5.75-10.94-8.85-9.36-17.68-18.9-27.61-27.02-7.69-6.29-16.94-10.73-25.7-15.64-4.23-2.37-8.09-1.57-11.64,2.38-5.46,6.07-11.42,11.71-17.28,17.41-4.57,4.45-9.32,8.73-13.49,12.62,22.61,22.74,44.17,44.43,65.93,66.31Zm-293.33,173.06c-9.37,27.36-18.33,53.55-27.71,80.95,27.76-9.7,54.24-18.95,81.47-28.47-18.31-17.88-35.7-34.85-53.76-52.49Z"/><path class="cls-3" d="m712.33,669.76c-2.01,5.92-3.4,10.87-5.43,15.53-.62,1.44-2.95,2.99-4.53,3.02-9.33.18-18.68.26-27.99-.26-14.18-.8-25.72-12.01-27.48-26.17-.89-7.18-1.41-14.41-2.59-21.54-.32-1.92-2.08-4.38-3.82-5.15-9.38-4.16-18.92-7.99-28.53-11.59-1.69-.63-4.47-.27-5.94.77-5.59,3.96-10.81,8.43-16.23,12.63-13.17,10.2-29.75,9.27-41.48-2.42-11.33-11.29-22.61-22.64-33.83-34.04-11.57-11.76-12.51-27.73-2.47-40.95,4.03-5.31,8.14-10.57,12.45-15.64,2-2.35,2.24-4.18.93-7.08-4.06-9.01-7.56-18.27-11.6-27.28-.74-1.65-2.89-3.44-4.64-3.75-7.3-1.29-14.76-1.69-22.05-3.04-14.54-2.69-24.31-14.68-24.38-29.53-.07-16.19-.08-32.39,0-48.58.09-16.57,10.7-28.65,27.01-30.85,6.22-.84,12.53-1.21,18.69-2.37,1.92-.36,4.28-2.22,5.08-4,3.88-8.67,7.49-17.49,10.74-26.42.73-2.01.45-5.19-.71-6.94-3.35-5.06-7.47-9.62-11.15-14.47-9.46-12.5-9.08-28.37,1.7-39.72,11.8-12.42,23.98-24.51,36.4-36.31,10.65-10.12,26.43-10.72,38.32-2.04,4.92,3.59,9.71,7.38,14.34,11.33,2.49,2.12,4.49,2.4,7.61.97,9.16-4.19,18.47-8.06,27.88-11.65,3.3-1.26,4.79-2.78,4.96-6.42.26-5.31,1.32-10.57,1.88-15.87,1.74-16.26,13.07-27.7,29.24-28.11,17.51-.45,35.06-.31,52.57.22,14.74.45,26.22,11.93,27.98,26.84.69,5.86,1.66,11.7,1.99,17.58.2,3.52,1.88,4.71,4.87,5.89,9.89,3.94,19.7,8.1,29.36,12.56,2.91,1.34,4.72,1.14,7.07-.88,4.47-3.84,9.21-7.38,13.87-11.01,12.72-9.91,29.12-9.34,40.59,1.83,12.01,11.69,23.84,23.58,35.47,35.64,10.62,11.01,11.37,26.93,2.15,39.18-4.23,5.63-8.59,11.18-13.11,16.58-2.01,2.4-2.02,4.31-.76,7.14,3.53,7.99,6.97,16.07,9.71,24.35,1.43,4.31,2.97,7.11,7.96,6.71,1.27-.1,2.59.45,5.29.98-5.7,5.64-10.41,10.98-15.84,15.45-3.51,2.89-9.81-.48-11.45-4.8-5.66-14.89-11.45-29.74-17.56-44.45-1.26-3.04-1.49-4.97.69-7.61,6.55-7.93,12.87-16.04,19.15-24.18,5.26-6.82,4.88-12.01-1.2-18.15-10.59-10.69-21.2-21.36-31.86-31.98-6.44-6.41-11.9-6.67-19.12-1-7.49,5.88-15.01,11.72-22.35,17.79-2.64,2.18-4.65,2.18-7.54.39-14.63-9.13-30.34-15.9-47.06-20.1-3.83-.96-5.16-2.63-5.48-6.47-.77-9.29-2.08-18.54-3.1-27.81-.88-7.98-5.02-12.06-13.04-12.12-15.81-.13-31.62-.12-47.44-.02-7.71.05-11.72,3.97-12.64,11.8-1.13,9.64-2.44,19.27-3.35,28.93-.31,3.26-1.69,4.55-4.71,5.31-16.72,4.22-32.52,10.73-47.2,19.77-2.89,1.78-4.68,1.18-6.99-.72-7.21-5.92-14.52-11.73-21.86-17.49-7.02-5.52-12.25-5.21-18.61,1.1-10.82,10.73-21.59,21.51-32.34,32.31-5.74,5.77-6.1,11.2-1.05,17.75,5.92,7.7,11.87,15.39,18.09,22.84,2.24,2.67,1.82,4.49.53,7.47-6.25,14.46-12.37,28.99-17.83,43.75-1.48,3.99-3.25,5.29-7.06,5.66-9.66.94-19.31,2.08-28.93,3.33-7.46.97-11.25,5.12-11.34,12.59-.17,15.43-.18,30.86-.12,46.29.03,9.08,3.77,13.08,12.94,14.19,9.64,1.17,19.27,2.48,28.94,3.31,3.57.31,4.44,2.01,5.63,5,5.95,14.99,12.18,29.87,18.66,44.64,1.3,2.97,1.68,4.81-.54,7.49-6.57,7.9-12.85,16.05-19.15,24.18-5.6,7.22-5.26,12.17,1.08,18.55,10.61,10.66,21.22,21.34,31.88,31.96,6.35,6.33,11.53,6.7,18.59,1.25,8.29-6.4,16.58-12.81,24.65-19.49,2.5-2.07,4.16-1.8,6.99-.59,15.18,6.48,30.47,12.71,45.87,18.65,3.08,1.19,4.66,2.3,4.98,5.72.99,10.61,2.31,21.2,3.49,31.8.88,7.92,5.06,11.88,13.17,11.98,11.03.13,22.05.03,34.01.03Z"/><path class="cls-3" d="m701.13,353.92c53.23-.03,96.33,43.13,96.22,96.32-.12,53-43.07,95.92-96.02,95.95-53.4.03-96.44-42.82-96.49-96.04-.04-53.26,42.93-96.21,96.29-96.24Zm77.47,96.78c.36-42.79-33.94-77.86-76.58-78.31-43.55-.45-77.99,34.07-78.55,78.75-.51,40.83,34.93,76.21,76.69,76.57,43.06.37,78.07-34,78.44-77.02Z"/><path class="cls-4" d="m1003.92,354.19c20.84,20.89,42.57,42.67,64.15,64.29-67.95,67.81-136.27,135.99-205.11,204.69-21.33-20.84-43.32-42.32-65.16-63.66,68.92-68.65,137.64-137.1,206.13-205.32Z"/><path class="cls-2" d="m1082.64,404.38c-21.76-21.89-43.32-43.57-65.93-66.31,4.17-3.89,8.91-8.16,13.49-12.62,5.86-5.71,11.82-11.34,17.28-17.41,3.55-3.95,7.42-4.75,11.64-2.38,8.75,4.91,18,9.35,25.7,15.64,9.94,8.12,18.76,17.67,27.61,27.02,2.76,2.92,5.05,7.04,5.75,10.94.67,3.69.35,9.07-1.91,11.51-10.71,11.56-22.23,22.37-33.63,33.61Z"/><path class="cls-2" d="m789.3,577.44c18.06,17.63,35.44,34.6,53.76,52.49-27.23,9.52-53.71,18.77-81.47,28.47,9.38-27.41,18.35-53.59,27.71-80.95Z"/><path class="cls-1" d="m778.6,450.7c-.36,43.01-35.37,77.39-78.44,77.02-41.77-.36-77.2-35.74-76.69-76.57.56-44.68,35-79.21,78.55-78.75,42.64.44,76.94,35.52,76.58,78.31Z"/></svg>