<svg id="Layer_1" data-name="Layer 1" xmlns="http://www.w3.org/2000/svg" viewBox="0 0 1600 900"><defs><style>.cls-1{fill:#575756;}.cls-2{fill:#c6c6c6;stroke:#575756;stroke-miterlimit:10;stroke-width:4.36px;}.cls-3{fill:#999;}.cls-4{fill:#e6e6e6;}</style></defs><path class="cls-1" d="M731.81,688.13c4.41-13,8.39-24.88,12.45-36.72,10.91-31.85,21.79-63.72,32.89-95.5a24.64,24.64,0,0,1,5.64-8.95Q908.85,420.53,1035,294.19c8.48-8.51,18.13-9.64,28.89-7,12.49,3,23.12,9.7,32.88,17.75,13.61,11.22,25.78,23.78,34.24,39.44a62.14,62.14,0,0,1,5.14,13.23c2.94,10.82.22,20.09-7.85,28.13q-63.15,62.91-126.06,126Q940.68,573.39,879.1,635a18.17,18.17,0,0,1-6.57,4.24q-68.37,24-136.84,47.78C734.84,687.35,734,687.54,731.81,688.13Zm272.11-333.94L797.79,559.52,863,623.18l205.11-204.7Zm78.72,50.19c11.4-11.24,22.92-22.05,33.63-33.61,2.26-2.44,2.57-7.83,1.91-11.52a22.83,22.83,0,0,0-5.76-10.94c-8.85-9.35-17.67-18.9-27.61-27-7.69-6.29-16.94-10.73-25.7-15.64-4.23-2.37-8.09-1.57-11.64,2.38-5.46,6.08-11.42,11.71-17.28,17.42-4.58,4.45-9.32,8.73-13.49,12.61ZM789.3,577.44C779.94,604.8,771,631,761.59,658.39l81.47-28.47Z"/><path class="cls-1" d="M712.33,669.76c-2,5.92-3.4,10.86-5.43,15.53a6.11,6.11,0,0,1-4.53,3c-9.32.17-18.68.26-28-.27-14.18-.8-25.72-12-27.48-26.16-.89-7.18-1.41-14.42-2.59-21.54a7.88,7.88,0,0,0-3.82-5.15c-9.39-4.15-18.92-8-28.54-11.59a7.38,7.38,0,0,0-5.94.78c-5.58,4-10.8,8.43-16.22,12.63-13.17,10.2-29.75,9.26-41.48-2.42q-17-16.94-33.83-34.05C502.92,588.78,502,572.81,512,559.59c4-5.3,8.14-10.56,12.45-15.64,2-2.34,2.24-4.18.94-7.07-4.06-9-7.56-18.27-11.6-27.29a7.41,7.41,0,0,0-4.64-3.75c-7.3-1.28-14.76-1.69-22.05-3-14.54-2.69-24.3-14.68-24.37-29.53q-.11-24.3,0-48.58c.09-16.58,10.7-28.65,27-30.85,6.22-.84,12.52-1.22,18.68-2.37a8,8,0,0,0,5.08-4c3.88-8.68,7.49-17.49,10.74-26.42a8.82,8.82,0,0,0-.7-6.94c-3.36-5.06-7.47-9.62-11.15-14.47-9.46-12.5-9.08-28.37,1.7-39.72,11.8-12.43,24-24.51,36.4-36.31,10.65-10.13,26.43-10.72,38.32-2q7.38,5.4,14.34,11.33c2.5,2.13,4.49,2.41,7.61,1,9.16-4.2,18.48-8.06,27.89-11.65,3.3-1.26,4.79-2.78,5-6.42.26-5.31,1.32-10.57,1.88-15.87,1.74-16.26,13.08-27.69,29.24-28.11,17.52-.45,35.06-.31,52.57.22,14.74.45,26.22,11.93,28,26.84.69,5.86,1.66,11.71,2,17.59.2,3.52,1.88,4.7,4.87,5.89,9.89,3.94,19.7,8.1,29.36,12.56,2.91,1.34,4.72,1.14,7.07-.88,4.48-3.84,9.21-7.38,13.87-11,12.73-9.91,29.13-9.34,40.59,1.82q18,17.53,35.47,35.64c10.63,11,11.37,26.93,2.16,39.18-4.24,5.63-8.59,11.19-13.11,16.58-2,2.4-2,4.31-.77,7.15,3.54,8,7,16.07,9.71,24.35,1.43,4.31,3,7.11,8,6.71,1.27-.1,2.59.45,5.3,1-5.7,5.64-10.42,11-15.84,15.44-3.52,2.9-9.81-.48-11.45-4.79-5.66-14.89-11.46-29.74-17.56-44.46-1.26-3-1.49-5,.69-7.6,6.55-7.93,12.87-16,19.16-24.18,5.26-6.82,4.88-12-1.2-18.15q-15.9-16-31.87-32c-6.44-6.41-11.9-6.67-19.12-1-7.49,5.88-15,11.72-22.35,17.79-2.64,2.18-4.65,2.18-7.53.38a164.63,164.63,0,0,0-47.07-20.1c-3.83-1-5.16-2.63-5.48-6.47-.76-9.29-2.07-18.54-3.1-27.81-.88-8-5-12.06-13-12.12q-23.71-.19-47.44,0c-7.7.05-11.72,4-12.64,11.8-1.13,9.65-2.44,19.28-3.35,28.94-.31,3.26-1.68,4.55-4.71,5.31a167.88,167.88,0,0,0-47.2,19.77c-2.89,1.78-4.68,1.18-7-.71-7.22-5.93-14.53-11.73-21.87-17.49-7-5.52-12.25-5.21-18.6,1.1Q545,295.19,528.89,311.4c-5.74,5.78-6.1,11.2-1,17.76,5.92,7.7,11.86,15.39,18.09,22.83,2.24,2.68,1.82,4.5.53,7.48-6.25,14.45-12.37,29-17.84,43.75-1.47,4-3.24,5.29-7.06,5.66-9.66.93-19.31,2.08-28.93,3.33-7.46,1-11.26,5.11-11.34,12.58-.17,15.43-.18,30.87-.12,46.3,0,9.08,3.77,13.08,12.93,14.19,9.64,1.17,19.27,2.49,28.94,3.31,3.57.31,4.44,2,5.62,5q8.94,22.49,18.66,44.64c1.3,3,1.69,4.81-.54,7.48-6.57,7.91-12.85,16.06-19.15,24.18-5.6,7.22-5.27,12.18,1.08,18.55q15.91,16,31.88,32c6.35,6.33,11.53,6.69,18.59,1.24,8.28-6.4,16.58-12.81,24.64-19.49,2.5-2.07,4.16-1.8,7-.59q22.77,9.7,45.86,18.65c3.09,1.19,4.67,2.3,5,5.73,1,10.61,2.31,21.19,3.49,31.79.88,7.92,5.06,11.89,13.17,12C689.34,669.86,700.37,669.76,712.33,669.76Z"/><path class="cls-1" d="M701.13,353.92a96.14,96.14,0,1,1-96.28,96.24A96.12,96.12,0,0,1,701.13,353.92ZM778.6,450.7A77.58,77.58,0,0,0,702,372.39c-43.55-.45-78,34.08-78.55,78.75-.51,40.83,34.93,76.22,76.7,76.58A77.58,77.58,0,0,0,778.6,450.7Z"/><path class="cls-2" d="M1003.92,354.19l64.15,64.29L863,623.18l-65.17-63.66Z"/><path class="cls-3" d="M1082.64,404.38l-65.94-66.32c4.17-3.88,8.91-8.16,13.49-12.61,5.86-5.71,11.82-11.34,17.28-17.42,3.55-3.95,7.41-4.75,11.64-2.38,8.76,4.91,18,9.35,25.7,15.64,9.94,8.12,18.76,17.67,27.61,27a22.83,22.83,0,0,1,5.76,10.94c.66,3.69.35,9.08-1.91,11.52C1105.56,382.33,1094,393.14,1082.64,404.38Z"/><path class="cls-3" d="M789.3,577.44l53.76,52.48-81.47,28.47C771,631,779.94,604.8,789.3,577.44Z"/><path class="cls-4" d="M778.6,450.7a77.58,77.58,0,0,1-78.43,77c-41.77-.36-77.21-35.75-76.7-76.58.56-44.67,35-79.2,78.55-78.75A77.58,77.58,0,0,1,778.6,450.7Z"/></svg>