<svg id="Layer_1" data-name="Layer 1" xmlns="http://www.w3.org/2000/svg" viewBox="0 0 1600 900"><defs><style>.cls-1{fill:#1e70b7;}.cls-2{fill:#c6c6c6;}.cls-3{fill:#575756;}.cls-4{fill:#fff;}.cls-5{fill:none;stroke:#fff;stroke-miterlimit:10;stroke-width:3.52px;}.cls-6{fill:#999;}.cls-7{fill:#e6e6e6;}</style></defs><rect class="cls-1" x="-14.17" y="218.82" width="1628.35" height="462.37"/><rect class="cls-2" x="801.21" y="273.35" width="532.47" height="353.29"/><path class="cls-3" d="M1332.27,274.75v350.5H802.61V274.75h529.66m2.81-2.8H799.81v356.1h535.27V272Z"/><rect class="cls-4" x="234.45" y="580.4" width="308.48" height="15.76"/><rect class="cls-5" x="201.22" y="560.37" width="374.93" height="55.24"/><rect class="cls-4" x="201.22" y="313.29" width="443.79" height="62.98"/><rect class="cls-4" x="201.22" y="385.22" width="178.06" height="62.98"/><rect class="cls-4" x="201.22" y="480.58" width="454.58" height="18.48"/><rect class="cls-4" x="201.22" y="510.16" width="416.55" height="18.48"/><path class="cls-6" d="M1067.31,544.39H972c-8.88,0-14.63-5.71-14.63-14.52V370.12c0-8.72,5.75-14.51,14.4-14.51h191.46c8.54,0,14.38,5.78,14.38,14.27q0,80.13,0,160.25c0,8.47-5.86,14.26-14.4,14.26Zm94.52-39.26V498l-.21-119c0-5.21-2.26-7.69-7-7.7H980.3c-4.66,0-7.25,2.67-7.25,7.38q0,61.81,0,123.63c0,.68.09,1.36.17,2.38.77-.86,1.27-1.39,1.74-2l59.44-71.69c5.26-6.35,12.33-6.53,17.93-.49,8.85,9.56,17.64,19.17,26.59,28.63,4.2,4.44,8.25,4.48,13,.55,2.7-2.26,5.36-4.57,8.08-6.81,5.72-4.72,9.25-4.46,14.32,1l35.28,38C1153.5,496.22,1157.46,500.44,1161.83,505.13Z"/><path class="cls-7" d="M1161.83,505.13c-4.37-4.69-8.33-8.91-12.26-13.15l-35.28-38c-5.07-5.47-8.6-5.73-14.32-1-2.72,2.24-5.38,4.55-8.08,6.81-4.72,3.93-8.77,3.89-13-.55-9-9.46-17.74-19.07-26.59-28.63-5.6-6-12.67-5.86-17.93.49L975,502.77c-.47.57-1,1.1-1.74,2-.08-1-.17-1.7-.17-2.38q0-61.82,0-123.63c0-4.71,2.59-7.37,7.25-7.38h174.27c4.79,0,7,2.49,7,7.7l.21,119Zm-15.73-94.54a23.6,23.6,0,1,0-23.64,23.67A23.46,23.46,0,0,0,1146.1,410.59Z"/><path class="cls-6" d="M1146.1,410.59a23.6,23.6,0,1,1-23.56-23.52A23.44,23.44,0,0,1,1146.1,410.59Z"/></svg>