<?xml version="1.0" encoding="UTF-8"?><svg id="Layer_1" xmlns="http://www.w3.org/2000/svg" viewBox="0 0 1600 900"><defs><style>.cls-1{fill:#e6e6e6;}.cls-2{fill:#fff;}.cls-3{fill:#999;}.cls-4{fill:#c6c6c6;}.cls-5{fill:none;stroke:#fff;stroke-miterlimit:10;stroke-width:3.52px;}</style></defs><rect class="cls-4" x="-14.18" y="240.17" width="1628.35" height="405.15"/><rect class="cls-2" x="234.45" y="496.4" width="308.48" height="15.76"/><rect class="cls-5" x="201.22" y="476.37" width="374.93" height="55.24"/><rect class="cls-2" x="201.22" y="346.29" width="443.79" height="62.98"/><path class="cls-3" d="m981.87,537.14c-31.79,0-63.57,0-95.36,0-8.88,0-14.63-5.71-14.63-14.52,0-53.25,0-106.5,0-159.75,0-8.71,5.75-14.5,14.4-14.5,63.82,0,127.64,0,191.46,0,8.55,0,14.38,5.78,14.38,14.27,0,53.41,0,106.83,0,160.24,0,8.47-5.86,14.26-14.4,14.26-31.95,0-63.9,0-95.85,0Zm94.52-39.26c0-2.78,0-4.95,0-7.12-.07-39.66-.13-79.31-.21-118.97-.01-5.22-2.25-7.7-7.05-7.7-58.09-.01-116.18-.01-174.28,0-4.66,0-7.25,2.67-7.25,7.37,0,41.21,0,82.43,0,123.64,0,.68.09,1.35.17,2.38.77-.87,1.27-1.4,1.74-1.96,19.81-23.9,39.62-47.8,59.44-71.69,5.27-6.35,12.33-6.53,17.93-.49,8.85,9.56,17.65,19.17,26.6,28.63,4.2,4.44,8.24,4.48,12.96.54,2.71-2.25,5.37-4.56,8.09-6.8,5.72-4.72,9.25-4.46,14.32,1,11.76,12.67,23.51,25.35,35.27,38.02,3.93,4.24,7.89,8.46,12.26,13.15Z"/><path class="cls-1" d="m1076.39,497.88c-4.37-4.69-8.33-8.91-12.26-13.15-11.76-12.67-23.52-25.34-35.27-38.02-5.07-5.47-8.6-5.73-14.32-1-2.72,2.24-5.38,4.55-8.09,6.8-4.72,3.93-8.76,3.9-12.96-.54-8.95-9.47-17.74-19.08-26.6-28.63-5.6-6.04-12.66-5.86-17.93.49-19.82,23.9-39.62,47.8-59.44,71.69-.47.56-.97,1.1-1.74,1.96-.08-1.03-.17-1.7-.17-2.38,0-41.21,0-82.43,0-123.64,0-4.7,2.59-7.37,7.25-7.37,58.09-.01,116.18-.01,174.28,0,4.79,0,7.04,2.48,7.05,7.7.08,39.66.14,79.31.21,118.97,0,2.17,0,4.34,0,7.12Zm-15.73-94.55c-.01-13.06-10.48-23.51-23.56-23.51-13.22,0-23.64,10.43-23.63,23.68,0,13.06,10.47,23.51,23.55,23.51,13.22,0,23.65-10.45,23.64-23.68Z"/><path class="cls-3" d="m1060.66,403.33c.01,13.23-10.42,23.68-23.64,23.68-13.08,0-23.54-10.45-23.55-23.51,0-13.24,10.41-23.68,23.63-23.68,13.08,0,23.55,10.46,23.56,23.51Z"/></svg>