<svg id="Layer_1" data-name="Layer 1" xmlns="http://www.w3.org/2000/svg" viewBox="0 0 1600 900"><defs><style>.cls-1{fill:#1e70b7;}.cls-2{fill:#c6c6c6;}.cls-3{fill:#575756;}.cls-4{fill:#fff;}.cls-5{fill:none;stroke:#fff;stroke-miterlimit:10;stroke-width:3.52px;}.cls-6{fill:#999;}.cls-7{fill:#e6e6e6;}</style></defs><rect class="cls-1" x="-14.17" y="218.82" width="1628.35" height="462.37"/><rect class="cls-2" x="233.85" y="273.35" width="532.47" height="353.29"/><path class="cls-3" d="M764.92,274.75v350.5H235.25V274.75H764.92m2.8-2.8H232.45v356.1H767.72V272Z"/><rect class="cls-4" x="870.38" y="580.4" width="308.48" height="15.76"/><rect class="cls-5" x="837.15" y="560.37" width="374.93" height="55.24"/><rect class="cls-4" x="837.15" y="313.29" width="443.79" height="62.98"/><rect class="cls-4" x="837.15" y="385.22" width="178.06" height="62.98"/><rect class="cls-4" x="837.15" y="480.58" width="454.58" height="18.48"/><rect class="cls-4" x="837.15" y="510.16" width="416.55" height="18.48"/><path class="cls-6" d="M500,544.39H404.59c-8.87,0-14.63-5.71-14.63-14.52V370.12c0-8.72,5.76-14.51,14.41-14.51H595.82c8.55,0,14.39,5.78,14.39,14.27V530.13c0,8.47-5.86,14.26-14.41,14.26Zm94.52-39.26c0-2.78,0-4.95,0-7.12q-.09-59.47-.21-119c0-5.21-2.25-7.69-7-7.7H412.94c-4.65,0-7.25,2.67-7.25,7.38V502.35c0,.68.1,1.36.17,2.38.77-.86,1.28-1.39,1.74-2q29.73-35.83,59.44-71.69c5.27-6.35,12.33-6.53,17.93-.49,8.85,9.56,17.65,19.17,26.6,28.63,4.2,4.44,8.24,4.48,13,.55,2.71-2.26,5.37-4.57,8.09-6.81,5.72-4.72,9.25-4.46,14.32,1l35.27,38C586.15,496.22,590.1,500.44,594.47,505.13Z"/><path class="cls-7" d="M594.47,505.13c-4.37-4.69-8.32-8.91-12.26-13.15l-35.27-38c-5.07-5.47-8.6-5.73-14.32-1-2.72,2.24-5.38,4.55-8.09,6.81-4.72,3.93-8.76,3.89-13-.55-8.95-9.46-17.75-19.07-26.6-28.63-5.6-6-12.66-5.86-17.93.49q-29.71,35.85-59.44,71.69c-.46.57-1,1.1-1.74,2-.07-1-.16-1.7-.17-2.38V378.72c0-4.71,2.6-7.37,7.25-7.38H587.22c4.79,0,7,2.49,7,7.7q.12,59.49.21,119C594.48,500.18,594.47,502.35,594.47,505.13Zm-15.73-94.54a23.6,23.6,0,1,0-23.63,23.67A23.46,23.46,0,0,0,578.74,410.59Z"/><path class="cls-6" d="M578.74,410.59a23.6,23.6,0,1,1-23.55-23.52A23.44,23.44,0,0,1,578.74,410.59Z"/></svg>