<?xml version="1.0" encoding="UTF-8"?><svg id="Layer_1" xmlns="http://www.w3.org/2000/svg" viewBox="0 0 1600 900"><defs><style>.cls-1{fill:#e6e6e6;}.cls-2{fill:#fff;}.cls-3{fill:#999;}.cls-4{fill:#c6c6c6;}.cls-5{fill:#1e70b7;}.cls-6{fill:#575756;}</style></defs><rect class="cls-4" x="184.32" y="122.32" width="984.66" height="655.36"/><path class="cls-3" d="m676.5,558.58c-36.56,0-73.13,0-109.69,0-10.21,0-16.83-6.56-16.83-16.7,0-61.25,0-122.51,0-183.76,0-10.02,6.62-16.68,16.57-16.68,73.41,0,146.82,0,220.23,0,9.83,0,16.54,6.65,16.55,16.42,0,61.44,0,122.88,0,184.33,0,9.74-6.74,16.41-16.57,16.41-36.75,0-73.5,0-110.26,0Zm108.73-45.16c0-3.19,0-5.69,0-8.19-.08-45.62-.15-91.23-.24-136.85-.01-6-2.59-8.85-8.11-8.86-66.82-.02-133.64-.02-200.47,0-5.35,0-8.34,3.07-8.34,8.48,0,47.41,0,94.81,0,142.22,0,.78.11,1.56.2,2.74.88-1,1.46-1.61,2-2.26,22.79-27.49,45.58-54.98,68.37-82.47,6.06-7.3,14.19-7.51,20.62-.56,10.18,10.99,20.3,22.05,30.59,32.93,4.83,5.11,9.48,5.15,14.91.62,3.11-2.59,6.18-5.25,9.3-7.83,6.58-5.43,10.64-5.13,16.48,1.16,13.52,14.58,27.05,29.16,40.58,43.73,4.53,4.87,9.07,9.73,14.1,15.12Z"/><path class="cls-1" d="m785.23,513.42c-5.03-5.39-9.58-10.25-14.1-15.12-13.53-14.57-27.05-29.15-40.58-43.73-5.83-6.29-9.9-6.59-16.48-1.16-3.12,2.58-6.19,5.23-9.3,7.83-5.43,4.52-10.08,4.48-14.91-.62-10.29-10.89-20.41-21.94-30.59-32.93-6.44-6.95-14.57-6.74-20.62.56-22.79,27.49-45.58,54.98-68.37,82.47-.54.65-1.11,1.26-2,2.26-.09-1.18-.2-1.96-.2-2.74,0-47.41-.01-94.81,0-142.22,0-5.41,2.98-8.48,8.34-8.48,66.82-.01,133.64-.02,200.47,0,5.51,0,8.09,2.86,8.11,8.86.09,45.62.16,91.23.24,136.85,0,2.5,0,5,0,8.19Zm-18.09-108.75c-.01-15.02-12.06-27.04-27.1-27.04-15.21,0-27.2,12-27.19,27.23.01,15.02,12.05,27.04,27.09,27.05,15.2,0,27.2-12.02,27.19-27.24Z"/><path class="cls-3" d="m767.14,404.66c.01,15.22-11.99,27.24-27.19,27.24-15.04,0-27.08-12.03-27.09-27.05-.01-15.23,11.97-27.24,27.19-27.23,15.04,0,27.08,12.03,27.1,27.04Z"/><rect class="cls-5" x="932.38" y="233.49" width="457.83" height="433.02" transform="translate(2322.59 900) rotate(-180)"/><rect class="cls-2" x="959.3" y="329.79" width="378.8" height="32.4"/><rect class="cls-2" x="959.3" y="371.24" width="163.55" height="32.4"/><rect class="cls-2" x="959.3" y="422.17" width="378.8" height="15.25"/><rect class="cls-2" x="959.3" y="446.59" width="351.56" height="15.25"/><rect class="cls-2" x="959.3" y="471.01" width="149.84" height="15.25"/><rect class="cls-2" x="959.3" y="515.02" width="204.75" height="55.19"/><rect class="cls-6" x="986.75" y="534.99" width="149.84" height="15.25"/></svg>