<svg id="Layer_1" data-name="Layer 1" xmlns="http://www.w3.org/2000/svg" viewBox="0 0 1600 900"><defs><style>.cls-1{fill:#c6c6c6;}.cls-2{fill:#575756;}.cls-3{fill:#fff;}.cls-4{fill:#999;}.cls-5{fill:#e6e6e6;}</style></defs><rect class="cls-1" x="-12.77" y="211.32" width="1625.54" height="477.36"/><path class="cls-2" d="M1611.37,212.72V687.28H-11.37V212.72H1611.37m2.8-2.8H-14.17V690.08H1614.17V209.92Z"/><rect class="cls-3" x="207.2" y="275.03" width="461.82" height="349.93" transform="translate(876.22 900) rotate(-180)"/><rect class="cls-2" x="230.32" y="335.39" width="378.8" height="32.4"/><rect class="cls-2" x="230.32" y="379.57" width="163.55" height="32.4"/><rect class="cls-2" x="230.32" y="431.45" width="378.8" height="15.25"/><rect class="cls-2" x="230.32" y="455.87" width="351.56" height="15.25"/><rect class="cls-2" x="230.32" y="480.29" width="149.84" height="15.25"/><rect class="cls-2" x="230.32" y="525.81" width="149.84" height="19.19"/><path class="cls-4" d="M1009.87,544.39H914.51c-8.88,0-14.63-5.71-14.63-14.52q0-79.87,0-159.75c0-8.72,5.75-14.51,14.4-14.51h191.46c8.54,0,14.38,5.78,14.38,14.27q0,80.13,0,160.25c0,8.47-5.86,14.26-14.4,14.26Zm94.52-39.26V498l-.21-119c0-5.21-2.26-7.69-7-7.7H922.86c-4.66,0-7.25,2.67-7.25,7.38q0,61.81,0,123.63c0,.68.09,1.36.17,2.38.77-.86,1.27-1.39,1.74-2L977,431.08c5.26-6.35,12.33-6.53,17.93-.49,8.85,9.56,17.64,19.17,26.59,28.63,4.2,4.44,8.24,4.48,13,.55,2.71-2.26,5.37-4.57,8.09-6.81,5.72-4.72,9.25-4.46,14.32,1l35.28,38C1096.06,496.22,1100,500.44,1104.39,505.13Z"/><path class="cls-5" d="M1104.39,505.13c-4.38-4.69-8.33-8.91-12.26-13.15l-35.28-38c-5.07-5.47-8.6-5.73-14.32-1-2.72,2.24-5.38,4.55-8.09,6.81-4.72,3.93-8.76,3.89-13-.55-9-9.46-17.74-19.07-26.59-28.63-5.6-6-12.67-5.86-17.93.49l-59.44,71.69c-.47.57-1,1.1-1.74,2-.08-1-.17-1.7-.17-2.38q0-61.82,0-123.63c0-4.71,2.59-7.37,7.25-7.38h174.27c4.79,0,7,2.49,7,7.7l.21,119Zm-15.73-94.54A23.6,23.6,0,1,0,1065,434.26,23.46,23.46,0,0,0,1088.66,410.59Z"/><path class="cls-4" d="M1088.66,410.59a23.6,23.6,0,1,1-23.56-23.52A23.44,23.44,0,0,1,1088.66,410.59Z"/></svg>