<?xml version="1.0" encoding="UTF-8"?><svg id="Layer_1" xmlns="http://www.w3.org/2000/svg" viewBox="0 0 1600 900"><defs><style>.cls-1{fill:#e6e6e6;}.cls-2{fill:#999;}.cls-3{fill:#c6c6c6;}.cls-4{fill:#575756;}</style></defs><rect class="cls-3" x="200.37" y="234.12" width="262.92" height="262.92"/><rect class="cls-4" x="199.37" y="579.75" width="32.93" height="25.65"/><rect class="cls-4" x="200.37" y="516.61" width="250.74" height="20.17"/><rect class="cls-4" x="200.37" y="545.94" width="87.8" height="19.05"/><rect class="cls-3" x="512.81" y="234.12" width="262.92" height="262.92"/><rect class="cls-4" x="511.81" y="608.75" width="32.93" height="25.65"/><rect class="cls-4" x="512.81" y="516.61" width="250.74" height="20.17"/><rect class="cls-4" x="512.81" y="545.94" width="235.72" height="19.05"/><rect class="cls-4" x="512.81" y="574.14" width="88.29" height="19.05"/><rect class="cls-3" x="824.26" y="234.12" width="262.92" height="262.92"/><rect class="cls-4" x="824.26" y="552.75" width="32.93" height="25.65"/><rect class="cls-4" x="824.26" y="516.61" width="250.74" height="20.17"/><rect class="cls-3" x="1137.71" y="234.12" width="262.92" height="262.92"/><rect class="cls-4" x="1136.71" y="552.75" width="32.93" height="25.65"/><rect class="cls-4" x="1137.71" y="516.61" width="250.74" height="20.17"/><path class="cls-2" d="m331.76,409.61c-14.83,0-29.66,0-44.48,0-4.14,0-6.82-2.66-6.82-6.77,0-24.84,0-49.68,0-74.52,0-4.06,2.68-6.77,6.72-6.77,29.77,0,59.54,0,89.31,0,3.99,0,6.71,2.7,6.71,6.66,0,24.92,0,49.83,0,74.75,0,3.95-2.73,6.65-6.72,6.65-14.9,0-29.81,0-44.71,0Zm44.09-18.31c0-1.29,0-2.31,0-3.32-.03-18.5-.06-37-.1-55.5,0-2.43-1.05-3.59-3.29-3.59-27.1,0-54.2,0-81.29,0-2.17,0-3.38,1.25-3.38,3.44,0,19.22,0,38.45,0,57.67,0,.32.04.63.08,1.11.36-.4.59-.65.81-.91,9.24-11.15,18.48-22.3,27.73-33.44,2.46-2.96,5.75-3.05,8.36-.23,4.13,4.46,8.23,8.94,12.41,13.36,1.96,2.07,3.84,2.09,6.05.25,1.26-1.05,2.5-2.13,3.77-3.17,2.67-2.2,4.32-2.08,6.68.47,5.48,5.91,10.97,11.82,16.45,17.73,1.84,1.98,3.68,3.95,5.72,6.13Z"/><path class="cls-1" d="m375.86,391.3c-2.04-2.19-3.88-4.16-5.72-6.13-5.49-5.91-10.97-11.82-16.45-17.73-2.37-2.55-4.01-2.67-6.68-.47-1.27,1.05-2.51,2.12-3.77,3.17-2.2,1.83-4.09,1.82-6.05-.25-4.17-4.42-8.28-8.9-12.41-13.36-2.61-2.82-5.91-2.73-8.36.23-9.24,11.15-18.48,22.3-27.73,33.44-.22.26-.45.51-.81.91-.04-.48-.08-.79-.08-1.11,0-19.22,0-38.45,0-57.67,0-2.19,1.21-3.44,3.38-3.44,27.1,0,54.2,0,81.29,0,2.24,0,3.28,1.16,3.29,3.59.04,18.5.07,37,.1,55.5,0,1.01,0,2.03,0,3.32Zm-7.34-44.1c0-6.09-4.89-10.97-10.99-10.97-6.17,0-11.03,4.87-11.02,11.04,0,6.09,4.89,10.97,10.99,10.97,6.16,0,11.03-4.87,11.03-11.05Z"/><path class="cls-2" d="m368.52,347.19c0,6.17-4.86,11.05-11.03,11.05-6.1,0-10.98-4.88-10.99-10.97,0-6.18,4.86-11.05,11.02-11.04,6.1,0,10.98,4.88,10.99,10.97Z"/><path class="cls-2" d="m644.21,409.61c-14.83,0-29.66,0-44.48,0-4.14,0-6.82-2.66-6.82-6.77,0-24.84,0-49.68,0-74.52,0-4.06,2.68-6.77,6.72-6.77,29.77,0,59.54,0,89.31,0,3.99,0,6.71,2.7,6.71,6.66,0,24.92,0,49.83,0,74.75,0,3.95-2.73,6.65-6.72,6.65-14.9,0-29.81,0-44.71,0Zm44.09-18.31c0-1.29,0-2.31,0-3.32-.03-18.5-.06-37-.1-55.5,0-2.43-1.05-3.59-3.29-3.59-27.1,0-54.2,0-81.29,0-2.17,0-3.38,1.25-3.38,3.44,0,19.22,0,38.45,0,57.67,0,.32.04.63.08,1.11.36-.4.59-.65.81-.91,9.24-11.15,18.48-22.3,27.73-33.44,2.46-2.96,5.75-3.05,8.36-.23,4.13,4.46,8.23,8.94,12.41,13.36,1.96,2.07,3.84,2.09,6.05.25,1.26-1.05,2.5-2.13,3.77-3.17,2.67-2.2,4.32-2.08,6.68.47,5.48,5.91,10.97,11.82,16.45,17.73,1.84,1.98,3.68,3.95,5.72,6.13Z"/><path class="cls-1" d="m688.31,391.3c-2.04-2.19-3.88-4.16-5.72-6.13-5.49-5.91-10.97-11.82-16.45-17.73-2.37-2.55-4.01-2.67-6.68-.47-1.27,1.05-2.51,2.12-3.77,3.17-2.2,1.83-4.09,1.82-6.05-.25-4.17-4.42-8.28-8.9-12.41-13.36-2.61-2.82-5.91-2.73-8.36.23-9.24,11.15-18.48,22.3-27.73,33.44-.22.26-.45.51-.81.91-.04-.48-.08-.79-.08-1.11,0-19.22,0-38.45,0-57.67,0-2.19,1.21-3.44,3.38-3.44,27.1,0,54.2,0,81.29,0,2.24,0,3.28,1.16,3.29,3.59.04,18.5.07,37,.1,55.5,0,1.01,0,2.03,0,3.32Zm-7.34-44.1c0-6.09-4.89-10.97-10.99-10.97-6.17,0-11.03,4.87-11.02,11.04,0,6.09,4.89,10.97,10.99,10.97,6.16,0,11.03-4.87,11.03-11.05Z"/><path class="cls-2" d="m680.97,347.19c0,6.17-4.86,11.05-11.03,11.05-6.1,0-10.98-4.88-10.99-10.97,0-6.18,4.86-11.05,11.02-11.04,6.1,0,10.98,4.88,10.99,10.97Z"/><path class="cls-2" d="m955.66,409.61c-14.83,0-29.66,0-44.48,0-4.14,0-6.82-2.66-6.82-6.77,0-24.84,0-49.68,0-74.52,0-4.06,2.68-6.77,6.72-6.77,29.77,0,59.54,0,89.31,0,3.99,0,6.71,2.7,6.71,6.66,0,24.92,0,49.83,0,74.75,0,3.95-2.73,6.65-6.72,6.65-14.9,0-29.81,0-44.71,0Zm44.09-18.31c0-1.29,0-2.31,0-3.32-.03-18.5-.06-37-.1-55.5,0-2.43-1.05-3.59-3.29-3.59-27.1,0-54.2,0-81.29,0-2.17,0-3.38,1.25-3.38,3.44,0,19.22,0,38.45,0,57.67,0,.32.04.63.08,1.11.36-.4.59-.65.81-.91,9.24-11.15,18.48-22.3,27.73-33.44,2.46-2.96,5.75-3.05,8.36-.23,4.13,4.46,8.23,8.94,12.41,13.36,1.96,2.07,3.84,2.09,6.05.25,1.26-1.05,2.5-2.13,3.77-3.17,2.67-2.2,4.32-2.08,6.68.47,5.48,5.91,10.97,11.82,16.45,17.73,1.84,1.98,3.68,3.95,5.72,6.13Z"/><path class="cls-1" d="m999.75,391.3c-2.04-2.19-3.88-4.16-5.72-6.13-5.49-5.91-10.97-11.82-16.45-17.73-2.37-2.55-4.01-2.67-6.68-.47-1.27,1.05-2.51,2.12-3.77,3.17-2.2,1.83-4.09,1.82-6.05-.25-4.17-4.42-8.28-8.9-12.41-13.36-2.61-2.82-5.91-2.73-8.36.23-9.24,11.15-18.48,22.3-27.73,33.44-.22.26-.45.51-.81.91-.04-.48-.08-.79-.08-1.11,0-19.22,0-38.45,0-57.67,0-2.19,1.21-3.44,3.38-3.44,27.1,0,54.2,0,81.29,0,2.24,0,3.28,1.16,3.29,3.59.04,18.5.07,37,.1,55.5,0,1.01,0,2.03,0,3.32Zm-7.34-44.1c0-6.09-4.89-10.97-10.99-10.97-6.17,0-11.03,4.87-11.02,11.04,0,6.09,4.89,10.97,10.99,10.97,6.16,0,11.03-4.87,11.03-11.05Z"/><path class="cls-2" d="m992.42,347.19c0,6.17-4.86,11.05-11.03,11.05-6.1,0-10.98-4.88-10.99-10.97,0-6.18,4.86-11.05,11.02-11.04,6.1,0,10.98,4.88,10.99,10.97Z"/><path class="cls-2" d="m1269.11,409.61c-14.83,0-29.66,0-44.48,0-4.14,0-6.82-2.66-6.82-6.77,0-24.84,0-49.68,0-74.52,0-4.06,2.68-6.77,6.72-6.77,29.77,0,59.54,0,89.31,0,3.99,0,6.71,2.7,6.71,6.66,0,24.92,0,49.83,0,74.75,0,3.95-2.73,6.65-6.72,6.65-14.9,0-29.81,0-44.71,0Zm44.09-18.31c0-1.29,0-2.31,0-3.32-.03-18.5-.06-37-.1-55.5,0-2.43-1.05-3.59-3.29-3.59-27.1,0-54.2,0-81.29,0-2.17,0-3.38,1.25-3.38,3.44,0,19.22,0,38.45,0,57.67,0,.32.04.63.08,1.11.36-.4.59-.65.81-.91,9.24-11.15,18.48-22.3,27.73-33.44,2.46-2.96,5.75-3.05,8.36-.23,4.13,4.46,8.23,8.94,12.41,13.36,1.96,2.07,3.84,2.09,6.05.25,1.26-1.05,2.5-2.13,3.77-3.17,2.67-2.2,4.32-2.08,6.68.47,5.48,5.91,10.97,11.82,16.45,17.73,1.84,1.98,3.68,3.95,5.72,6.13Z"/><path class="cls-1" d="m1313.2,391.3c-2.04-2.19-3.88-4.16-5.72-6.13-5.49-5.91-10.97-11.82-16.45-17.73-2.37-2.55-4.01-2.67-6.68-.47-1.27,1.05-2.51,2.12-3.77,3.17-2.2,1.83-4.09,1.82-6.05-.25-4.17-4.42-8.28-8.9-12.41-13.36-2.61-2.82-5.91-2.73-8.36.23-9.24,11.15-18.48,22.3-27.73,33.44-.22.26-.45.51-.81.91-.04-.48-.08-.79-.08-1.11,0-19.22,0-38.45,0-57.67,0-2.19,1.21-3.44,3.38-3.44,27.1,0,54.2,0,81.29,0,2.24,0,3.28,1.16,3.29,3.59.04,18.5.07,37,.1,55.5,0,1.01,0,2.03,0,3.32Zm-7.34-44.1c0-6.09-4.89-10.97-10.99-10.97-6.17,0-11.03,4.87-11.02,11.04,0,6.09,4.89,10.97,10.99,10.97,6.16,0,11.03-4.87,11.03-11.05Z"/><path class="cls-2" d="m1305.86,347.19c0,6.17-4.86,11.05-11.03,11.05-6.1,0-10.98-4.88-10.99-10.97,0-6.18,4.86-11.05,11.02-11.04,6.1,0,10.98,4.88,10.99,10.97Z"/></svg>