<svg id="Layer_1" data-name="Layer 1" xmlns="http://www.w3.org/2000/svg" viewBox="0 0 1600 900"><defs><style>.cls-1{fill:#c6c6c6;}.cls-2{fill:#575756;}.cls-3{fill:#999;}.cls-4{fill:#e6e6e6;}</style></defs><rect class="cls-1" x="201.77" y="235.52" width="260.12" height="260.12"/><path class="cls-2" d="M460.49,236.92V494.24H203.17V236.92H460.49m2.8-2.8H200.37V497H463.29V234.12Z"/><rect class="cls-2" x="199.37" y="579.75" width="32.93" height="25.65"/><rect class="cls-2" x="200.37" y="516.61" width="250.74" height="20.17"/><rect class="cls-2" x="200.37" y="545.94" width="87.8" height="19.05"/><rect class="cls-1" x="514.22" y="235.52" width="260.12" height="260.12"/><path class="cls-2" d="M772.93,236.92V494.24H515.62V236.92H772.93m2.81-2.8H512.81V497H775.74V234.12Z"/><rect class="cls-2" x="511.81" y="608.75" width="32.93" height="25.65"/><rect class="cls-2" x="512.81" y="516.61" width="250.74" height="20.17"/><rect class="cls-2" x="512.81" y="545.94" width="235.72" height="19.05"/><rect class="cls-2" x="512.81" y="574.14" width="88.29" height="19.05"/><rect class="cls-1" x="825.66" y="235.52" width="260.12" height="260.12"/><path class="cls-2" d="M1084.38,236.92V494.24H827.07V236.92h257.31m2.81-2.8H824.26V497h262.93V234.12Z"/><rect class="cls-2" x="824.26" y="552.75" width="32.93" height="25.65"/><rect class="cls-2" x="824.26" y="516.61" width="250.74" height="20.17"/><rect class="cls-1" x="1139.11" y="235.52" width="260.12" height="260.12"/><path class="cls-2" d="M1397.83,236.92V494.24H1140.51V236.92h257.32m2.8-2.8H1137.71V497h262.92V234.12Z"/><rect class="cls-2" x="1136.71" y="552.75" width="32.93" height="25.65"/><rect class="cls-2" x="1137.71" y="516.61" width="250.74" height="20.17"/><path class="cls-3" d="M331.76,409.61H287.28c-4.14,0-6.82-2.66-6.82-6.77V328.32a6.36,6.36,0,0,1,6.72-6.77h89.31a6.36,6.36,0,0,1,6.71,6.66V403a6.37,6.37,0,0,1-6.72,6.65Zm44.1-18.31V388q-.06-27.75-.1-55.5c0-2.43-1.05-3.59-3.29-3.59H291.18a3.09,3.09,0,0,0-3.38,3.44q0,28.83,0,57.67c0,.32,0,.63.08,1.11.35-.4.59-.65.81-.91l27.72-33.45c2.46-3,5.76-3,8.37-.22,4.13,4.45,8.23,8.94,12.4,13.35,2,2.07,3.85,2.09,6.05.25,1.26-1.05,2.5-2.12,3.77-3.17,2.67-2.2,4.32-2.08,6.68.47l16.46,17.73C372,387.14,373.82,389.11,375.86,391.3Z"/><path class="cls-4" d="M375.86,391.3c-2-2.19-3.89-4.16-5.72-6.14l-16.46-17.73c-2.36-2.55-4-2.67-6.68-.47-1.27,1.05-2.51,2.12-3.77,3.17-2.2,1.84-4.09,1.82-6.05-.25-4.17-4.41-8.27-8.9-12.4-13.35-2.61-2.82-5.91-2.74-8.37.22L288.69,390.2c-.22.26-.46.51-.81.91,0-.48-.08-.79-.08-1.11q0-28.83,0-57.67a3.09,3.09,0,0,1,3.38-3.44h81.29c2.24,0,3.28,1.16,3.29,3.59q0,27.75.1,55.5Zm-7.34-44.11a11,11,0,1,0-11,11.05A10.94,10.94,0,0,0,368.52,347.19Z"/><path class="cls-3" d="M368.52,347.19a11,11,0,1,1-11-11A10.94,10.94,0,0,1,368.52,347.19Z"/><path class="cls-3" d="M644.21,409.61H599.73c-4.14,0-6.82-2.66-6.82-6.77V328.32a6.36,6.36,0,0,1,6.71-6.77h89.31a6.35,6.35,0,0,1,6.71,6.66q0,37.37,0,74.75a6.36,6.36,0,0,1-6.71,6.65Zm44.1-18.31c0-1.3,0-2.31,0-3.32l-.09-55.5c0-2.43-1.05-3.59-3.29-3.59H603.63a3.09,3.09,0,0,0-3.39,3.44q0,28.83,0,57.67c0,.32,0,.63.07,1.11.36-.4.6-.65.82-.91l27.72-33.45c2.46-3,5.75-3,8.36-.22,4.13,4.45,8.24,8.94,12.41,13.35,2,2.07,3.85,2.09,6,.25,1.26-1.05,2.5-2.12,3.77-3.17,2.67-2.2,4.32-2.08,6.68.47l16.46,17.73C684.42,387.14,686.26,389.11,688.31,391.3Z"/><path class="cls-4" d="M688.31,391.3c-2-2.19-3.89-4.16-5.72-6.14l-16.46-17.73c-2.36-2.55-4-2.67-6.68-.47-1.27,1.05-2.51,2.12-3.77,3.17-2.2,1.84-4.09,1.82-6-.25-4.17-4.41-8.28-8.9-12.41-13.35-2.61-2.82-5.9-2.74-8.36.22L601.14,390.2c-.22.26-.46.51-.82.91,0-.48-.07-.79-.07-1.11q0-28.83,0-57.67a3.09,3.09,0,0,1,3.39-3.44h81.29c2.24,0,3.28,1.16,3.29,3.59l.09,55.5C688.31,389,688.31,390,688.31,391.3ZM681,347.19a11,11,0,1,0-11,11.05A10.94,10.94,0,0,0,681,347.19Z"/><path class="cls-3" d="M681,347.19a11,11,0,1,1-11-11A10.94,10.94,0,0,1,681,347.19Z"/><path class="cls-3" d="M955.66,409.61H911.18c-4.14,0-6.82-2.66-6.82-6.77q0-37.26,0-74.52a6.36,6.36,0,0,1,6.71-6.77h89.31a6.35,6.35,0,0,1,6.71,6.66V403a6.36,6.36,0,0,1-6.72,6.65Zm44.09-18.31c0-1.3,0-2.31,0-3.32l-.09-55.5c0-2.43-1.06-3.59-3.29-3.59h-81.3a3.09,3.09,0,0,0-3.38,3.44V390c0,.32,0,.63.08,1.11.36-.4.6-.65.81-.91l27.73-33.45c2.46-3,5.75-3,8.36-.22,4.13,4.45,8.24,8.94,12.41,13.35,2,2.07,3.85,2.09,6,.25,1.26-1.05,2.5-2.12,3.77-3.17,2.67-2.2,4.31-2.08,6.68.47L994,385.16Z"/><path class="cls-4" d="M999.75,391.3,994,385.16l-16.45-17.73c-2.37-2.55-4-2.67-6.68-.47-1.27,1.05-2.51,2.12-3.77,3.17-2.2,1.84-4.09,1.82-6-.25-4.17-4.41-8.28-8.9-12.41-13.35-2.61-2.82-5.9-2.74-8.36.22L912.58,390.2c-.21.26-.45.51-.81.91,0-.48-.08-.79-.08-1.11V332.33a3.09,3.09,0,0,1,3.38-3.44h81.3c2.23,0,3.28,1.16,3.29,3.59l.09,55.5C999.76,389,999.75,390,999.75,391.3Zm-7.33-44.11a11,11,0,1,0-11,11.05A10.94,10.94,0,0,0,992.42,347.19Z"/><path class="cls-3" d="M992.42,347.19a11,11,0,1,1-11-11A10.95,10.95,0,0,1,992.42,347.19Z"/><path class="cls-3" d="M1269.11,409.61h-44.48c-4.14,0-6.83-2.66-6.83-6.77V328.32a6.37,6.37,0,0,1,6.72-6.77h89.31a6.35,6.35,0,0,1,6.71,6.66V403a6.36,6.36,0,0,1-6.72,6.65Zm44.09-18.31V388q0-27.75-.1-55.5c0-2.43-1-3.59-3.28-3.59h-81.3a3.09,3.09,0,0,0-3.38,3.44V390c0,.32,0,.63.08,1.11.36-.4.59-.65.81-.91l27.73-33.45c2.45-3,5.75-3,8.36-.22,4.13,4.45,8.23,8.94,12.41,13.35,2,2.07,3.84,2.09,6,.25,1.26-1.05,2.5-2.12,3.77-3.17,2.67-2.2,4.31-2.08,6.68.47l16.45,17.73Z"/><path class="cls-4" d="M1313.2,391.3l-5.72-6.14L1291,367.43c-2.37-2.55-4-2.67-6.68-.47-1.27,1.05-2.51,2.12-3.77,3.17-2.21,1.84-4.09,1.82-6-.25-4.18-4.41-8.28-8.9-12.41-13.35-2.61-2.82-5.91-2.74-8.36.22L1226,390.2c-.22.26-.45.51-.81.91,0-.48-.08-.79-.08-1.11V332.33a3.09,3.09,0,0,1,3.38-3.44h81.3c2.23,0,3.28,1.16,3.28,3.59q.06,27.75.1,55.5Zm-7.34-44.11a11,11,0,1,0-11,11.05A10.92,10.92,0,0,0,1305.86,347.19Z"/><path class="cls-3" d="M1305.86,347.19a11,11,0,1,1-11-11A10.93,10.93,0,0,1,1305.86,347.19Z"/></svg>