<?xml version="1.0" encoding="UTF-8"?><svg id="Layer_1" xmlns="http://www.w3.org/2000/svg" viewBox="0 0 1600 900"><defs><style>.cls-1{fill:#f8f7f8;}.cls-2{fill:#575756;}</style></defs><rect class="cls-1" x="253.67" y="340.25" width="541.37" height="127.76"/><rect class="cls-2" x="276.35" y="363.77" width="49.46" height="49.46"/><rect class="cls-2" x="350.7" y="416" width="171.56" height="11.35"/><rect class="cls-2" x="350.7" y="379.9" width="183.52" height="16.86"/><rect class="cls-1" x="253.67" y="492.85" width="541.37" height="127.76"/><rect class="cls-2" x="276.35" y="516.37" width="49.46" height="49.46"/><rect class="cls-2" x="350.7" y="568.6" width="171.56" height="11.35"/><rect class="cls-2" x="350.7" y="532.5" width="110.1" height="16.86"/><rect class="cls-2" x="253.67" y="251.04" width="529.03" height="36.59"/><rect class="cls-1" x="820.68" y="340.25" width="541.37" height="127.76"/><rect class="cls-2" x="843.36" y="363.77" width="49.46" height="49.46"/><rect class="cls-2" x="917.71" y="416" width="142.92" height="11.35"/><rect class="cls-2" x="917.71" y="379.9" width="116.26" height="16.86"/><rect class="cls-1" x="820.68" y="492.85" width="541.37" height="127.76"/><rect class="cls-2" x="843.36" y="516.37" width="49.46" height="49.46"/><rect class="cls-2" x="917.71" y="568.6" width="241.15" height="11.35"/><rect class="cls-2" x="917.71" y="532.5" width="156.63" height="16.86"/></svg>