<?xml version="1.0" encoding="UTF-8"?><svg id="Layer_1" xmlns="http://www.w3.org/2000/svg" xmlns:xlink="http://www.w3.org/1999/xlink" viewBox="0 0 1600 900"><defs><style>.cls-1{clip-path:url(#clippath-2);}.cls-1,.cls-2,.cls-3{fill:none;}.cls-2{clip-path:url(#clippath-1);}.cls-4{fill:#fff;}.cls-5{fill:#a4a4a3;}.cls-6{fill:#c6c6c6;}.cls-7{fill:#575756;}.cls-3{clip-path:url(#clippath);}</style><clipPath id="clippath"><rect class="cls-6" x="492.5" y="217.16" width="196.12" height="196.12"/></clipPath><clipPath id="clippath-1"><rect class="cls-6" x="711.81" y="217.16" width="196.12" height="196.12"/></clipPath><clipPath id="clippath-2"><rect class="cls-6" x="927.1" y="217.16" width="196.12" height="196.12"/></clipPath></defs><rect class="cls-7" x="492.5" y="476.36" width="66.24" height="11.51"/><rect class="cls-7" x="492.5" y="440.94" width="143.22" height="15.05"/><rect class="cls-7" x="492.5" y="507.21" width="106.92" height="13.91"/><rect class="cls-7" x="492.5" y="127.43" width="331.32" height="40.38"/><rect class="cls-7" x="492.5" y="538.91" width="179.9" height="12.56"/><rect class="cls-7" x="711.33" y="561.19" width="170.48" height="12.56"/><rect class="cls-6" x="492.5" y="217.16" width="196.12" height="196.12"/><g class="cls-3"><circle class="cls-4" cx="590.56" cy="288.96" r="53.06"/><path class="cls-4" d="m692.54,443.74c-.11-44.15-28.28-81.69-67.61-95.77-10.1,5.91-21.84,9.31-34.37,9.31s-24.27-3.4-34.37-9.31c-39.41,14.11-67.61,51.77-67.61,96.03v75.72h.14c1.44,14.75,13.87,26.27,28.99,26.27h145.7c16.09,0,29.14-13.04,29.14-29.14v-73.11h0Z"/></g><rect class="cls-5" x="492.5" y="577" width="158.14" height="11.73" transform="translate(1143.14 1165.74) rotate(-180)"/><rect class="cls-5" x="492.5" y="599.98" width="162.8" height="11.73" transform="translate(1147.81 1211.7) rotate(-180)"/><rect class="cls-5" x="492.5" y="622.96" width="174.69" height="11.73" transform="translate(1159.69 1257.66) rotate(-180)"/><rect class="cls-5" x="492.5" y="645.95" width="184.42" height="11.73" transform="translate(1169.43 1303.62) rotate(-180)"/><rect class="cls-5" x="492.5" y="668.93" width="158.14" height="11.73" transform="translate(1143.14 1349.58) rotate(-180)"/><rect class="cls-5" x="492.5" y="691.91" width="63.85" height="11.73" transform="translate(1048.85 1395.54) rotate(-180)"/><rect class="cls-7" x="711.81" y="476.36" width="66.24" height="11.51"/><rect class="cls-7" x="711.81" y="440.94" width="143.22" height="15.05"/><rect class="cls-7" x="711.81" y="507.21" width="106.92" height="13.91"/><rect class="cls-7" x="832.14" y="507.21" width="58.2" height="13.91"/><rect class="cls-7" x="711.81" y="531.28" width="94.07" height="13.91"/><rect class="cls-6" x="711.81" y="217.16" width="196.12" height="196.12"/><g class="cls-2"><circle class="cls-4" cx="809.87" cy="288.96" r="53.06"/><path class="cls-4" d="m911.85,443.74c-.11-44.15-28.28-81.69-67.61-95.77-10.1,5.91-21.84,9.31-34.37,9.31s-24.27-3.4-34.37-9.31c-39.41,14.11-67.61,51.77-67.61,96.03v75.72h.14c1.44,14.75,13.87,26.27,28.99,26.27h145.7c16.09,0,29.14-13.04,29.14-29.14v-73.11h0Z"/></g><rect class="cls-5" x="711.81" y="625.7" width="187.59" height="11.73" transform="translate(1611.21 1263.12) rotate(-180)"/><rect class="cls-5" x="711.81" y="648.68" width="162.8" height="11.73" transform="translate(1586.42 1309.08) rotate(-180)"/><rect class="cls-5" x="711.81" y="671.66" width="174.69" height="11.73" transform="translate(1598.31 1355.04) rotate(-180)"/><rect class="cls-5" x="711.81" y="694.64" width="184.42" height="11.73" transform="translate(1608.04 1401) rotate(-180)"/><rect class="cls-5" x="711.81" y="717.62" width="185.75" height="11.73" transform="translate(1609.37 1446.96) rotate(-180)"/><rect class="cls-5" x="711.81" y="740.6" width="63.85" height="11.73" transform="translate(1487.47 1492.92) rotate(-180)"/><rect class="cls-7" x="927.1" y="440.94" width="187.19" height="15.05"/><rect class="cls-7" x="927.1" y="468.84" width="36.05" height="15.05"/><rect class="cls-7" x="927.1" y="504.44" width="106.92" height="13.91"/><rect class="cls-7" x="927.1" y="538.91" width="179.9" height="12.56"/><rect class="cls-6" x="927.1" y="217.16" width="196.12" height="196.12"/><g class="cls-1"><circle class="cls-4" cx="1025.16" cy="288.96" r="53.06"/><path class="cls-4" d="m1127.14,443.74c-.11-44.15-28.28-81.69-67.61-95.77-10.1,5.91-21.84,9.31-34.37,9.31s-24.27-3.4-34.37-9.31c-39.41,14.11-67.61,51.77-67.61,96.03v75.72h.14c1.44,14.75,13.87,26.27,28.99,26.27h145.7c16.09,0,29.14-13.04,29.14-29.14v-73.11h0Z"/></g><rect class="cls-5" x="927.1" y="577" width="165.42" height="11.73" transform="translate(2019.62 1165.74) rotate(-180)"/><rect class="cls-5" x="927.1" y="599.98" width="179.9" height="11.73" transform="translate(2034.1 1211.7) rotate(-180)"/><rect class="cls-5" x="927.1" y="622.96" width="179.9" height="11.73" transform="translate(2034.1 1257.66) rotate(-180)"/><rect class="cls-5" x="927.1" y="714.89" width="174.69" height="11.73" transform="translate(2028.89 1441.5) rotate(-180)"/><rect class="cls-5" x="927.1" y="737.87" width="142.25" height="11.73" transform="translate(1996.45 1487.46) rotate(-180)"/><rect class="cls-5" x="927.1" y="760.85" width="109.87" height="11.73" transform="translate(1964.07 1533.42) rotate(-180)"/><rect class="cls-5" x="927.1" y="645.95" width="184.42" height="11.73" transform="translate(2038.62 1303.62) rotate(-180)"/><rect class="cls-5" x="927.1" y="668.93" width="169.85" height="11.73" transform="translate(2024.05 1349.58) rotate(-180)"/><rect class="cls-5" x="927.1" y="691.91" width="165.2" height="11.73" transform="translate(2019.4 1395.54) rotate(-180)"/><rect class="cls-7" x="711.81" y="588.97" width="18.78" height="18.78"/><rect class="cls-7" x="743.54" y="588.97" width="18.78" height="18.78"/><rect class="cls-7" x="775.27" y="588.97" width="18.78" height="18.78"/></svg>