<?xml version="1.0" encoding="UTF-8"?><svg id="Layer_1" xmlns="http://www.w3.org/2000/svg" viewBox="0 0 1600 900"><defs><style>.cls-1{fill:#f8f7f8;}.cls-2{fill:#575756;}</style></defs><rect class="cls-1" x="198.07" y="266.01" width="597.89" height="235.93"/><rect class="cls-1" x="819.76" y="266.01" width="597.89" height="235.93"/><rect class="cls-2" x="224.39" y="346.46" width="20.23" height="14.17"/><rect class="cls-2" x="256.12" y="344.79" width="259.22" height="17.51"/><rect class="cls-2" x="224.39" y="391.65" width="20.23" height="14.17"/><rect class="cls-2" x="256.12" y="389.97" width="259.22" height="17.51"/><rect class="cls-2" x="224.39" y="436.83" width="20.23" height="14.17"/><rect class="cls-2" x="256.12" y="435.16" width="259.22" height="17.51"/><rect class="cls-2" x="221.39" y="291.08" width="352.18" height="21.72"/><rect class="cls-1" x="198.07" y="525.54" width="597.89" height="194.35"/><rect class="cls-2" x="224.39" y="605.98" width="20.23" height="14.17"/><rect class="cls-2" x="256.12" y="604.31" width="259.22" height="17.51"/><rect class="cls-2" x="221.39" y="550.6" width="352.18" height="21.72"/><rect class="cls-1" x="819.76" y="525.54" width="597.89" height="194.35"/><rect class="cls-2" x="846.08" y="605.98" width="31.55" height="14.17"/><rect class="cls-2" x="895.56" y="604.31" width="404.22" height="17.51"/><rect class="cls-2" x="843.08" y="550.6" width="497.76" height="21.72"/><rect class="cls-2" x="846.08" y="346.46" width="20.23" height="14.17"/><rect class="cls-2" x="877.81" y="344.79" width="423.51" height="17.51"/><rect class="cls-2" x="846.08" y="391.65" width="20.23" height="14.17"/><rect class="cls-2" x="877.81" y="389.97" width="193.77" height="17.51"/><rect class="cls-2" x="846.08" y="436.83" width="20.23" height="14.17"/><rect class="cls-2" x="877.81" y="435.16" width="378.69" height="17.51"/><rect class="cls-2" x="843.08" y="291.08" width="439" height="21.72"/><rect class="cls-2" x="198.07" y="180.11" width="391.23" height="32.79"/></svg>