<?xml version="1.0" encoding="UTF-8"?><svg id="Layer_1" xmlns="http://www.w3.org/2000/svg" viewBox="0 0 1600 900"><defs><style>.cls-1{fill:#e6e6e6;}.cls-2{fill:#fff;}.cls-3{fill:#f1f1f1;}.cls-4{fill:#999;}.cls-5{fill:#c6c6c6;}.cls-6{fill:#575756;}</style></defs><rect class="cls-3" x="-11.94" y="-14.17" width="1623.89" height="928.35"/><rect class="cls-2" x="463.63" y="360.47" width="909.83" height="214.12"/><rect class="cls-6" x="214.74" y="486.96" width="32.93" height="25.65"/><rect class="cls-6" x="214.74" y="417.17" width="208.53" height="16.04"/><rect class="cls-6" x="214.74" y="445.86" width="77.32" height="16.05"/><rect class="cls-5" x="189.65" y="360.47" width="323.09" height="214.12"/><path class="cls-4" d="m351.12,517.98c-16.99,0-33.98,0-50.98,0-4.75,0-7.82-3.05-7.82-7.76,0-28.47,0-56.93,0-85.4,0-4.66,3.07-7.75,7.7-7.75,34.12,0,68.23,0,102.35,0,4.57,0,7.69,3.09,7.69,7.63,0,28.55,0,57.11,0,85.66,0,4.53-3.13,7.62-7.7,7.62-17.08,0-34.16,0-51.24,0Zm50.53-20.99c0-1.48,0-2.64,0-3.81-.04-21.2-.07-42.4-.11-63.6,0-2.79-1.2-4.11-3.77-4.12-31.05,0-62.11,0-93.16,0-2.49,0-3.87,1.43-3.87,3.94,0,22.03,0,44.06,0,66.09,0,.36.05.72.09,1.27.41-.46.68-.75.93-1.05,10.59-12.77,21.18-25.55,31.77-38.33,2.81-3.39,6.59-3.49,9.58-.26,4.73,5.11,9.43,10.25,14.22,15.31,2.24,2.37,4.41,2.39,6.93.29,1.45-1.21,2.87-2.44,4.32-3.64,3.06-2.52,4.95-2.39,7.66.54,6.28,6.77,12.57,13.55,18.86,20.32,2.1,2.27,4.22,4.52,6.55,7.03Z"/><path class="cls-1" d="m401.65,497c-2.34-2.51-4.45-4.76-6.55-7.03-6.29-6.77-12.57-13.55-18.86-20.32-2.71-2.92-4.6-3.06-7.66-.54-1.45,1.2-2.88,2.43-4.32,3.64-2.52,2.1-4.68,2.08-6.93-.29-4.78-5.06-9.49-10.2-14.22-15.31-2.99-3.23-6.77-3.13-9.58.26-10.59,12.77-21.18,25.55-31.77,38.33-.25.3-.52.59-.93,1.05-.04-.55-.09-.91-.09-1.27,0-22.03,0-44.06,0-66.09,0-2.51,1.39-3.94,3.87-3.94,31.05,0,62.11,0,93.16,0,2.56,0,3.76,1.33,3.77,4.12.04,21.2.08,42.4.11,63.6,0,1.16,0,2.32,0,3.81Zm-8.41-50.54c0-6.98-5.6-12.57-12.59-12.57-7.07,0-12.64,5.58-12.63,12.66,0,6.98,5.6,12.57,12.59,12.57,7.06,0,12.64-5.58,12.64-12.66Z"/><path class="cls-4" d="m393.24,446.45c0,7.07-5.57,12.66-12.64,12.66-6.99,0-12.59-5.59-12.59-12.57,0-7.08,5.56-12.66,12.63-12.66,6.99,0,12.59,5.59,12.59,12.57Z"/><rect class="cls-6" x="189.65" y="61.73" width="483.73" height="40.54"/><rect class="cls-6" x="189.65" y="133.58" width="407.74" height="18.74" transform="translate(787.04 285.89) rotate(-180)"/><rect class="cls-6" x="189.65" y="290.54" width="229.39" height="26.08" transform="translate(608.69 607.15) rotate(-180)"/><rect class="cls-6" x="539.38" y="440.22" width="241.68" height="17.33" transform="translate(1320.44 897.77) rotate(180)"/><rect class="cls-6" x="567.71" y="497" width="135" height="17.33" transform="translate(1270.42 1011.32) rotate(180)"/><rect class="cls-6" x="539.38" y="497" width="17.33" height="17.33" transform="translate(1096.1 1011.32) rotate(180)"/><rect class="cls-6" x="539.38" y="535.7" width="17.33" height="17.33" transform="translate(1096.1 1088.74) rotate(180)"/><rect class="cls-6" x="567.71" y="535.7" width="101.32" height="17.33" transform="translate(1236.75 1088.74) rotate(180)"/><rect class="cls-6" x="539.38" y="392.46" width="350.28" height="29.2" transform="translate(1429.04 814.13) rotate(-180)"/><rect class="cls-6" x="1314.53" y="522.88" width="32.93" height="25.65"/><rect class="cls-2" x="463.63" y="608.3" width="909.83" height="214.12"/><rect class="cls-6" x="214.74" y="734.79" width="32.93" height="25.65"/><rect class="cls-6" x="214.74" y="665" width="208.53" height="16.04"/><rect class="cls-6" x="214.74" y="693.69" width="77.32" height="16.05"/><rect class="cls-5" x="189.65" y="608.3" width="323.09" height="214.12"/><path class="cls-4" d="m351.12,765.82c-16.99,0-33.98,0-50.98,0-4.75,0-7.82-3.05-7.82-7.76,0-28.47,0-56.93,0-85.4,0-4.66,3.07-7.75,7.7-7.75,34.12,0,68.23,0,102.35,0,4.57,0,7.69,3.09,7.69,7.63,0,28.55,0,57.11,0,85.66,0,4.53-3.13,7.62-7.7,7.62-17.08,0-34.16,0-51.24,0Zm50.53-20.99c0-1.48,0-2.64,0-3.81-.04-21.2-.07-42.4-.11-63.6,0-2.79-1.2-4.11-3.77-4.12-31.05,0-62.11,0-93.16,0-2.49,0-3.87,1.43-3.87,3.94,0,22.03,0,44.06,0,66.09,0,.36.05.72.09,1.27.41-.46.68-.75.93-1.05,10.59-12.77,21.18-25.55,31.77-38.33,2.81-3.39,6.59-3.49,9.58-.26,4.73,5.11,9.43,10.25,14.22,15.31,2.24,2.37,4.41,2.39,6.93.29,1.45-1.21,2.87-2.44,4.32-3.64,3.06-2.52,4.95-2.39,7.66.54,6.28,6.77,12.57,13.55,18.86,20.32,2.1,2.27,4.22,4.52,6.55,7.03Z"/><path class="cls-1" d="m401.65,744.83c-2.34-2.51-4.45-4.76-6.55-7.03-6.29-6.77-12.57-13.55-18.86-20.32-2.71-2.92-4.6-3.06-7.66-.54-1.45,1.2-2.88,2.43-4.32,3.64-2.52,2.1-4.68,2.08-6.93-.29-4.78-5.06-9.49-10.2-14.22-15.31-2.99-3.23-6.77-3.13-9.58.26-10.59,12.77-21.18,25.55-31.77,38.33-.25.3-.52.59-.93,1.05-.04-.55-.09-.91-.09-1.27,0-22.03,0-44.06,0-66.09,0-2.51,1.39-3.94,3.87-3.94,31.05,0,62.11,0,93.16,0,2.56,0,3.76,1.33,3.77,4.12.04,21.2.08,42.4.11,63.6,0,1.16,0,2.32,0,3.81Zm-8.41-50.54c0-6.98-5.6-12.57-12.59-12.57-7.07,0-12.64,5.58-12.63,12.66,0,6.98,5.6,12.57,12.59,12.57,7.06,0,12.64-5.58,12.64-12.66Z"/><path class="cls-4" d="m393.24,694.29c0,7.07-5.57,12.66-12.64,12.66-6.99,0-12.59-5.59-12.59-12.57,0-7.08,5.56-12.66,12.63-12.66,6.99,0,12.59,5.59,12.59,12.57Z"/><rect class="cls-6" x="539.38" y="688.05" width="241.68" height="17.33" transform="translate(1320.44 1393.43) rotate(180)"/><rect class="cls-6" x="567.71" y="744.83" width="135" height="17.33" transform="translate(1270.42 1506.99) rotate(180)"/><rect class="cls-6" x="539.38" y="744.83" width="17.33" height="17.33" transform="translate(1096.1 1506.99) rotate(180)"/><rect class="cls-6" x="539.38" y="783.53" width="17.33" height="17.33" transform="translate(1096.1 1584.4) rotate(180)"/><rect class="cls-6" x="567.71" y="783.53" width="101.32" height="17.33" transform="translate(1236.75 1584.4) rotate(180)"/><rect class="cls-6" x="539.38" y="640.29" width="350.28" height="29.2" transform="translate(1429.04 1309.79) rotate(-180)"/><rect class="cls-6" x="1314.53" y="770.71" width="32.93" height="25.65"/><rect class="cls-2" x="191.88" y="208.26" width="872.47" height="50.81"/><path class="cls-6" d="m1062.12,210.48v46.35H194.1v-46.35h868.02m4.46-4.46H189.65v55.26h876.93v-55.26h0Z"/><rect class="cls-6" x="212.55" y="227.03" width="349.73" height="15.05" transform="translate(774.83 469.11) rotate(180)"/><rect class="cls-6" x="1019.74" y="220.27" width="32.93" height="25.65"/><rect class="cls-6" x="1093.27" y="206.03" width="280.19" height="55.26"/><rect class="cls-2" x="1126.02" y="226.14" width="214.69" height="15.05" transform="translate(2466.73 467.32) rotate(180)"/></svg>