<?xml version="1.0" encoding="UTF-8"?><svg id="Layer_1" xmlns="http://www.w3.org/2000/svg" viewBox="0 0 1600 900"><defs><style>.cls-1{fill:#e6e6e6;}.cls-2{fill:#fff;}.cls-3{fill:#f1f1f1;}.cls-4{fill:#999;}.cls-5{fill:#c6c6c6;}.cls-6{fill:#575756;}</style></defs><rect class="cls-3" x="369.98" y="112.89" width="859.82" height="674.21"/><rect class="cls-2" x="724.14" y="296.45" width="473.51" height="214.12"/><rect class="cls-6" x="426.14" y="353.16" width="208.53" height="16.04"/><rect class="cls-6" x="426.14" y="381.85" width="77.32" height="16.05"/><rect class="cls-5" x="401.05" y="296.45" width="323.09" height="214.12"/><path class="cls-4" d="m562.52,453.97c-16.99,0-33.98,0-50.98,0-4.75,0-7.82-3.05-7.82-7.76,0-28.47,0-56.93,0-85.4,0-4.66,3.07-7.75,7.7-7.75,34.12,0,68.23,0,102.35,0,4.57,0,7.69,3.09,7.69,7.63,0,28.55,0,57.11,0,85.66,0,4.53-3.13,7.62-7.7,7.62-17.08,0-34.16,0-51.24,0Zm50.53-20.99c0-1.48,0-2.64,0-3.81-.04-21.2-.07-42.4-.11-63.6,0-2.79-1.2-4.11-3.77-4.12-31.05,0-62.11,0-93.16,0-2.49,0-3.87,1.43-3.87,3.94,0,22.03,0,44.06,0,66.09,0,.36.05.72.09,1.27.41-.46.68-.75.93-1.05,10.59-12.77,21.18-25.55,31.77-38.33,2.81-3.39,6.59-3.49,9.58-.26,4.73,5.11,9.43,10.25,14.22,15.31,2.24,2.37,4.41,2.39,6.93.29,1.45-1.21,2.87-2.44,4.32-3.64,3.06-2.52,4.95-2.39,7.66.54,6.28,6.77,12.57,13.55,18.86,20.32,2.1,2.27,4.22,4.52,6.55,7.03Z"/><path class="cls-1" d="m613.05,432.98c-2.34-2.51-4.45-4.76-6.55-7.03-6.29-6.77-12.57-13.55-18.86-20.32-2.71-2.92-4.6-3.06-7.66-.54-1.45,1.2-2.88,2.43-4.32,3.64-2.52,2.1-4.68,2.08-6.93-.29-4.78-5.06-9.49-10.2-14.22-15.31-2.99-3.23-6.77-3.13-9.58.26-10.59,12.77-21.18,25.55-31.77,38.33-.25.3-.52.59-.93,1.05-.04-.55-.09-.91-.09-1.27,0-22.03,0-44.06,0-66.09,0-2.51,1.39-3.94,3.87-3.94,31.05,0,62.11,0,93.16,0,2.56,0,3.76,1.33,3.77,4.12.04,21.2.08,42.4.11,63.6,0,1.16,0,2.32,0,3.81Zm-8.41-50.54c0-6.98-5.6-12.57-12.59-12.57-7.07,0-12.64,5.58-12.63,12.66,0,6.98,5.6,12.57,12.59,12.57,7.06,0,12.64-5.58,12.64-12.66Z"/><path class="cls-4" d="m604.64,382.44c0,7.07-5.57,12.66-12.64,12.66-6.99,0-12.59-5.59-12.59-12.57,0-7.08,5.56-12.66,12.63-12.66,6.99,0,12.59,5.59,12.59,12.57Z"/><rect class="cls-6" x="782.93" y="369.49" width="312.92" height="14.32" transform="translate(1878.77 753.3) rotate(180)"/><rect class="cls-6" x="753.05" y="366.71" width="19.88" height="19.88" transform="translate(1525.97 753.3) rotate(180)"/><rect class="cls-6" x="782.93" y="410.81" width="146.01" height="14.32" transform="translate(1711.87 835.95) rotate(180)"/><rect class="cls-6" x="753.05" y="408.03" width="19.88" height="19.88" transform="translate(1525.97 835.95) rotate(180)"/><rect class="cls-6" x="782.93" y="449.26" width="167.57" height="14.32" transform="translate(1733.43 912.84) rotate(180)"/><rect class="cls-6" x="753.05" y="446.48" width="19.88" height="19.88" transform="translate(1525.97 912.84) rotate(180)"/><rect class="cls-6" x="752.38" y="325.37" width="164.86" height="17.55" transform="translate(1669.63 668.29) rotate(-180)"/><rect class="cls-6" x="401.05" y="248.1" width="86.78" height="17.55" transform="translate(888.87 513.75) rotate(-180)"/><rect class="cls-6" x="401.05" y="157.85" width="638.32" height="40" transform="translate(1440.41 355.71) rotate(-180)"/><rect class="cls-6" x="1140.08" y="448.62" width="32.93" height="25.65"/><rect class="cls-2" x="724.14" y="526.25" width="473.51" height="214.12"/><rect class="cls-6" x="426.14" y="582.96" width="208.53" height="16.04"/><rect class="cls-6" x="426.14" y="611.65" width="77.32" height="16.05"/><rect class="cls-5" x="401.05" y="526.25" width="323.09" height="214.12"/><path class="cls-4" d="m562.52,683.77c-16.99,0-33.98,0-50.98,0-4.75,0-7.82-3.05-7.82-7.76,0-28.47,0-56.93,0-85.4,0-4.66,3.07-7.75,7.7-7.75,34.12,0,68.23,0,102.35,0,4.57,0,7.69,3.09,7.69,7.63,0,28.55,0,57.11,0,85.66,0,4.53-3.13,7.62-7.7,7.62-17.08,0-34.16,0-51.24,0Zm50.53-20.99c0-1.48,0-2.64,0-3.81-.04-21.2-.07-42.4-.11-63.6,0-2.79-1.2-4.11-3.77-4.12-31.05,0-62.11,0-93.16,0-2.49,0-3.87,1.43-3.87,3.94,0,22.03,0,44.06,0,66.09,0,.36.05.72.09,1.27.41-.46.68-.75.93-1.05,10.59-12.77,21.18-25.55,31.77-38.33,2.81-3.39,6.59-3.49,9.58-.26,4.73,5.11,9.43,10.25,14.22,15.31,2.24,2.37,4.41,2.39,6.93.29,1.45-1.21,2.87-2.44,4.32-3.64,3.06-2.52,4.95-2.39,7.66.54,6.28,6.77,12.57,13.55,18.86,20.32,2.1,2.27,4.22,4.52,6.55,7.03Z"/><path class="cls-1" d="m613.05,662.78c-2.34-2.51-4.45-4.76-6.55-7.03-6.29-6.77-12.57-13.55-18.86-20.32-2.71-2.92-4.6-3.06-7.66-.54-1.45,1.2-2.88,2.43-4.32,3.64-2.52,2.1-4.68,2.08-6.93-.29-4.78-5.06-9.49-10.2-14.22-15.31-2.99-3.23-6.77-3.13-9.58.26-10.59,12.77-21.18,25.55-31.77,38.33-.25.3-.52.59-.93,1.05-.04-.55-.09-.91-.09-1.27,0-22.03,0-44.06,0-66.09,0-2.51,1.39-3.94,3.87-3.94,31.05,0,62.11,0,93.16,0,2.56,0,3.76,1.33,3.77,4.12.04,21.2.08,42.4.11,63.6,0,1.16,0,2.32,0,3.81Zm-8.41-50.54c0-6.98-5.6-12.57-12.59-12.57-7.07,0-12.64,5.58-12.63,12.66,0,6.98,5.6,12.57,12.59,12.57,7.06,0,12.64-5.58,12.64-12.66Z"/><path class="cls-4" d="m604.64,612.24c0,7.07-5.57,12.66-12.64,12.66-6.99,0-12.59-5.59-12.59-12.57,0-7.08,5.56-12.66,12.63-12.66,6.99,0,12.59,5.59,12.59,12.57Z"/><rect class="cls-6" x="782.93" y="599.29" width="306.24" height="14.32" transform="translate(1872.1 1212.9) rotate(180)"/><rect class="cls-6" x="753.05" y="596.51" width="19.88" height="19.88" transform="translate(1525.97 1212.9) rotate(180)"/><rect class="cls-6" x="782.93" y="640.61" width="189.64" height="14.32" transform="translate(1755.5 1295.55) rotate(180)"/><rect class="cls-6" x="753.05" y="637.84" width="19.88" height="19.88" transform="translate(1525.97 1295.55) rotate(180)"/><rect class="cls-6" x="782.93" y="679.06" width="167.57" height="14.32" transform="translate(1733.43 1372.44) rotate(180)"/><rect class="cls-6" x="753.05" y="676.28" width="19.88" height="19.88" transform="translate(1525.97 1372.44) rotate(180)"/><rect class="cls-6" x="752.38" y="555.17" width="406.87" height="17.55" transform="translate(1911.63 1127.89) rotate(-180)"/><rect class="cls-6" x="1140.08" y="678.43" width="32.93" height="25.65"/></svg>