<?xml version="1.0" encoding="UTF-8"?><svg id="Layer_1" xmlns="http://www.w3.org/2000/svg" viewBox="0 0 1600 900"><defs><style>.cls-1{fill:#e6e6e6;}.cls-2{fill:#fff;}.cls-3{fill:#f1f1f1;}.cls-4{fill:#ffd500;}.cls-5{fill:#999;}.cls-6{fill:#a4a4a3;}.cls-7{fill:#c6c6c6;}.cls-8{fill:#121211;}.cls-9{fill:#575756;}</style></defs><rect class="cls-3" x="-14.17" y="-14.17" width="1623.89" height="928.35"/><rect class="cls-9" x="275.38" y="65.7" width="514.32" height="30.12"/><rect class="cls-9" x="275.38" y="120.44" width="692.44" height="14.01"/><rect class="cls-9" x="275.38" y="145.16" width="379.81" height="14.01"/><rect class="cls-2" x="275.38" y="238.22" width="1064.97" height="260.17"/><rect class="cls-7" x="1031.62" y="258.48" width="279.02" height="207.4"/><path class="cls-5" d="m1171.07,404.37c-14.67,0-29.35,0-44.02,0-4.1,0-6.75-2.55-6.75-6.49,0-23.8,0-47.6,0-71.4,0-3.89,2.66-6.48,6.65-6.48,29.46,0,58.92,0,88.39,0,3.95,0,6.64,2.58,6.64,6.38,0,23.87,0,47.74,0,71.62,0,3.79-2.7,6.37-6.65,6.37-14.75,0-29.5,0-44.25,0Zm43.64-17.55c0-1.24,0-2.21,0-3.18-.03-17.72-.06-35.45-.1-53.17,0-2.33-1.04-3.44-3.25-3.44-26.82,0-53.64,0-80.45,0-2.15,0-3.35,1.19-3.35,3.29,0,18.42,0,36.84,0,55.26,0,.3.04.61.08,1.06.36-.39.59-.62.8-.88,9.15-10.68,18.29-21.36,27.44-32.04,2.43-2.84,5.69-2.92,8.28-.22,4.09,4.27,8.15,8.57,12.28,12.8,1.94,1.98,3.81,2,5.98.24,1.25-1.01,2.48-2.04,3.73-3.04,2.64-2.11,4.27-1.99,6.61.45,5.43,5.66,10.85,11.33,16.28,16.99,1.82,1.89,3.64,3.78,5.66,5.88Z"/><path class="cls-1" d="m1214.71,386.82c-2.02-2.1-3.84-3.98-5.66-5.88-5.43-5.66-10.86-11.33-16.28-16.99-2.34-2.44-3.97-2.56-6.61-.45-1.25,1-2.48,2.03-3.73,3.04-2.18,1.76-4.05,1.74-5.98-.24-4.13-4.23-8.19-8.53-12.28-12.8-2.58-2.7-5.85-2.62-8.28.22-9.15,10.68-18.29,21.36-27.44,32.04-.22.25-.45.49-.8.88-.04-.46-.08-.76-.08-1.06,0-18.42,0-36.84,0-55.26,0-2.1,1.2-3.29,3.35-3.29,26.82,0,53.64,0,80.45,0,2.21,0,3.25,1.11,3.25,3.44.04,17.72.07,35.45.1,53.17,0,.97,0,1.94,0,3.18Zm-7.26-42.25c0-5.83-4.84-10.51-10.87-10.51-6.1,0-10.92,4.66-10.91,10.58,0,5.84,4.84,10.51,10.87,10.51,6.1,0,10.92-4.67,10.91-10.58Z"/><path class="cls-5" d="m1207.45,344.57c0,5.91-4.81,10.59-10.91,10.58-6.04,0-10.87-4.67-10.87-10.51,0-5.92,4.81-10.58,10.91-10.58,6.04,0,10.87,4.67,10.87,10.51Z"/><rect class="cls-9" x="295.93" y="262.79" width="469.36" height="22.11" transform="translate(1061.21 547.68) rotate(-180)"/><rect class="cls-4" x="295.93" y="396.4" width="261.56" height="27.8" rx="13.9" ry="13.9"/><rect class="cls-9" x="309.84" y="405.34" width="233.83" height="9.04" transform="translate(853.51 819.71) rotate(-180)"/><rect class="cls-9" x="295.93" y="302.88" width="16.67" height="16.67" transform="translate(608.52 622.42) rotate(-180)"/><rect class="cls-9" x="321.69" y="305.1" width="211.54" height="12.23" transform="translate(854.92 622.42) rotate(-180)"/><rect class="cls-9" x="295.93" y="333.61" width="16.67" height="16.67" transform="translate(608.52 683.89) rotate(-180)"/><rect class="cls-9" x="320.4" y="335.83" width="211.54" height="12.23" transform="translate(852.34 683.89) rotate(-180)"/><rect class="cls-9" x="295.93" y="364.34" width="16.67" height="16.67" transform="translate(608.52 745.36) rotate(-180)"/><rect class="cls-9" x="320.4" y="366.56" width="211.54" height="12.23" transform="translate(852.34 745.36) rotate(-180)"/><rect class="cls-9" x="304.25" y="448.61" width="20.69" height="21.4" transform="translate(629.18 918.62) rotate(-180)"/><rect class="cls-2" x="275.38" y="512.36" width="1064.97" height="248.3"/><rect class="cls-7" x="1031.62" y="532.63" width="279.02" height="207.4"/><path class="cls-5" d="m1171.07,678.51c-14.67,0-29.35,0-44.02,0-4.1,0-6.75-2.55-6.75-6.49,0-23.8,0-47.6,0-71.4,0-3.89,2.66-6.48,6.65-6.48,29.46,0,58.92,0,88.39,0,3.95,0,6.64,2.58,6.64,6.38,0,23.87,0,47.74,0,71.62,0,3.79-2.7,6.37-6.65,6.37-14.75,0-29.5,0-44.25,0Zm43.64-17.55c0-1.24,0-2.21,0-3.18-.03-17.72-.06-35.45-.1-53.17,0-2.33-1.04-3.44-3.25-3.44-26.82,0-53.64,0-80.45,0-2.15,0-3.35,1.19-3.35,3.29,0,18.42,0,36.84,0,55.26,0,.3.04.61.08,1.06.36-.39.59-.62.8-.88,9.15-10.68,18.29-21.36,27.44-32.04,2.43-2.84,5.69-2.92,8.28-.22,4.09,4.27,8.15,8.57,12.28,12.8,1.94,1.98,3.81,2,5.98.24,1.25-1.01,2.48-2.04,3.73-3.04,2.64-2.11,4.27-1.99,6.61.45,5.43,5.66,10.85,11.33,16.28,16.99,1.82,1.89,3.64,3.78,5.66,5.88Z"/><path class="cls-1" d="m1214.71,660.96c-2.02-2.1-3.84-3.98-5.66-5.88-5.43-5.66-10.86-11.33-16.28-16.99-2.34-2.44-3.97-2.56-6.61-.45-1.25,1-2.48,2.03-3.73,3.04-2.18,1.76-4.05,1.74-5.98-.24-4.13-4.23-8.19-8.53-12.28-12.8-2.58-2.7-5.85-2.62-8.28.22-9.15,10.68-18.29,21.36-27.44,32.04-.22.25-.45.49-.8.88-.04-.46-.08-.76-.08-1.06,0-18.42,0-36.84,0-55.26,0-2.1,1.2-3.29,3.35-3.29,26.82,0,53.64,0,80.45,0,2.21,0,3.25,1.11,3.25,3.44.04,17.72.07,35.45.1,53.17,0,.97,0,1.94,0,3.18Zm-7.26-42.25c0-5.83-4.84-10.51-10.87-10.51-6.1,0-10.92,4.66-10.91,10.58,0,5.84,4.84,10.51,10.87,10.51,6.1,0,10.92-4.67,10.91-10.58Z"/><path class="cls-5" d="m1207.45,618.71c0,5.91-4.81,10.59-10.91,10.58-6.04,0-10.87-4.67-10.87-10.51,0-5.92,4.81-10.58,10.91-10.58,6.04,0,10.87,4.67,10.87,10.51Z"/><rect class="cls-9" x="297.23" y="536.93" width="673.23" height="22.11" transform="translate(1267.68 1095.96) rotate(-180)"/><rect class="cls-9" x="297.23" y="566.11" width="203.48" height="22.11" transform="translate(797.93 1154.32) rotate(-180)"/><rect class="cls-9" x="297.23" y="603.37" width="16.67" height="16.67" transform="translate(611.13 1223.42) rotate(-180)"/><rect class="cls-9" x="322.99" y="605.59" width="211.54" height="12.23" transform="translate(857.52 1223.42) rotate(-180)"/><rect class="cls-9" x="297.23" y="634.11" width="16.67" height="16.67" transform="translate(611.13 1284.88) rotate(-180)"/><rect class="cls-9" x="321.7" y="636.33" width="211.54" height="12.23" transform="translate(854.95 1284.88) rotate(-180)"/><rect class="cls-9" x="297.23" y="664.84" width="16.67" height="16.67" transform="translate(611.13 1346.35) rotate(-180)"/><rect class="cls-9" x="321.7" y="667.06" width="211.54" height="12.23" transform="translate(854.95 1346.35) rotate(-180)"/><rect class="cls-9" x="304.25" y="709.13" width="20.69" height="21.4" transform="translate(629.18 1439.65) rotate(-180)"/><rect class="cls-6" x="275.38" y="209.91" width="191.43" height="11.85" transform="translate(742.19 431.66) rotate(-180)"/><rect class="cls-8" x="275.38" y="786.5" width="164.95" height="47.8"/><rect class="cls-2" x="296.93" y="805.25" width="93.54" height="10.29"/><rect class="cls-2" x="408.98" y="804.04" width="12.71" height="12.71"/></svg>