<?xml version="1.0" encoding="UTF-8"?><svg id="Layer_1" xmlns="http://www.w3.org/2000/svg" viewBox="0 0 1600 900"><defs><style>.cls-1{fill:#e5e4e4;}.cls-2{fill:#c6c6c6;}.cls-3{fill:#575756;}</style></defs><path class="cls-1" d="m616.36,659.6c-2.59,0-3.94-.72-4.22-1.2s-.22-2.01,1.08-4.25l61.32-105.59h108.87v111.04h-167.06Z"/><path class="cls-3" d="m776.69,555.28v97.59h-154.95l56.67-97.59h98.28m13.45-13.45h-119.47l-63.26,108.94c-4.97,8.55-.94,15.55,8.95,15.55h173.78v-124.49h0Z"/><path class="cls-2" d="m543.09,544.93c-3.77-6.47-3.76-17.8.03-24.26l41.52-70.85-32.4-18.99,118.04-22.31,38.23,113.89-32.4-18.99-78.81,134.49-54.21-92.98Z"/><path class="cls-3" d="m665.77,416.21l30.65,91.31-11.11-6.51-11.61-6.8-6.8,11.61-69.6,118.76-48.41-83.04c-2.52-4.33-2.51-13.15.02-17.48l38.12-65.05,6.8-11.61-11.61-6.8-11.11-6.51,94.64-17.89m9.02-15.4l-141.45,26.74,42.09,24.66-38.12,65.05c-5,8.53-5.02,22.51-.03,31.05l60,102.92,81.23-138.62,42.09,24.66-45.8-136.47h0Z"/><path class="cls-1" d="m892.57,437.11l95.93-55.93,84.15,144.32c1.3,2.24,1.37,3.77,1.09,4.25-.28.48-1.63,1.2-4.22,1.21l-122.11.22-54.84-94.05Z"/><path class="cls-3" d="m986.08,390.37l78.05,133.85-112.85.2-49.5-84.9,84.31-49.16m4.85-18.4l-107.55,62.71,60.18,103.21,125.98-.22c9.89-.02,13.91-7.02,8.93-15.57l-87.53-150.13h0Z"/><path class="cls-2" d="m826.77,605.4l79.13-90.39-.08,37.55,155.88.34-53.02,93.66c-3.68,6.5-13.46,12.2-20.94,12.2,0,0-82.16-.18-82.16-.18l-.08,37.55-78.73-90.74Z"/><path class="cls-3" d="m899.13,532.95l-.03,12.87-.03,13.45,13.45.03,137.65.3-47.35,83.65c-2.46,4.35-10.08,8.79-15.11,8.79l-75.4-.17-13.45-.03-.03,13.45-.03,12.87-63.12-72.75,63.44-72.47m13.53-35.88l-94.82,108.31,94.34,108.72.11-48.78,75.4.17h.05c9.88,0,21.93-7.02,26.8-15.61l58.69-103.67-160.66-.35.11-48.78h0Z"/><path class="cls-1" d="m642.35,340.09l83.89-144.47c1.3-2.24,2.6-3.05,3.15-3.05s1.85.82,3.13,3.07l60.53,106.05-54.67,94.15-96.03-55.76Z"/><path class="cls-3" d="m729.35,203.65l55.94,98.01-49.35,84.99-84.39-49,77.8-133.99m.04-17.81c-3.24,0-6.49,2.13-8.97,6.4l-87.26,150.28,107.66,62.51,59.99-103.32-62.45-109.41c-2.46-4.31-5.71-6.46-8.98-6.46h0Z"/><path class="cls-2" d="m801.37,346.11l32.69-18.48-76.73-135.69,107.62-.19c7.5,0,17.29,5.7,20.97,12.21l40.42,71.49,32.69-18.48-39.98,113.29-117.69-24.13Z"/><path class="cls-3" d="m864.98,198.48c5.01,0,12.63,4.44,15.09,8.79l37.11,65.63,6.62,11.71,11.71-6.62,11.21-6.34-32.05,90.83-94.35-19.35,11.2-6.34,11.71-6.62-6.62-11.71-67.75-119.82,96.09-.17h.04m0-13.45h-.04l-119.13.21,79.08,139.85-42.46,24.01,141.02,28.92,47.91-135.74-42.46,24.01-37.11-65.63c-4.86-8.6-16.91-15.62-26.8-15.62h0Z"/></svg>