<?xml version="1.0" encoding="UTF-8"?><svg id="Layer_1" xmlns="http://www.w3.org/2000/svg" viewBox="0 0 1600 900"><defs><style>.cls-1{fill:#fff;}.cls-2{fill:#a4a4a3;}.cls-3{fill:#121211;}.cls-4{fill:#575756;}.cls-5{fill:none;stroke:#121211;stroke-miterlimit:10;stroke-width:2.83px;}</style></defs><rect class="cls-4" x="331.85" y="116.76" width="483.73" height="40.54"/><rect class="cls-4" x="331.85" y="257.77" width="952.03" height="21.91" transform="translate(1615.72 537.44) rotate(-180)"/><rect class="cls-4" x="331.85" y="226.14" width="907.91" height="21.91" transform="translate(1571.61 474.19) rotate(-180)"/><rect class="cls-4" x="331.85" y="289.39" width="426.61" height="21.91" transform="translate(1090.3 600.7) rotate(-180)"/><rect class="cls-2" x="331.85" y="478.35" width="936.84" height="23.45" transform="translate(1600.54 980.15) rotate(-180)"/><rect class="cls-2" x="331.85" y="508.07" width="792.19" height="23.45" transform="translate(1455.88 1039.58) rotate(-180)"/><path class="cls-4" d="m512.31,405.39v55.45h-174.79v-55.45h174.79m5.67-5.67h-186.13v66.79h186.13v-66.79h0Z"/><rect class="cls-4" x="331.85" y="366.85" width="310.04" height="21.91" transform="translate(973.73 755.61) rotate(-180)"/><rect class="cls-4" x="331.85" y="567.21" width="310.04" height="21.91" transform="translate(973.73 1156.34) rotate(-180)"/><rect class="cls-2" x="370.35" y="614.09" width="462.99" height="23.45" transform="translate(1203.69 1251.63) rotate(-180)"/><rect class="cls-2" x="370.35" y="664.04" width="369.61" height="23.45" transform="translate(1110.31 1351.52) rotate(-180)"/><path class="cls-4" d="m347.94,615.4c5.75,0,10.42,4.68,10.42,10.42s-4.68,10.42-10.42,10.42-10.42-4.68-10.42-10.42,4.68-10.42,10.42-10.42m0-5.67c-8.89,0-16.09,7.2-16.09,16.09s7.2,16.09,16.09,16.09,16.09-7.2,16.09-16.09-7.2-16.09-16.09-16.09h0Z"/><path class="cls-4" d="m347.94,665.34c5.75,0,10.42,4.68,10.42,10.42s-4.68,10.42-10.42,10.42-10.42-4.68-10.42-10.42,4.68-10.42,10.42-10.42m0-5.67c-8.89,0-16.09,7.2-16.09,16.09s7.2,16.09,16.09,16.09,16.09-7.2,16.09-16.09-7.2-16.09-16.09-16.09h0Z"/><rect class="cls-3" x="331.85" y="722.98" width="203.95" height="70.26"/><rect class="cls-1" x="364.01" y="749.22" width="139.63" height="17.79"/><rect class="cls-5" x="592.29" y="722.98" width="171.79" height="70.26"/><rect class="cls-3" x="619.38" y="749.22" width="117.61" height="17.79"/></svg>