<svg id="Layer_1" data-name="Layer 1" xmlns="http://www.w3.org/2000/svg" viewBox="0 0 1600 900"><defs><style>.cls-1{fill:#f1f1f1;}.cls-2{fill:#fff;}.cls-3{fill:#575756;}.cls-4{fill:#c6c6c6;}.cls-5{fill:#999;}.cls-6{fill:#e6e6e6;}</style></defs><rect class="cls-1" x="-11.94" y="-14.17" width="1623.89" height="928.35"/><rect class="cls-2" x="463.63" y="360.47" width="909.83" height="214.12"/><rect class="cls-3" x="214.74" y="486.96" width="32.93" height="25.65"/><rect class="cls-3" x="214.74" y="417.17" width="208.53" height="16.04"/><rect class="cls-3" x="214.74" y="445.86" width="77.32" height="16.05"/><rect class="cls-4" x="191.26" y="362.07" width="319.88" height="210.91"/><path class="cls-3" d="M509.53,363.68V571.37H192.86V363.68H509.53m3.21-3.21H189.65V574.58H512.74V360.47Z"/><path class="cls-5" d="M351.12,518h-51c-4.75,0-7.82-3.05-7.82-7.76q0-42.71,0-85.4c0-4.66,3.07-7.75,7.69-7.75H402.37a7.28,7.28,0,0,1,7.69,7.63v85.66a7.29,7.29,0,0,1-7.7,7.62Zm50.53-21v-3.81q-.06-31.8-.11-63.6c0-2.79-1.21-4.11-3.77-4.11H304.61c-2.49,0-3.88,1.42-3.88,3.94q0,33,0,66.09c0,.36.05.73.09,1.27.41-.46.68-.74.93-1l31.77-38.33c2.81-3.39,6.59-3.49,9.58-.26,4.74,5.11,9.44,10.24,14.22,15.3,2.25,2.38,4.41,2.4,6.93.29,1.45-1.2,2.87-2.43,4.32-3.63,3.06-2.53,4.95-2.39,7.66.53q9.43,10.17,18.86,20.33Z"/><path class="cls-6" d="M401.65,497l-6.55-7q-9.44-10.16-18.86-20.33c-2.71-2.92-4.6-3.06-7.66-.53-1.45,1.2-2.87,2.43-4.32,3.63-2.52,2.11-4.68,2.09-6.93-.29-4.78-5.06-9.48-10.19-14.22-15.3-3-3.23-6.77-3.13-9.58.26l-31.77,38.33c-.25.3-.52.58-.93,1,0-.54-.09-.91-.09-1.27q0-33,0-66.09c0-2.52,1.39-3.94,3.88-3.94h93.16c2.56,0,3.76,1.32,3.77,4.11q.06,31.8.11,63.6Zm-8.41-50.55a12.61,12.61,0,1,0-12.63,12.66A12.53,12.53,0,0,0,393.24,446.45Z"/><path class="cls-5" d="M393.24,446.45a12.61,12.61,0,1,1-12.59-12.56A12.52,12.52,0,0,1,393.24,446.45Z"/><rect class="cls-3" x="189.65" y="61.73" width="483.73" height="40.54"/><rect class="cls-3" x="189.65" y="133.58" width="407.74" height="18.74" transform="translate(787.04 285.89) rotate(-180)"/><rect class="cls-3" x="189.65" y="290.54" width="229.39" height="26.08" transform="translate(608.69 607.15) rotate(-180)"/><rect class="cls-3" x="539.38" y="440.22" width="241.68" height="17.33" transform="translate(1320.44 897.77) rotate(180)"/><rect class="cls-3" x="567.71" y="497" width="135" height="17.33" transform="translate(1270.42 1011.32) rotate(180)"/><rect class="cls-3" x="539.38" y="497" width="17.33" height="17.33" transform="translate(1096.1 1011.32) rotate(180)"/><rect class="cls-3" x="539.38" y="535.7" width="17.33" height="17.33" transform="translate(1096.1 1088.74) rotate(180)"/><rect class="cls-3" x="567.71" y="535.7" width="101.32" height="17.33" transform="translate(1236.75 1088.74) rotate(180)"/><rect class="cls-3" x="539.38" y="392.46" width="350.28" height="29.2" transform="translate(1429.04 814.13) rotate(-180)"/><rect class="cls-3" x="1314.53" y="522.88" width="32.93" height="25.65"/><rect class="cls-2" x="463.63" y="608.3" width="909.83" height="214.12"/><rect class="cls-3" x="214.74" y="734.79" width="32.93" height="25.65"/><rect class="cls-3" x="214.74" y="665" width="208.53" height="16.04"/><rect class="cls-3" x="214.74" y="693.69" width="77.32" height="16.05"/><rect class="cls-4" x="191.26" y="609.9" width="319.88" height="210.91"/><path class="cls-3" d="M509.53,611.51V819.2H192.86V611.51H509.53m3.21-3.21H189.65V822.42H512.74V608.3Z"/><path class="cls-5" d="M351.12,765.82h-51c-4.75,0-7.82-3-7.82-7.76q0-42.7,0-85.4c0-4.66,3.07-7.75,7.69-7.75H402.37a7.28,7.28,0,0,1,7.69,7.63v85.66a7.29,7.29,0,0,1-7.7,7.62Zm50.53-21V741q-.06-31.8-.11-63.6c0-2.78-1.21-4.11-3.77-4.11H304.61c-2.49,0-3.88,1.43-3.88,3.94q0,33,0,66.09c0,.37.05.73.09,1.28.41-.47.68-.75.93-1l31.77-38.33c2.81-3.39,6.59-3.49,9.58-.26,4.74,5.11,9.44,10.25,14.22,15.31,2.25,2.37,4.41,2.39,6.93.29,1.45-1.21,2.87-2.44,4.32-3.64,3.06-2.53,4.95-2.39,7.66.54L395.1,737.8Z"/><path class="cls-6" d="M401.65,744.83l-6.55-7-18.86-20.32c-2.71-2.93-4.6-3.07-7.66-.54-1.45,1.2-2.87,2.43-4.32,3.64-2.52,2.1-4.68,2.08-6.93-.29-4.78-5.06-9.48-10.2-14.22-15.31-3-3.23-6.77-3.13-9.58.26l-31.77,38.33c-.25.3-.52.58-.93,1,0-.55-.09-.91-.09-1.28q0-33,0-66.09c0-2.51,1.39-3.94,3.88-3.94h93.16c2.56,0,3.76,1.33,3.77,4.11q.06,31.8.11,63.6Zm-8.41-50.54a12.61,12.61,0,1,0-12.63,12.65A12.53,12.53,0,0,0,393.24,694.29Z"/><path class="cls-5" d="M393.24,694.29a12.61,12.61,0,1,1-12.59-12.57A12.52,12.52,0,0,1,393.24,694.29Z"/><rect class="cls-3" x="539.38" y="688.05" width="241.68" height="17.33" transform="translate(1320.44 1393.43) rotate(180)"/><rect class="cls-3" x="567.71" y="744.83" width="135" height="17.33" transform="translate(1270.42 1506.99) rotate(180)"/><rect class="cls-3" x="539.38" y="744.83" width="17.33" height="17.33" transform="translate(1096.1 1506.99) rotate(180)"/><rect class="cls-3" x="539.38" y="783.53" width="17.33" height="17.33" transform="translate(1096.1 1584.4) rotate(180)"/><rect class="cls-3" x="567.71" y="783.53" width="101.32" height="17.33" transform="translate(1236.75 1584.4) rotate(180)"/><rect class="cls-3" x="539.38" y="640.29" width="350.28" height="29.2" transform="translate(1429.04 1309.79) rotate(-180)"/><rect class="cls-3" x="1314.53" y="770.71" width="32.93" height="25.65"/><rect class="cls-2" x="191.88" y="208.26" width="872.47" height="50.81"/><path class="cls-3" d="M1062.12,210.48v46.35h-868V210.48h868m4.46-4.45H189.65v55.26h876.93V206Z"/><rect class="cls-3" x="212.55" y="227.03" width="349.73" height="15.05" transform="translate(774.83 469.11) rotate(180)"/><rect class="cls-3" x="1019.74" y="220.27" width="32.93" height="25.65"/><rect class="cls-3" x="1093.27" y="206.03" width="280.19" height="55.26"/><rect class="cls-2" x="1126.02" y="226.14" width="214.69" height="15.05" transform="translate(2466.73 467.32) rotate(180)"/></svg>