<?xml version="1.0" encoding="UTF-8"?><svg id="Layer_1" xmlns="http://www.w3.org/2000/svg" viewBox="0 0 1600 900"><defs><style>.cls-1{fill:#fff;}.cls-2{fill:#f1f1f1;}.cls-3{fill:#a4a4a3;}.cls-4{fill:#dedee1;}.cls-5{fill:#121211;}.cls-6{fill:#575756;}</style></defs><rect class="cls-2" x="-14.17" y="-14.17" width="1623.89" height="928.35"/><rect class="cls-1" x="270.15" y="360.32" width="1075.64" height="236.56"/><rect class="cls-6" x="271.56" y="76.75" width="668.35" height="29.09"/><rect class="cls-6" x="271.56" y="216.78" width="212.62" height="11.37"/><rect class="cls-6" x="271.56" y="131.01" width="727.83" height="12.88"/><rect class="cls-6" x="271.56" y="154.16" width="464.02" height="12.88"/><rect class="cls-6" x="290.01" y="383.67" width="417.33" height="20.37" transform="translate(997.34 787.7) rotate(-180)"/><rect class="cls-4" x="289.15" y="502.81" width="55.66" height="28.35" rx="12.54" ry="12.54"/><rect class="cls-6" x="299.4" y="512.38" width="35.16" height="9.22" transform="translate(633.96 1033.97) rotate(-180)"/><rect class="cls-4" x="352.17" y="502.81" width="79.73" height="28.35" rx="12.54" ry="12.54"/><rect class="cls-6" x="366.85" y="512.38" width="50.36" height="9.22" transform="translate(784.07 1033.97) rotate(-180)"/><rect class="cls-4" x="440.23" y="502.81" width="93.56" height="28.35" rx="12.54" ry="12.54"/><rect class="cls-6" x="457.46" y="512.38" width="59.1" height="9.22" transform="translate(974.03 1033.97) rotate(-180)"/><rect class="cls-4" x="541.29" y="502.81" width="60.96" height="28.35" rx="12.54" ry="12.54"/><rect class="cls-6" x="552.52" y="512.38" width="38.51" height="9.22" transform="translate(1143.55 1033.97) rotate(-180)"/><rect class="cls-6" x="290.59" y="434.47" width="965.2" height="11.74" transform="translate(1546.38 880.67) rotate(-180)"/><rect class="cls-6" x="290.58" y="458.28" width="192.26" height="11.74" transform="translate(773.43 928.29) rotate(-180)"/><rect class="cls-6" x="297.51" y="552.99" width="28.68" height="23.46" transform="translate(623.71 1129.44) rotate(-180)"/><rect class="cls-1" x="270.15" y="606.02" width="1075.64" height="216.36"/><rect class="cls-6" x="290.01" y="629.37" width="417.33" height="20.37" transform="translate(997.34 1279.1) rotate(-180)"/><rect class="cls-4" x="291.42" y="724.3" width="90.03" height="28.35" rx="13.33" ry="13.33"/><rect class="cls-6" x="308" y="733.86" width="56.87" height="9.22" transform="translate(672.88 1476.95) rotate(-180)"/><rect class="cls-6" x="290.59" y="680.17" width="606.44" height="11.74" transform="translate(1187.62 1372.07) rotate(-180)"/><rect class="cls-6" x="297.51" y="773.17" width="28.68" height="23.46" transform="translate(623.71 1569.8) rotate(-180)"/><rect class="cls-1" x="271.44" y="238.1" width="404.16" height="36.01"/><path class="cls-6" d="m674.33,239.36v33.47h-401.63v-33.47h401.63m2.53-2.53h-406.69v38.54h406.69v-38.54h0Z"/><rect class="cls-6" x="284.04" y="250.85" width="243.9" height="10.49" transform="translate(811.98 512.2) rotate(180)"/><rect class="cls-6" x="650.21" y="250.95" width="14.57" height="10.29"/><rect class="cls-3" x="269.94" y="342.93" width="66.5" height="10.81" transform="translate(606.38 696.66) rotate(-180)"/><rect class="cls-5" x="270.15" y="282.93" width="79.06" height="38.16"/><rect class="cls-1" x="293.16" y="297.9" width="33.03" height="8.21"/></svg>