<?xml version="1.0" encoding="UTF-8"?><svg id="Layer_1" xmlns="http://www.w3.org/2000/svg" viewBox="0 0 1600 900"><defs><style>.cls-1{fill:none;stroke:#575756;stroke-miterlimit:10;stroke-width:3.06px;}.cls-2{fill:#575756;}</style></defs><rect class="cls-2" x="530.87" y="411.22" width="32.93" height="25.65"/><rect class="cls-2" x="205.5" y="411.22" width="250.74" height="29.52"/><rect class="cls-2" x="205.5" y="454.48" width="152.85" height="29.52"/><rect class="cls-2" x="946.22" y="411.22" width="32.93" height="25.65"/><rect class="cls-2" x="620.85" y="411.22" width="281.12" height="29.52"/><rect class="cls-2" x="620.85" y="454.48" width="228.63" height="29.52"/><rect class="cls-2" x="620.85" y="498.25" width="193.49" height="19.05"/><rect class="cls-2" x="1361.57" y="411.22" width="32.93" height="25.65"/><rect class="cls-2" x="1036.21" y="411.22" width="279.98" height="29.52"/><rect class="cls-2" x="1036.21" y="454.48" width="230.94" height="29.52"/><rect class="cls-2" x="530.87" y="575.98" width="32.93" height="25.65"/><rect class="cls-2" x="205.5" y="575.98" width="250.74" height="29.52"/><rect class="cls-2" x="205.5" y="619.24" width="69.83" height="29.52"/><rect class="cls-2" x="205.5" y="663" width="174.22" height="19.05"/><rect class="cls-2" x="946.22" y="575.98" width="32.93" height="25.65"/><rect class="cls-2" x="620.85" y="575.98" width="281.12" height="29.52"/><rect class="cls-2" x="620.85" y="619.24" width="155.81" height="29.52"/><rect class="cls-2" x="1036.21" y="496.02" width="193.49" height="19.05"/><rect class="cls-2" x="1361.57" y="575.98" width="32.93" height="25.65"/><rect class="cls-2" x="1036.21" y="575.98" width="279.98" height="29.52"/><rect class="cls-2" x="1036.21" y="619.24" width="230.94" height="29.52"/><rect class="cls-2" x="530.87" y="259.32" width="32.93" height="25.65"/><rect class="cls-2" x="205.5" y="259.32" width="250.74" height="29.52"/><rect class="cls-2" x="205.5" y="302.57" width="152.85" height="29.52"/><rect class="cls-2" x="205.5" y="346.34" width="178.32" height="19.05"/><rect class="cls-2" x="946.22" y="259.32" width="32.93" height="25.65"/><rect class="cls-2" x="620.85" y="259.32" width="281.12" height="29.52"/><rect class="cls-2" x="620.85" y="302.57" width="228.63" height="29.52"/><rect class="cls-2" x="620.85" y="346.34" width="119.03" height="19.05"/><rect class="cls-2" x="1361.57" y="259.32" width="32.93" height="25.65"/><rect class="cls-2" x="1036.21" y="259.32" width="279.98" height="29.52"/><rect class="cls-2" x="1036.21" y="302.57" width="230.94" height="29.52"/><rect class="cls-2" x="205.5" y="155.61" width="483.73" height="40.54"/><rect class="cls-1" x="721.29" y="754.87" width="157.42" height="70.26"/><rect class="cls-2" x="764.42" y="781.11" width="71.15" height="17.79"/></svg>