<?xml version="1.0" encoding="UTF-8"?><svg id="Layer_1" xmlns="http://www.w3.org/2000/svg" viewBox="0 0 1600 900"><defs><style>.cls-1{fill:#f3a4c6;}.cls-2{fill:#fff;}.cls-3{fill:#a4a4a3;}.cls-4{fill:#121211;}.cls-5{fill:#575756;}</style></defs><rect class="cls-5" x="211.06" y="162.21" width="483.73" height="40.54"/><rect class="cls-5" x="239.97" y="254.44" width="527.15" height="17.89" transform="translate(1007.08 526.78) rotate(-180)"/><rect class="cls-5" x="239.97" y="282.09" width="306.88" height="17.89" transform="translate(786.81 582.07) rotate(-180)"/><rect class="cls-3" x="239.15" y="331.36" width="108.62" height="12.3" transform="translate(586.92 675.02) rotate(-180)"/><rect class="cls-4" x="211.06" y="686.16" width="175.89" height="51.63"/><rect class="cls-2" x="238.8" y="705.44" width="120.41" height="13.07"/><rect class="cls-1" x="211.06" y="248.56" width="4.31" height="99.61"/><rect class="cls-5" x="239.97" y="385.2" width="527.15" height="17.89" transform="translate(1007.08 788.3) rotate(-180)"/><rect class="cls-3" x="239.15" y="434.99" width="108.62" height="12.3" transform="translate(586.92 882.27) rotate(-180)"/><rect class="cls-1" x="211.06" y="379.32" width="4.31" height="99.61"/><rect class="cls-5" x="239.97" y="515.96" width="527.15" height="17.89" transform="translate(1007.08 1049.81) rotate(-180)"/><rect class="cls-5" x="239.97" y="543.6" width="306.88" height="17.89" transform="translate(786.81 1105.1) rotate(-180)"/><rect class="cls-3" x="239.15" y="592.88" width="108.62" height="12.3" transform="translate(586.92 1198.05) rotate(-180)"/><rect class="cls-1" x="211.06" y="510.08" width="4.31" height="128.23"/><rect class="cls-5" x="850.12" y="254.44" width="489.82" height="17.89" transform="translate(2190.06 526.78) rotate(-180)"/><rect class="cls-3" x="849.3" y="304.36" width="108.62" height="12.3" transform="translate(1807.23 621.02) rotate(-180)"/><rect class="cls-1" x="821.22" y="248.56" width="4.31" height="99.61"/><rect class="cls-5" x="850.12" y="385.2" width="527.15" height="17.89" transform="translate(2227.39 788.3) rotate(-180)"/><rect class="cls-5" x="850.12" y="412.85" width="554.54" height="17.89" transform="translate(2254.78 843.58) rotate(-180)"/><rect class="cls-3" x="849.3" y="462.12" width="108.62" height="12.3" transform="translate(1807.23 936.54) rotate(-180)"/><rect class="cls-1" x="821.22" y="379.32" width="4.31" height="99.61"/><rect class="cls-5" x="850.12" y="515.96" width="527.15" height="17.89" transform="translate(2227.39 1049.81) rotate(-180)"/><rect class="cls-5" x="850.12" y="543.6" width="511.89" height="17.89" transform="translate(2212.13 1105.1) rotate(-180)"/><rect class="cls-5" x="850.12" y="571.25" width="190.42" height="17.89" transform="translate(1890.67 1160.39) rotate(-180)"/><rect class="cls-3" x="849.3" y="620.07" width="108.62" height="12.3" transform="translate(1807.23 1252.44) rotate(-180)"/><rect class="cls-1" x="821.22" y="510.08" width="4.31" height="128.22"/></svg>