<svg id="Layer_1" data-name="Layer 1" xmlns="http://www.w3.org/2000/svg" viewBox="0 0 1600 900"><defs><style>.cls-1{fill:#c6c6c6;}.cls-2{fill:#575756;}.cls-3{fill:#999;}.cls-4{fill:#e6e6e6;}</style></defs><rect class="cls-1" x="316.93" y="123.72" width="981.86" height="652.56"/><path class="cls-2" d="M1297.39,125.12V774.88H318.33V125.12h979.06m2.8-2.8H315.53V777.68h984.66V122.32Z"/><path class="cls-3" d="M807.71,558.58H698c-10.22,0-16.83-6.57-16.83-16.71V358.11c0-10,6.62-16.68,16.57-16.69H918c9.83,0,16.54,6.66,16.54,16.42q0,92.16,0,184.33c0,9.74-6.74,16.4-16.56,16.41Z"/><path class="cls-4" d="M871.65,533a16.18,16.18,0,0,1-16.18-16.19V381.77a16.19,16.19,0,1,1,32.37,0V516.84A16.19,16.19,0,0,1,871.65,533Z"/><path class="cls-4" d="M826,533a16.19,16.19,0,0,1-16.19-16.19V446a16.19,16.19,0,1,1,32.38,0v70.85A16.19,16.19,0,0,1,826,533Z"/><path class="cls-4" d="M780.29,533a16.19,16.19,0,0,1-16.19-16.19V422.09a16.19,16.19,0,0,1,32.37,0v94.75A16.18,16.18,0,0,1,780.29,533Z"/><path class="cls-4" d="M734.6,533a16.18,16.18,0,0,1-16.18-16.19V479.36a16.19,16.19,0,1,1,32.37,0v37.48A16.19,16.19,0,0,1,734.6,533Z"/></svg>