<?xml version="1.0" encoding="UTF-8"?><svg id="Layer_1" xmlns="http://www.w3.org/2000/svg" viewBox="0 0 1623.89 928.35"><defs><style>.cls-1{fill:#e6e6e6;}.cls-2{fill:#fff;}.cls-3{fill:#f1f1f1;}.cls-4{fill:#999;}.cls-5{fill:#b7daf5;}.cls-6{fill:#c6c6c6;}.cls-7{fill:#121211;}.cls-8{fill:#575756;}</style></defs><rect class="cls-3" width="1623.89" height="928.35"/><rect class="cls-8" x="366.07" y="69.53" width="555.54" height="24.18"/><rect class="cls-8" x="366.07" y="199.63" width="892.87" height=".81" transform="translate(1625.01 400.07) rotate(180)"/><rect class="cls-8" x="366.07" y="416.31" width="892.87" height=".81" transform="translate(1625.01 833.43) rotate(180)"/><rect class="cls-8" x="366.07" y="135.9" width="176.73" height="9.45"/><rect class="cls-8" x="366.07" y="219.74" width="142.55" height="9.45"/><rect class="cls-8" x="366.07" y="369.81" width="100.81" height="11.12"/><rect class="cls-8" x="518.27" y="219.74" width="9.45" height="9.45"/><rect class="cls-2" x="367.34" y="153.85" width="426.08" height="34.54"/><path class="cls-8" d="m792.15,155.13v31.99h-423.53v-31.99h423.53m2.55-2.55h-428.63v37.09h428.63v-37.09h0Z"/><rect class="cls-8" x="380.68" y="166.07" width="257.06" height="10.1" transform="translate(1018.42 342.24) rotate(180)"/><rect class="cls-8" x="766.61" y="166.17" width="15.36" height="9.91"/><rect class="cls-8" x="1060.68" y="334.68" width="176.73" height="9.45"/><rect class="cls-2" x="1062.48" y="352.36" width="194.84" height="35.36"/><path class="cls-8" d="m1256.45,353.22v33.63h-193.11v-33.63h193.11m1.73-1.73h-196.57v37.09h196.57v-37.09h0Z"/><rect class="cls-8" x="1074.99" y="364.99" width="94.3" height="10.1" transform="translate(2244.28 740.08) rotate(180)"/><rect class="cls-8" x="1232.46" y="365.09" width="9.91" height="9.91"/><rect class="cls-8" x="832.32" y="135.9" width="176.73" height="9.45"/><rect class="cls-2" x="832.44" y="153.85" width="425.22" height="34.54"/><path class="cls-8" d="m1256.39,155.12v31.99h-422.67v-31.99h422.67m2.55-2.55h-427.77v37.09h427.77v-37.09h0Z"/><rect class="cls-8" x="871.81" y="166.07" width="256.54" height="10.1" transform="translate(2000.16 342.24) rotate(180)"/><rect class="cls-8" x="1230.9" y="166.17" width="15.33" height="9.91"/><rect class="cls-8" x="849.35" y="164.24" width="15.33" height="14.02"/><rect class="cls-7" x="366.07" y="240.9" width="65.71" height="31.72"/><rect class="cls-2" x="385.2" y="253.34" width="27.45" height="6.83"/><rect class="cls-2" x="364.95" y="435.31" width="893" height="205.55"/><rect class="cls-8" x="383.33" y="455.67" width="60.65" height="16.93" transform="translate(827.31 928.27) rotate(-180)"/><rect class="cls-5" x="381.94" y="483.01" width="46.27" height="23.56" rx="10.42" ry="10.42"/><rect class="cls-8" x="390.46" y="490.96" width="29.23" height="7.66" transform="translate(810.14 989.58) rotate(-180)"/><rect class="cls-8" x="387.25" y="597.27" width="23.84" height="19.5" transform="translate(798.34 1214.04) rotate(-180)"/><rect class="cls-6" x="982.64" y="452.18" width="258.32" height="171.95"/><path class="cls-4" d="m1111.74,578.48c-13.59,0-27.17,0-40.76,0-3.79,0-6.25-2.36-6.25-6.01,0-22.03,0-44.07,0-66.1,0-3.6,2.46-6,6.16-6,27.28,0,54.55,0,81.83,0,3.65,0,6.15,2.39,6.15,5.91,0,22.1,0,44.2,0,66.3,0,3.5-2.5,5.9-6.16,5.9-13.66,0-27.31,0-40.97,0Zm40.4-16.24c0-1.15,0-2.05,0-2.95-.03-16.41-.06-32.82-.09-49.22,0-2.16-.96-3.18-3.01-3.19-24.83,0-49.66,0-74.49,0-1.99,0-3.1,1.1-3.1,3.05,0,17.05,0,34.1,0,51.16,0,.28.04.56.07.99.33-.36.54-.58.74-.81,8.47-9.89,16.94-19.78,25.4-29.66,2.25-2.63,5.27-2.7,7.66-.2,3.78,3.95,7.54,7.93,11.37,11.85,1.79,1.84,3.52,1.85,5.54.22,1.16-.93,2.29-1.89,3.46-2.81,2.44-1.95,3.95-1.85,6.12.42,5.02,5.24,10.05,10.49,15.08,15.73,1.68,1.75,3.37,3.5,5.24,5.44Z"/><path class="cls-1" d="m1152.14,562.24c-1.87-1.94-3.56-3.69-5.24-5.44-5.03-5.24-10.05-10.49-15.08-15.73-2.17-2.26-3.68-2.37-6.12-.42-1.16.93-2.3,1.88-3.46,2.81-2.02,1.63-3.75,1.61-5.54-.22-3.82-3.92-7.58-7.89-11.37-11.85-2.39-2.5-5.41-2.42-7.66.2-8.47,9.89-16.94,19.78-25.4,29.66-.2.23-.41.45-.74.81-.03-.42-.07-.7-.07-.99,0-17.05,0-34.1,0-51.16,0-1.95,1.11-3.05,3.1-3.05,24.83,0,49.66,0,74.49,0,2.05,0,3.01,1.03,3.01,3.19.03,16.41.06,32.82.09,49.22,0,.9,0,1.8,0,2.95Zm-6.72-39.12c0-5.4-4.48-9.73-10.07-9.73-5.65,0-10.11,4.32-10.1,9.8,0,5.4,4.48,9.73,10.07,9.73,5.65,0,10.11-4.32,10.1-9.8Z"/><path class="cls-4" d="m1145.41,523.12c0,5.48-4.45,9.8-10.1,9.8-5.59,0-10.06-4.33-10.07-9.73,0-5.48,4.45-9.8,10.1-9.8,5.59,0,10.06,4.33,10.07,9.73Z"/><rect class="cls-2" x="364.95" y="653.27" width="893" height="205.55"/><rect class="cls-8" x="383.33" y="673.63" width="105.62" height="16.93" transform="translate(872.28 1364.19) rotate(-180)"/><rect class="cls-5" x="381.94" y="700.97" width="46.27" height="23.56" rx="10.42" ry="10.42"/><rect class="cls-8" x="390.46" y="708.92" width="29.23" height="7.66" transform="translate(810.14 1425.5) rotate(-180)"/><rect class="cls-8" x="387.25" y="815.23" width="23.84" height="19.5" transform="translate(798.34 1649.95) rotate(-180)"/><rect class="cls-6" x="982.64" y="670.14" width="258.32" height="171.95"/><path class="cls-4" d="m1111.74,796.44c-13.59,0-27.17,0-40.76,0-3.79,0-6.25-2.36-6.25-6.01,0-22.03,0-44.07,0-66.1,0-3.6,2.46-6,6.16-6,27.28,0,54.55,0,81.83,0,3.65,0,6.15,2.39,6.15,5.91,0,22.1,0,44.2,0,66.3,0,3.5-2.5,5.9-6.16,5.9-13.66,0-27.31,0-40.97,0Zm40.4-16.24c0-1.15,0-2.05,0-2.95-.03-16.41-.06-32.82-.09-49.22,0-2.16-.96-3.18-3.01-3.19-24.83,0-49.66,0-74.49,0-1.99,0-3.1,1.1-3.1,3.05,0,17.05,0,34.1,0,51.16,0,.28.04.56.07.99.33-.36.54-.58.74-.81,8.47-9.89,16.94-19.78,25.4-29.66,2.25-2.63,5.27-2.7,7.66-.2,3.78,3.95,7.54,7.93,11.37,11.85,1.79,1.84,3.52,1.85,5.54.22,1.16-.93,2.29-1.89,3.46-2.81,2.44-1.95,3.95-1.85,6.12.42,5.02,5.24,10.05,10.49,15.08,15.73,1.68,1.75,3.37,3.5,5.24,5.44Z"/><path class="cls-1" d="m1152.14,780.19c-1.87-1.94-3.56-3.69-5.24-5.44-5.03-5.24-10.05-10.49-15.08-15.73-2.17-2.26-3.68-2.37-6.12-.42-1.16.93-2.3,1.88-3.46,2.81-2.02,1.63-3.75,1.61-5.54-.22-3.82-3.92-7.58-7.89-11.37-11.85-2.39-2.5-5.41-2.42-7.66.2-8.47,9.89-16.94,19.78-25.4,29.66-.2.23-.41.45-.74.81-.03-.42-.07-.7-.07-.99,0-17.05,0-34.1,0-51.16,0-1.95,1.11-3.05,3.1-3.05,24.83,0,49.66,0,74.49,0,2.05,0,3.01,1.03,3.01,3.19.03,16.41.06,32.82.09,49.22,0,.9,0,1.8,0,2.95Zm-6.72-39.12c0-5.4-4.48-9.73-10.07-9.73-5.65,0-10.11,4.32-10.1,9.8,0,5.4,4.48,9.73,10.07,9.73,5.65,0,10.11-4.32,10.1-9.8Z"/><path class="cls-4" d="m1145.41,741.08c0,5.48-4.45,9.8-10.1,9.8-5.59,0-10.06-4.33-10.07-9.73,0-5.48,4.45-9.8,10.1-9.8,5.59,0,10.06,4.33,10.07,9.73Z"/></svg>