<?xml version="1.0" encoding="UTF-8"?><svg id="Layer_1" xmlns="http://www.w3.org/2000/svg" viewBox="0 0 1600 900"><defs><style>.cls-1{fill:#e6e6e6;}.cls-2{fill:#fff;}.cls-3{fill:#f1f1f1;}.cls-4{fill:#999;}.cls-5{fill:#a4a4a3;}.cls-6{fill:#dedee1;}.cls-7{fill:#c6c6c6;}.cls-8{fill:#121211;}.cls-9{fill:#575756;}</style></defs><rect class="cls-3" x="-14.17" y="-14.17" width="1623.89" height="928.35"/><rect class="cls-2" x="307.47" y="395.82" width="999.55" height="223.92"/><rect class="cls-9" x="1022.59" y="525.09" width="29.53" height="22.27"/><rect class="cls-9" x="1022.59" y="464.5" width="186.99" height="13.92"/><rect class="cls-9" x="1022.59" y="489.41" width="69.33" height="13.93"/><rect class="cls-7" x="1000.09" y="415.28" width="289.71" height="185.87"/><path class="cls-4" d="m1144.88,552.01c-15.24,0-30.47,0-45.71,0-4.26,0-7.01-2.65-7.01-6.74,0-24.71,0-49.42,0-74.13,0-4.04,2.76-6.73,6.9-6.73,30.59,0,61.18,0,91.77,0,4.1,0,6.89,2.68,6.9,6.62,0,24.79,0,49.57,0,74.36,0,3.93-2.81,6.62-6.9,6.62-15.32,0-30.63,0-45.95,0Zm45.31-18.22c0-1.29,0-2.3,0-3.3-.03-18.4-.06-36.8-.1-55.21,0-2.42-1.08-3.57-3.38-3.57-27.85,0-55.69,0-83.54,0-2.23,0-3.47,1.24-3.47,3.42,0,19.12,0,38.25,0,57.37,0,.31.05.63.08,1.1.37-.4.61-.65.83-.91,9.5-11.09,18.99-22.18,28.49-33.27,2.52-2.95,5.91-3.03,8.59-.23,4.24,4.43,8.46,8.89,12.75,13.29,2.01,2.06,3.95,2.08,6.21.25,1.3-1.05,2.57-2.12,3.88-3.16,2.74-2.19,4.43-2.07,6.87.47,5.64,5.88,11.27,11.76,16.91,17.64,1.89,1.97,3.78,3.92,5.88,6.1Z"/><path class="cls-1" d="m1190.19,533.8c-2.1-2.18-3.99-4.13-5.88-6.1-5.64-5.88-11.27-11.76-16.91-17.64-2.43-2.54-4.12-2.66-6.87-.47-1.3,1.04-2.58,2.11-3.88,3.16-2.26,1.83-4.2,1.81-6.21-.25-4.29-4.39-8.51-8.85-12.75-13.29-2.68-2.8-6.07-2.72-8.59.23-9.5,11.09-18.99,22.18-28.49,33.27-.22.26-.46.51-.83.91-.04-.48-.08-.79-.08-1.1,0-19.12,0-38.25,0-57.37,0-2.18,1.24-3.42,3.47-3.42,27.85,0,55.69,0,83.54,0,2.3,0,3.37,1.15,3.38,3.57.04,18.4.07,36.8.1,55.21,0,1.01,0,2.02,0,3.3Zm-7.54-43.87c0-6.06-5.02-10.91-11.29-10.91-6.34,0-11.33,4.84-11.33,10.99,0,6.06,5.02,10.91,11.29,10.91,6.33,0,11.34-4.85,11.33-10.99Z"/><path class="cls-4" d="m1182.65,489.92c0,6.14-5,10.99-11.33,10.99-6.27,0-11.29-4.85-11.29-10.91,0-6.15,4.99-10.99,11.33-10.99,6.27,0,11.29,4.85,11.29,10.91Z"/><rect class="cls-9" x="309.16" y="49.64" width="133.35" height="19.83"/><rect class="cls-9" x="309.16" y="87.48" width="99.72" height="9.92"/><rect class="cls-9" x="333.34" y="214.99" width="136.97" height="9.92"/><rect class="cls-9" x="326.71" y="416.81" width="219.9" height="23.95" transform="translate(873.32 857.57) rotate(-180)"/><rect class="cls-6" x="329.84" y="516.03" width="65.44" height="26.09" rx="13.04" ry="13.04"/><rect class="cls-9" x="341.9" y="524.83" width="41.34" height="8.48" transform="translate(725.13 1058.15) rotate(-180)"/><rect class="cls-6" x="403.94" y="516.03" width="93.74" height="26.09" rx="13.04" ry="13.04"/><rect class="cls-9" x="421.2" y="524.83" width="59.21" height="8.48" transform="translate(901.61 1058.15) rotate(-180)"/><rect class="cls-6" x="507.47" y="516.03" width="110" height="26.09" rx="13.04" ry="13.04"/><rect class="cls-9" x="527.73" y="524.83" width="69.48" height="8.48" transform="translate(1124.95 1058.15) rotate(-180)"/><rect class="cls-6" x="626.29" y="516.03" width="71.68" height="26.09" rx="13.04" ry="13.04"/><rect class="cls-9" x="639.49" y="524.83" width="45.28" height="8.48" transform="translate(1324.26 1058.15) rotate(-180)"/><rect class="cls-6" x="706.03" y="516.03" width="90.11" height="26.09" rx="13.04" ry="13.04"/><rect class="cls-9" x="722.63" y="524.83" width="56.92" height="8.48" transform="translate(1502.18 1058.15) rotate(-180)"/><rect class="cls-9" x="328.02" y="455.59" width="15.65" height="15.65" transform="translate(671.69 926.83) rotate(-180)"/><rect class="cls-9" x="352.21" y="457.68" width="198.55" height="11.48" transform="translate(902.96 926.83) rotate(-180)"/><rect class="cls-9" x="328.02" y="484.83" width="15.65" height="15.65" transform="translate(671.69 985.31) rotate(-180)"/><rect class="cls-9" x="351" y="486.91" width="198.55" height="11.48" transform="translate(900.54 985.31) rotate(-180)"/><rect class="cls-9" x="334.56" y="572.01" width="19.42" height="20.08" transform="translate(688.54 1164.11) rotate(-180)"/><rect class="cls-2" x="307.47" y="626.44" width="999.55" height="223.92"/><rect class="cls-9" x="1022.59" y="755.71" width="29.53" height="22.27"/><rect class="cls-9" x="1022.59" y="695.12" width="186.99" height="13.92"/><rect class="cls-9" x="1022.59" y="720.03" width="69.33" height="13.93"/><rect class="cls-7" x="1000.09" y="645.9" width="289.71" height="185.87"/><path class="cls-4" d="m1144.88,782.63c-15.24,0-30.47,0-45.71,0-4.26,0-7.01-2.65-7.01-6.74,0-24.71,0-49.42,0-74.13,0-4.04,2.76-6.73,6.9-6.73,30.59,0,61.18,0,91.77,0,4.1,0,6.89,2.68,6.9,6.62,0,24.79,0,49.57,0,74.36,0,3.93-2.81,6.62-6.9,6.62-15.32,0-30.63,0-45.95,0Zm45.31-18.22c0-1.29,0-2.3,0-3.3-.03-18.4-.06-36.8-.1-55.21,0-2.42-1.08-3.57-3.38-3.57-27.85,0-55.69,0-83.54,0-2.23,0-3.47,1.24-3.47,3.42,0,19.12,0,38.25,0,57.37,0,.31.05.63.08,1.1.37-.4.61-.65.83-.91,9.5-11.09,18.99-22.18,28.49-33.27,2.52-2.95,5.91-3.03,8.59-.23,4.24,4.43,8.46,8.89,12.75,13.29,2.01,2.06,3.95,2.08,6.21.25,1.3-1.05,2.57-2.12,3.88-3.16,2.74-2.19,4.43-2.07,6.87.47,5.64,5.88,11.27,11.76,16.91,17.64,1.89,1.97,3.78,3.92,5.88,6.1Z"/><path class="cls-1" d="m1190.19,764.42c-2.1-2.18-3.99-4.13-5.88-6.1-5.64-5.88-11.27-11.76-16.91-17.64-2.43-2.54-4.12-2.66-6.87-.47-1.3,1.04-2.58,2.11-3.88,3.16-2.26,1.83-4.2,1.81-6.21-.25-4.29-4.39-8.51-8.85-12.75-13.29-2.68-2.8-6.07-2.72-8.59.23-9.5,11.09-18.99,22.18-28.49,33.27-.22.26-.46.51-.83.91-.04-.48-.08-.79-.08-1.1,0-19.12,0-38.25,0-57.37,0-2.18,1.24-3.42,3.47-3.42,27.85,0,55.69,0,83.54,0,2.3,0,3.37,1.15,3.38,3.57.04,18.4.07,36.8.1,55.21,0,1.01,0,2.02,0,3.3Zm-7.54-43.87c0-6.06-5.02-10.91-11.29-10.91-6.34,0-11.33,4.84-11.33,10.99,0,6.06,5.02,10.91,11.29,10.91,6.33,0,11.34-4.85,11.33-10.99Z"/><path class="cls-4" d="m1182.65,720.54c0,6.14-5,10.99-11.33,10.99-6.27,0-11.29-4.85-11.29-10.91,0-6.15,4.99-10.99,11.33-10.99,6.27,0,11.29,4.85,11.29,10.91Z"/><rect class="cls-9" x="326.71" y="647.43" width="219.9" height="23.95" transform="translate(873.32 1318.81) rotate(-180)"/><rect class="cls-6" x="329.84" y="746.65" width="65.44" height="26.09" rx="13.04" ry="13.04"/><rect class="cls-9" x="341.9" y="755.45" width="41.34" height="8.48" transform="translate(725.13 1519.39) rotate(-180)"/><rect class="cls-6" x="403.94" y="746.65" width="93.74" height="26.09" rx="13.04" ry="13.04"/><rect class="cls-9" x="421.2" y="755.45" width="59.21" height="8.48" transform="translate(901.61 1519.39) rotate(-180)"/><rect class="cls-6" x="507.47" y="746.65" width="110" height="26.09" rx="13.04" ry="13.04"/><rect class="cls-9" x="527.73" y="755.45" width="69.48" height="8.48" transform="translate(1124.95 1519.39) rotate(-180)"/><rect class="cls-6" x="626.29" y="746.65" width="71.68" height="26.09" rx="13.04" ry="13.04"/><rect class="cls-9" x="639.49" y="755.45" width="45.28" height="8.48" transform="translate(1324.26 1519.39) rotate(-180)"/><rect class="cls-6" x="706.03" y="746.65" width="90.11" height="26.09" rx="13.04" ry="13.04"/><rect class="cls-9" x="722.63" y="755.45" width="56.92" height="8.48" transform="translate(1502.18 1519.39) rotate(-180)"/><rect class="cls-9" x="328.02" y="686.21" width="15.65" height="15.65" transform="translate(671.69 1388.07) rotate(-180)"/><rect class="cls-9" x="352.21" y="688.29" width="198.55" height="11.48" transform="translate(902.96 1388.07) rotate(-180)"/><rect class="cls-9" x="328.02" y="715.45" width="15.65" height="15.65" transform="translate(671.69 1446.54) rotate(-180)"/><rect class="cls-9" x="351" y="717.53" width="198.55" height="11.48" transform="translate(900.54 1446.54) rotate(-180)"/><rect class="cls-9" x="334.56" y="802.63" width="19.42" height="20.08" transform="translate(688.54 1625.35) rotate(-180)"/><rect class="cls-2" x="309.03" y="106.62" width="475.17" height="42.33"/><path class="cls-9" d="m782.7,108.11v39.35h-472.19v-39.35h472.19m2.98-2.98h-478.15v45.31h478.15v-45.31h0Z"/><rect class="cls-9" x="323.83" y="121.62" width="286.76" height="12.34" transform="translate(934.43 255.57) rotate(180)"/><rect class="cls-9" x="754.35" y="121.73" width="17.13" height="12.1"/><path class="cls-9" d="m321.52,215.03v9.34h-9.34v-9.34h9.34m4.65-4.65h-18.63v18.63h18.63v-18.63h0Z"/><rect class="cls-5" x="307.47" y="156.9" width="436.29" height="11.12" transform="translate(1051.22 324.92) rotate(-180)"/><rect class="cls-5" x="307.47" y="336.91" width="1000.79" height="1.38" transform="translate(1615.72 675.2) rotate(180)"/><rect class="cls-5" x="307.47" y="177.15" width="45.16" height="11.12" transform="translate(660.1 365.43) rotate(-180)"/><rect class="cls-5" x="307.47" y="367.64" width="45.16" height="11.12" transform="translate(660.1 746.41) rotate(-180)"/><rect class="cls-8" x="307.5" y="255.53" width="92.95" height="44.86"/><rect class="cls-2" x="334.56" y="273.13" width="38.83" height="9.66"/></svg>