<?xml version="1.0" encoding="UTF-8"?><svg id="Layer_1" xmlns="http://www.w3.org/2000/svg" viewBox="0 0 1600 900"><defs><style>.cls-1{fill:#1a1a1a;}.cls-2{fill:#575756;}</style></defs><rect class="cls-2" x="333.7" y="285.13" width="504.79" height="32.79"/><rect class="cls-2" x="361.84" y="378.19" width="247.64" height="16.09"/><circle class="cls-1" cx="346.55" cy="386.23" r="3.27"/><rect class="cls-2" x="361.84" y="423.01" width="311.87" height="16.09"/><circle class="cls-1" cx="346.55" cy="431.06" r="3.27"/><rect class="cls-2" x="361.84" y="467.84" width="280.63" height="16.09"/><circle class="cls-1" cx="346.55" cy="475.89" r="3.27"/><rect class="cls-2" x="361.84" y="509.13" width="228.8" height="16.09"/><circle class="cls-1" cx="346.55" cy="517.17" r="3.27"/><rect class="cls-2" x="361.84" y="553.96" width="272.32" height="16.09"/><circle class="cls-1" cx="346.55" cy="562" r="3.27"/><rect class="cls-2" x="361.84" y="598.79" width="228.8" height="16.09"/><circle class="cls-1" cx="346.55" cy="606.83" r="3.27"/><rect class="cls-2" x="1001.4" y="378.19" width="143.11" height="16.09"/><circle class="cls-1" cx="986.11" cy="386.23" r="3.27"/><rect class="cls-2" x="1001.4" y="423.01" width="280.63" height="16.09"/><circle class="cls-1" cx="986.11" cy="431.06" r="3.27"/><rect class="cls-2" x="1001.4" y="467.84" width="237.84" height="16.09"/><circle class="cls-1" cx="986.11" cy="475.89" r="3.27"/><rect class="cls-2" x="1001.4" y="509.13" width="248.88" height="16.09"/><circle class="cls-1" cx="986.11" cy="517.17" r="3.27"/><rect class="cls-2" x="1001.4" y="553.96" width="107.27" height="16.09"/><circle class="cls-1" cx="986.11" cy="562" r="3.27"/></svg>