<?xml version="1.0" encoding="UTF-8"?><svg id="Layer_1" xmlns="http://www.w3.org/2000/svg" viewBox="0 0 1600 900"><defs><style>.cls-1{fill:#e6e6e6;}.cls-2{fill:#c6c6c6;}.cls-3{fill:#575756;}.cls-4{fill:#999;}</style></defs><rect class="cls-3" x="415.29" y="50.04" width="483.73" height="35.01"/><rect class="cls-3" x="415.29" y="115.34" width="742.15" height="15.37" transform="translate(1572.73 246.05) rotate(-180)"/><rect class="cls-3" x="415.29" y="140.11" width="652.96" height="15.37" transform="translate(1483.54 295.59) rotate(-180)"/><rect class="cls-3" x="444.19" y="246.54" width="240.16" height="18.47"/><rect class="cls-3" x="444.19" y="279.58" width="89.04" height="18.48"/><rect class="cls-2" x="415.29" y="181.23" width="372.09" height="246.59"/><path class="cls-4" d="M601.26,362.64c-19.57,0-39.14,0-58.71,0-5.47,0-9.01-3.51-9.01-8.94,0-32.78,0-65.57,0-98.35,0-5.36,3.54-8.93,8.87-8.93,39.29,0,78.58,0,117.87,0,5.26,0,8.86,3.56,8.86,8.79,0,32.88,0,65.77,0,98.65,0,5.21-3.61,8.78-8.87,8.78-19.67,0-39.34,0-59.01,0ZM659.45,338.47c0-1.71,0-3.05,0-4.38-.04-24.41-.08-48.83-.13-73.24,0-3.21-1.39-4.74-4.34-4.74-35.76,0-71.53,0-107.29,0-2.87,0-4.46,1.64-4.46,4.54,0,25.37,0,50.75,0,76.12,0,.42.06.83.1,1.47.47-.53.78-.86,1.07-1.21,12.2-14.71,24.39-29.43,36.59-44.14,3.24-3.91,7.59-4.02,11.04-.3,5.45,5.88,10.87,11.8,16.37,17.63,2.59,2.73,5.07,2.76,7.98.33,1.67-1.39,3.31-2.81,4.98-4.19,3.52-2.91,5.7-2.75,8.82.62,7.24,7.8,14.48,15.61,21.72,23.41,2.42,2.61,4.86,5.21,7.55,8.09Z"/><path class="cls-1" d="M659.45,338.47c-2.69-2.89-5.13-5.49-7.55-8.09-7.24-7.8-14.48-15.6-21.72-23.41-3.12-3.37-5.3-3.53-8.82-.62-1.67,1.38-3.31,2.8-4.98,4.19-2.91,2.42-5.4,2.4-7.98-.33-5.51-5.83-10.92-11.74-16.37-17.63-3.45-3.72-7.8-3.61-11.04.3-12.2,14.71-24.39,29.43-36.59,44.14-.29.35-.6.67-1.07,1.21-.05-.63-.1-1.05-.1-1.47,0-25.37,0-50.75,0-76.12,0-2.89,1.6-4.54,4.46-4.54,35.76,0,71.53,0,107.29,0,2.95,0,4.33,1.53,4.34,4.74.05,24.41.09,48.83.13,73.24,0,1.34,0,2.67,0,4.38ZM649.76,280.26c0-8.04-6.45-14.47-14.5-14.47-8.14,0-14.56,6.42-14.55,14.58,0,8.04,6.45,14.47,14.5,14.48,8.14,0,14.56-6.43,14.55-14.58Z"/><path class="cls-4" d="M649.76,280.26c0,8.15-6.42,14.58-14.55,14.58-8.05,0-14.49-6.44-14.5-14.48,0-8.15,6.41-14.58,14.55-14.58,8.05,0,14.5,6.44,14.5,14.47Z"/><rect class="cls-3" x="841.29" y="246.54" width="240.16" height="18.47"/><rect class="cls-3" x="841.29" y="279.58" width="89.04" height="18.48"/><rect class="cls-2" x="812.39" y="181.23" width="372.09" height="246.59"/><path class="cls-4" d="M998.35,362.64c-19.57,0-39.14,0-58.71,0-5.47,0-9.01-3.51-9.01-8.94,0-32.78,0-65.57,0-98.35,0-5.36,3.54-8.93,8.87-8.93,39.29,0,78.58,0,117.87,0,5.26,0,8.86,3.56,8.86,8.79,0,32.88,0,65.77,0,98.65,0,5.21-3.61,8.78-8.87,8.78-19.67,0-39.34,0-59.01,0ZM1056.54,338.47c0-1.71,0-3.05,0-4.38-.04-24.41-.08-48.83-.13-73.24,0-3.21-1.39-4.74-4.34-4.74-35.76,0-71.53,0-107.29,0-2.87,0-4.46,1.64-4.46,4.54,0,25.37,0,50.75,0,76.12,0,.42.06.83.1,1.47.47-.53.78-.86,1.07-1.21,12.2-14.71,24.39-29.43,36.59-44.14,3.24-3.91,7.59-4.02,11.04-.3,5.45,5.88,10.87,11.8,16.37,17.63,2.59,2.73,5.07,2.76,7.98.33,1.67-1.39,3.31-2.81,4.98-4.19,3.52-2.91,5.7-2.75,8.82.62,7.24,7.8,14.48,15.61,21.72,23.41,2.42,2.61,4.86,5.21,7.55,8.09Z"/><path class="cls-1" d="M1056.54,338.47c-2.69-2.89-5.13-5.49-7.55-8.09-7.24-7.8-14.48-15.6-21.72-23.41-3.12-3.37-5.3-3.53-8.82-.62-1.67,1.38-3.31,2.8-4.98,4.19-2.91,2.42-5.4,2.4-7.98-.33-5.51-5.83-10.92-11.74-16.37-17.63-3.45-3.72-7.8-3.61-11.04.3-12.2,14.71-24.39,29.43-36.59,44.14-.29.35-.6.67-1.07,1.21-.05-.63-.1-1.05-.1-1.47,0-25.37,0-50.75,0-76.12,0-2.89,1.6-4.54,4.46-4.54,35.76,0,71.53,0,107.29,0,2.95,0,4.33,1.53,4.34,4.74.05,24.41.09,48.83.13,73.24,0,1.34,0,2.67,0,4.38ZM1046.86,280.26c0-8.04-6.45-14.47-14.5-14.47-8.14,0-14.56,6.42-14.55,14.58,0,8.04,6.45,14.47,14.5,14.48,8.14,0,14.56-6.43,14.55-14.58Z"/><path class="cls-4" d="M1046.86,280.26c0,8.15-6.42,14.58-14.55,14.58-8.05,0-14.49-6.44-14.5-14.48,0-8.15,6.41-14.58,14.55-14.58,8.05,0,14.5,6.44,14.5,14.47Z"/><rect class="cls-3" x="415.29" y="440.08" width="368.73" height="11.66" transform="translate(1199.31 891.82) rotate(-180)"/><rect class="cls-3" x="812.39" y="440.08" width="290.23" height="11.66" transform="translate(1915 891.82) rotate(-180)"/><rect class="cls-3" x="415.29" y="464.1" width="233.02" height="11.66" transform="translate(1063.6 939.85) rotate(-180)"/><rect class="cls-3" x="444.19" y="574.05" width="240.16" height="18.47"/><rect class="cls-3" x="444.19" y="607.1" width="89.04" height="18.48"/><rect class="cls-2" x="415.29" y="508.75" width="372.09" height="246.59"/><path class="cls-4" d="M601.26,690.16c-19.57,0-39.14,0-58.71,0-5.47,0-9.01-3.51-9.01-8.94,0-32.78,0-65.57,0-98.35,0-5.36,3.54-8.93,8.87-8.93,39.29,0,78.58,0,117.87,0,5.26,0,8.86,3.56,8.86,8.79,0,32.88,0,65.77,0,98.65,0,5.21-3.61,8.78-8.87,8.78-19.67,0-39.34,0-59.01,0ZM659.45,665.99c0-1.71,0-3.05,0-4.38-.04-24.41-.08-48.83-.13-73.24,0-3.21-1.39-4.74-4.34-4.74-35.76,0-71.53,0-107.29,0-2.87,0-4.46,1.64-4.46,4.54,0,25.37,0,50.75,0,76.12,0,.42.06.83.1,1.47.47-.53.78-.86,1.07-1.21,12.2-14.71,24.39-29.43,36.59-44.14,3.24-3.91,7.59-4.02,11.04-.3,5.45,5.88,10.87,11.8,16.37,17.63,2.59,2.73,5.07,2.76,7.98.33,1.67-1.39,3.31-2.81,4.98-4.19,3.52-2.91,5.7-2.75,8.82.62,7.24,7.8,14.48,15.61,21.72,23.41,2.42,2.61,4.86,5.21,7.55,8.09Z"/><path class="cls-1" d="M659.45,665.99c-2.69-2.89-5.13-5.49-7.55-8.09-7.24-7.8-14.48-15.6-21.72-23.41-3.12-3.37-5.3-3.53-8.82-.62-1.67,1.38-3.31,2.8-4.98,4.19-2.91,2.42-5.4,2.4-7.98-.33-5.51-5.83-10.92-11.74-16.37-17.63-3.45-3.72-7.8-3.61-11.04.3-12.2,14.71-24.39,29.43-36.59,44.14-.29.35-.6.67-1.07,1.21-.05-.63-.1-1.05-.1-1.47,0-25.37,0-50.75,0-76.12,0-2.89,1.6-4.54,4.46-4.54,35.76,0,71.53,0,107.29,0,2.95,0,4.33,1.53,4.34,4.74.05,24.41.09,48.83.13,73.24,0,1.34,0,2.67,0,4.38ZM649.76,607.78c0-8.04-6.45-14.47-14.5-14.47-8.14,0-14.56,6.42-14.55,14.58,0,8.04,6.45,14.47,14.5,14.48,8.14,0,14.56-6.43,14.55-14.58Z"/><path class="cls-4" d="M649.76,607.78c0,8.15-6.42,14.58-14.55,14.58-8.05,0-14.49-6.44-14.5-14.48,0-8.15,6.41-14.58,14.55-14.58,8.05,0,14.5,6.44,14.5,14.47Z"/><rect class="cls-3" x="841.29" y="574.05" width="240.16" height="18.47"/><rect class="cls-3" x="841.29" y="607.1" width="89.04" height="18.48"/><rect class="cls-2" x="812.39" y="508.75" width="372.09" height="246.59"/><path class="cls-4" d="M998.35,690.16c-19.57,0-39.14,0-58.71,0-5.47,0-9.01-3.51-9.01-8.94,0-32.78,0-65.57,0-98.35,0-5.36,3.54-8.93,8.87-8.93,39.29,0,78.58,0,117.87,0,5.26,0,8.86,3.56,8.86,8.79,0,32.88,0,65.77,0,98.65,0,5.21-3.61,8.78-8.87,8.78-19.67,0-39.34,0-59.01,0ZM1056.54,665.99c0-1.71,0-3.05,0-4.38-.04-24.41-.08-48.83-.13-73.24,0-3.21-1.39-4.74-4.34-4.74-35.76,0-71.53,0-107.29,0-2.87,0-4.46,1.64-4.46,4.54,0,25.37,0,50.75,0,76.12,0,.42.06.83.1,1.47.47-.53.78-.86,1.07-1.21,12.2-14.71,24.39-29.43,36.59-44.14,3.24-3.91,7.59-4.02,11.04-.3,5.45,5.88,10.87,11.8,16.37,17.63,2.59,2.73,5.07,2.76,7.98.33,1.67-1.39,3.31-2.81,4.98-4.19,3.52-2.91,5.7-2.75,8.82.62,7.24,7.8,14.48,15.61,21.72,23.41,2.42,2.61,4.86,5.21,7.55,8.09Z"/><path class="cls-1" d="M1056.54,665.99c-2.69-2.89-5.13-5.49-7.55-8.09-7.24-7.8-14.48-15.6-21.72-23.41-3.12-3.37-5.3-3.53-8.82-.62-1.67,1.38-3.31,2.8-4.98,4.19-2.91,2.42-5.4,2.4-7.98-.33-5.51-5.83-10.92-11.74-16.37-17.63-3.45-3.72-7.8-3.61-11.04.3-12.2,14.71-24.39,29.43-36.59,44.14-.29.35-.6.67-1.07,1.21-.05-.63-.1-1.05-.1-1.47,0-25.37,0-50.75,0-76.12,0-2.89,1.6-4.54,4.46-4.54,35.76,0,71.53,0,107.29,0,2.95,0,4.33,1.53,4.34,4.74.05,24.41.09,48.83.13,73.24,0,1.34,0,2.67,0,4.38ZM1046.86,607.78c0-8.04-6.45-14.47-14.5-14.47-8.14,0-14.56,6.42-14.55,14.58,0,8.04,6.45,14.47,14.5,14.48,8.14,0,14.56-6.43,14.55-14.58Z"/><path class="cls-4" d="M1046.86,607.78c0,8.15-6.42,14.58-14.55,14.58-8.05,0-14.49-6.44-14.5-14.48,0-8.15,6.41-14.58,14.55-14.58,8.05,0,14.5,6.44,14.5,14.47Z"/><rect class="cls-3" x="415.29" y="767.6" width="355.47" height="11.66" transform="translate(1186.05 1546.85) rotate(-180)"/><rect class="cls-3" x="812.39" y="767.6" width="363.45" height="11.66" transform="translate(1988.23 1546.85) rotate(-180)"/><rect class="cls-3" x="415.29" y="791.32" width="326.48" height="11.66" transform="translate(1157.06 1594.3) rotate(-180)"/><rect class="cls-3" x="812.39" y="791.32" width="313.26" height="11.66" transform="translate(1938.03 1594.3) rotate(-180)"/><rect class="cls-3" x="812.39" y="814.93" width="337.76" height="11.66" transform="translate(1962.53 1641.52) rotate(-180)"/><rect class="cls-3" x="812.39" y="838.31" width="196.77" height="11.66" transform="translate(1821.55 1688.27) rotate(-180)"/><rect class="cls-3" x="415.29" y="815.33" width="136.95" height="11.66" transform="translate(967.53 1642.33) rotate(-180)"/></svg>