<?xml version="1.0" encoding="UTF-8"?><svg id="Layer_1" xmlns="http://www.w3.org/2000/svg" viewBox="0 0 1600 900"><defs><style>.cls-1{fill:#f1f1f1;}.cls-2{fill:#1a1a1a;}.cls-3{fill:#575756;}</style></defs><rect class="cls-1" x="198.78" y="124.81" width="1202.43" height="650.37"/><rect class="cls-3" x="281.29" y="160.32" width="248.91" height="20.27"/><rect class="cls-3" x="1310.86" y="726" width="58.62" height="25.81"/><rect class="cls-3" x="220.48" y="145.52" width="44.84" height="44.84"/><rect class="cls-3" x="220.48" y="219.09" width="416.68" height="25.77"/><rect class="cls-3" x="220.48" y="438.25" width="255.74" height="25.77"/><rect class="cls-3" x="252.54" y="273.59" width="706.29" height="16.09"/><rect class="cls-3" x="252.54" y="303.04" width="247.33" height="16.09"/><circle class="cls-2" cx="240.26" cy="281.64" r="3.27"/><rect class="cls-3" x="252.54" y="342.26" width="800.38" height="16.09"/><rect class="cls-3" x="252.54" y="371.7" width="247.33" height="16.09"/><circle class="cls-2" cx="240.26" cy="350.3" r="3.27"/><rect class="cls-3" x="252.54" y="536.31" width="800.38" height="16.09"/><rect class="cls-3" x="252.54" y="565.76" width="247.33" height="16.09"/><circle class="cls-2" cx="240.26" cy="544.36" r="3.27"/><rect class="cls-3" x="252.54" y="605.32" width="800.38" height="16.09"/><circle class="cls-2" cx="240.26" cy="613.37" r="3.27"/><rect class="cls-3" x="252.54" y="648.38" width="429.89" height="16.09"/><circle class="cls-2" cx="240.26" cy="656.43" r="3.27"/><rect class="cls-3" x="252.54" y="494.95" width="429.89" height="16.09"/><circle class="cls-2" cx="240.26" cy="502.99" r="3.27"/><rect class="cls-3" x="252.54" y="690.44" width="506.93" height="16.09"/><circle class="cls-2" cx="240.26" cy="698.48" r="3.27"/></svg>