<svg id="Layer_1" data-name="Layer 1" xmlns="http://www.w3.org/2000/svg" viewBox="0 0 1600 900"><defs><style>.cls-1{fill:#fff;}.cls-2{fill:#575756;}.cls-3{fill:#c6c6c6;}.cls-4{fill:#999;}.cls-5{fill:#e6e6e6;}</style></defs><rect class="cls-1" x="512.74" y="342.94" width="860.72" height="214.12"/><rect class="cls-2" x="214.74" y="399.65" width="208.53" height="16.04"/><rect class="cls-2" x="214.74" y="428.34" width="77.32" height="16.05"/><rect class="cls-3" x="189.65" y="342.94" width="323.09" height="214.12"/><path class="cls-4" d="M351.12,500.46h-51c-4.75,0-7.82-3-7.82-7.76q0-42.7,0-85.4c0-4.66,3.07-7.76,7.69-7.76H402.37a7.28,7.28,0,0,1,7.69,7.63v85.66a7.29,7.29,0,0,1-7.7,7.63Zm50.53-21v-3.8q-.06-31.8-.11-63.6c0-2.79-1.21-4.12-3.77-4.12H304.61c-2.49,0-3.88,1.43-3.88,3.94q0,33,0,66.1c0,.36.05.72.09,1.27.41-.46.68-.75.93-1.05l31.77-38.32c2.81-3.4,6.59-3.49,9.58-.27,4.74,5.11,9.44,10.25,14.22,15.31,2.25,2.37,4.41,2.39,6.93.29,1.45-1.21,2.87-2.44,4.32-3.64,3.06-2.52,4.95-2.38,7.66.54l18.86,20.32C397.2,474.71,399.31,477,401.65,479.47Z"/><path class="cls-5" d="M401.65,479.47c-2.34-2.51-4.45-4.76-6.55-7l-18.86-20.32c-2.71-2.92-4.6-3.06-7.66-.54-1.45,1.2-2.87,2.43-4.32,3.64-2.52,2.1-4.68,2.08-6.93-.29-4.78-5.06-9.48-10.2-14.22-15.31-3-3.22-6.77-3.13-9.58.27l-31.77,38.32c-.25.3-.52.59-.93,1.05,0-.55-.09-.91-.09-1.27q0-33,0-66.1c0-2.51,1.39-3.94,3.88-3.94h93.16c2.56,0,3.76,1.33,3.77,4.12q.06,31.8.11,63.6Zm-8.41-50.54a12.61,12.61,0,1,0-12.63,12.66A12.53,12.53,0,0,0,393.24,428.93Z"/><path class="cls-2" d="M1369.8,346.61V553.39H193.31V346.61H1369.8m3.66-3.67H189.65V557.06H1373.46V342.94Z"/><path class="cls-4" d="M393.24,428.93a12.61,12.61,0,1,1-12.59-12.57A12.54,12.54,0,0,1,393.24,428.93Z"/><rect class="cls-2" x="539.38" y="457.88" width="17.33" height="17.33" transform="translate(1096.1 933.1) rotate(180)"/><rect class="cls-2" x="539.38" y="488.18" width="17.33" height="17.33" transform="translate(1096.1 993.69) rotate(180)"/><rect class="cls-2" x="567.71" y="488.18" width="279.78" height="17.33" transform="translate(1415.2 993.69) rotate(180)"/><rect class="cls-2" x="567.71" y="427.59" width="206.73" height="17.33" transform="translate(1342.15 872.51) rotate(180)"/><rect class="cls-2" x="539.38" y="427.59" width="17.33" height="17.33" transform="translate(1096.1 872.51) rotate(180)"/><rect class="cls-2" x="567.71" y="457.88" width="101.32" height="17.33" transform="translate(1236.75 933.1) rotate(180)"/><rect class="cls-2" x="539.38" y="374.94" width="580.94" height="29.2" transform="translate(1659.7 779.08) rotate(-180)"/><rect class="cls-2" x="1314.53" y="505.35" width="32.93" height="25.65"/><rect class="cls-2" x="567.71" y="510.58" width="193.11" height="17.33" transform="translate(1328.53 1038.48) rotate(180)"/></svg>