<svg id="Layer_1" data-name="Layer 1" xmlns="http://www.w3.org/2000/svg" viewBox="0 0 1600 900"><defs><style>.cls-1{fill:#575756;}</style></defs><rect class="cls-1" x="210.99" y="275.61" width="483.73" height="40.54"/><rect class="cls-1" x="209.79" y="386.43" width="1157.63" height="18.74" transform="translate(1577.21 791.6) rotate(-180)"/><rect class="cls-1" x="209.79" y="359.39" width="1103.99" height="18.74" transform="translate(1523.57 737.52) rotate(-180)"/><rect class="cls-1" x="209.79" y="413.48" width="1065.75" height="18.74" transform="translate(1485.33 845.69) rotate(-180)"/><rect class="cls-1" x="209.79" y="440.52" width="1135.48" height="18.74" transform="translate(1555.05 899.78) rotate(-180)"/><rect class="cls-1" x="209.79" y="467.56" width="865.81" height="18.74" transform="translate(1285.39 953.87) rotate(-180)"/><rect class="cls-1" x="209.79" y="548.21" width="1144.31" height="18.74" transform="translate(1563.89 1115.15) rotate(-180)"/><rect class="cls-1" x="209.79" y="521.17" width="1098.47" height="18.74" transform="translate(1518.05 1061.07) rotate(-180)"/><rect class="cls-1" x="209.79" y="575.25" width="1043.48" height="18.74" transform="translate(1463.06 1169.24) rotate(-180)"/><rect class="cls-1" x="209.79" y="602.3" width="1180.42" height="18.74" transform="translate(1600 1223.33) rotate(-180)"/><rect class="cls-1" x="209.79" y="629.34" width="407.74" height="18.74" transform="translate(827.32 1277.41) rotate(-180)"/></svg>