<svg id="Layer_1" data-name="Layer 1" xmlns="http://www.w3.org/2000/svg" viewBox="0 0 1623.89 928.35"><defs><style>.cls-1{fill:#e5e4e4;}.cls-2{fill:#575756;}.cls-3{fill:#c6c6c6;}</style></defs><path class="cls-1" d="M628.3,673.77c-2.59,0-3.94-.72-4.22-1.2s-.21-2,1.09-4.25l61.32-105.59H795.36v111Z"/><path class="cls-2" d="M788.63,569.45V667H633.69l56.67-97.59h98.27M802.09,556H682.61L619.35,664.94c-5,8.56-.94,15.55,8.95,15.55H802.09V556Z"/><path class="cls-3" d="M555,559.11c-3.77-6.47-3.75-17.81,0-24.27L596.58,464l-32.4-19,118.05-22.31,38.22,113.89-32.4-19L609.24,652.08Z"/><path class="cls-2" d="M677.72,430.39l30.64,91.31-11.1-6.51-11.61-6.8-6.8,11.6L609.26,638.75l-48.42-83c-2.52-4.33-2.51-13.15,0-17.48L599,473.19l6.8-11.6-11.61-6.81-11.1-6.5,94.64-17.89m9-15.4L545.29,441.73l42.09,24.66-38.12,65.05c-5,8.54-5,22.51,0,31l60,102.92L690.46,526.8l42.08,24.66L686.74,415Z"/><path class="cls-1" d="M904.51,451.28l95.93-55.93,84.15,144.31c1.3,2.24,1.36,3.77,1.09,4.25s-1.63,1.2-4.22,1.21l-122.1.21Z"/><path class="cls-2" d="M998,404.55l78,133.85-112.86.2-49.5-84.9L998,404.55m4.84-18.4L895.32,448.86l60.17,103.21,126-.23c9.89,0,13.91-7,8.93-15.56l-87.54-150.13Z"/><path class="cls-3" d="M838.71,619.58l79.13-90.39-.08,37.55,155.88.34-53,93.66c-3.68,6.5-13.47,12.2-21,12.2l-82.15-.18-.09,37.55Z"/><path class="cls-2" d="M911.08,547.13l0,12.87,0,13.45,13.45,0,137.65.3-47.35,83.65c-2.46,4.35-10.08,8.78-15.1,8.78l-75.4-.16-13.45,0,0,13.45,0,12.87L847.63,619.6l63.45-72.47m13.53-35.88L829.79,619.56l94.34,108.72.11-48.78,75.4.17h0c9.89,0,21.93-7,26.8-15.61l58.68-103.68L924.5,560l.11-48.78Z"/><path class="cls-1" d="M654.29,354.26l83.89-144.47c1.3-2.23,2.59-3,3.15-3s1.85.81,3.13,3.07L805,315.87,750.32,410Z"/><path class="cls-2" d="M741.29,217.83l55.94,98-49.35,85-84.39-49,77.8-134m0-17.81c-3.24,0-6.49,2.13-9,6.4L645.1,356.7l107.66,62.51,60-103.31L750.31,206.48c-2.46-4.3-5.72-6.46-9-6.46Z"/><path class="cls-3" d="M813.31,360.29,846,341.8,769.27,206.11l107.63-.19c7.5,0,17.29,5.71,21,12.21l40.42,71.49L971,271.13,931,384.42Z"/><path class="cls-2" d="M876.92,212.65c5,0,12.63,4.44,15.09,8.79l37.11,65.63,6.63,11.71,11.71-6.62,11.2-6.34-32,90.83L832.25,357.3,843.46,351l11.71-6.62-6.62-11.71L780.79,212.82l96.09-.17h0m0-13.45h0l-119.13.21,79.09,139.85-42.47,24,141,28.92L983.3,256.44l-42.47,24-37.11-65.63c-4.86-8.6-16.91-15.62-26.8-15.62Z"/></svg>