<?xml version="1.0" encoding="UTF-8"?><svg id="Layer_1" xmlns="http://www.w3.org/2000/svg" viewBox="0 0 1600 900"><defs><style>.cls-1{fill:#e7f3fc;}.cls-2{fill:#575756;}.cls-3{fill:#fff;}.cls-3,.cls-4{stroke:#1d1d1b;stroke-miterlimit:10;stroke-width:3.52px;}.cls-4{fill:none;}</style></defs><rect class="cls-1" x="239.07" y="251.48" width="1137.59" height="144.59"/><rect class="cls-1" x="239.07" y="412.61" width="1137.59" height="144.59"/><rect class="cls-1" x="239.07" y="573.68" width="1137.59" height="163.94"/><rect class="cls-2" x="241.45" y="162.38" width="573.21" height="33.58"/><rect class="cls-2" x="339.11" y="295.16" width="285.99" height="16.87" transform="translate(964.21 607.19) rotate(-180)"/><rect class="cls-2" x="339.11" y="345.06" width="338.85" height="11.95" transform="translate(1017.07 702.06) rotate(-180)"/><rect class="cls-2" x="339.11" y="457.61" width="494.96" height="16.87" transform="translate(1173.18 932.1) rotate(-180)"/><rect class="cls-2" x="339.11" y="507.51" width="252.74" height="11.95" transform="translate(930.96 1026.97) rotate(-180)"/><rect class="cls-2" x="339.11" y="618.58" width="259.18" height="16.87" transform="translate(937.4 1254.04) rotate(-180)"/><rect class="cls-2" x="339.11" y="668.48" width="701.54" height="11.95" transform="translate(1379.76 1348.92) rotate(-180)"/><rect class="cls-2" x="339.11" y="690.95" width="546.37" height="11.95" transform="translate(1224.59 1393.86) rotate(-180)"/><circle class="cls-3" cx="288.19" cy="303.59" r="23.97"/><line class="cls-4" x1="288.19" y1="442.25" x2="288.19" y2="327.57"/><circle class="cls-3" cx="288.19" cy="464.56" r="23.97"/><line class="cls-4" x1="288.19" y1="603.22" x2="288.19" y2="488.54"/><circle class="cls-3" cx="288.19" cy="625.54" r="23.97"/></svg>