<?xml version="1.0" encoding="UTF-8"?><svg id="Layer_1" xmlns="http://www.w3.org/2000/svg" viewBox="0 0 1600 900"><defs><style>.cls-1{fill:#e6e6e6;}.cls-2{fill:#999;}.cls-3{fill:#c6c6c6;}.cls-4{fill:#575756;}</style></defs><rect class="cls-3" x="448.9" y="115.03" width="700.71" height="466.37"/><rect class="cls-3" x="382.53" y="654.8" width="130.16" height="130.16"/><path class="cls-2" d="m447.56,750.57c-10.33,0-20.66,0-31,0-2.89,0-4.75-1.85-4.76-4.72,0-17.31,0-34.62,0-51.92,0-2.83,1.87-4.71,4.68-4.71,20.74,0,41.49,0,62.23,0,2.78,0,4.68,1.88,4.68,4.64,0,17.36,0,34.72,0,52.08,0,2.75-1.9,4.64-4.68,4.64-10.38,0-20.77,0-31.15,0Zm30.72-12.76c0-.9,0-1.61,0-2.31-.02-12.89-.04-25.78-.07-38.67,0-1.7-.73-2.5-2.29-2.5-18.88,0-37.76,0-56.65,0-1.51,0-2.36.87-2.36,2.4,0,13.4,0,26.79,0,40.19,0,.22.03.44.06.77.25-.28.41-.45.57-.64,6.44-7.77,12.88-15.54,19.32-23.3,1.71-2.06,4.01-2.12,5.83-.16,2.88,3.11,5.74,6.23,8.64,9.31,1.36,1.44,2.68,1.45,4.21.18.88-.73,1.75-1.48,2.63-2.21,1.86-1.54,3.01-1.45,4.66.33,3.82,4.12,7.64,8.24,11.47,12.36,1.28,1.38,2.56,2.75,3.99,4.27Z"/><path class="cls-1" d="m478.29,737.81c-1.42-1.52-2.71-2.9-3.99-4.27-3.82-4.12-7.64-8.24-11.47-12.36-1.65-1.78-2.8-1.86-4.66-.33-.88.73-1.75,1.48-2.63,2.21-1.53,1.28-2.85,1.27-4.21-.18-2.91-3.08-5.77-6.2-8.64-9.31-1.82-1.96-4.12-1.9-5.83.16-6.44,7.77-12.88,15.54-19.32,23.3-.15.18-.31.36-.57.64-.02-.33-.06-.55-.06-.77,0-13.4,0-26.79,0-40.19,0-1.53.84-2.4,2.36-2.4,18.88,0,37.76,0,56.65,0,1.56,0,2.29.81,2.29,2.5.02,12.89.05,25.78.07,38.67,0,.71,0,1.41,0,2.31Zm-5.11-30.73c0-4.24-3.41-7.64-7.66-7.64-4.3,0-7.68,3.39-7.68,7.7,0,4.25,3.4,7.64,7.66,7.64,4.3,0,7.69-3.4,7.68-7.7Z"/><path class="cls-2" d="m473.17,707.08c0,4.3-3.39,7.7-7.68,7.7-4.25,0-7.65-3.4-7.66-7.64,0-4.3,3.38-7.7,7.68-7.7,4.25,0,7.65,3.4,7.66,7.64Z"/><rect class="cls-3" x="523.18" y="654.8" width="130.16" height="130.16"/><rect class="cls-3" x="663.84" y="654.8" width="130.16" height="130.16"/><rect class="cls-3" x="804.5" y="654.8" width="130.16" height="130.16"/><rect class="cls-3" x="945.16" y="654.8" width="130.16" height="130.16"/><rect class="cls-3" x="1085.82" y="654.8" width="130.16" height="130.16"/><rect class="cls-4" x="1169.69" y="340.55" width="46.29" height="37.27"/><rect class="cls-4" x="382.53" y="340.55" width="46.29" height="37.27"/><path class="cls-2" d="m799.13,434.12c-28.93,0-57.86,0-86.79,0-8.08,0-13.31-5.19-13.31-13.22,0-48.46,0-96.93,0-145.39,0-7.93,5.23-13.2,13.11-13.2,58.08,0,116.16,0,174.25,0,7.78,0,13.09,5.26,13.09,12.99,0,48.61,0,97.23,0,145.84,0,7.71-5.33,12.98-13.11,12.98-29.08,0-58.16,0-87.24,0Zm86.02-35.73c0-2.53,0-4.5,0-6.48-.06-36.09-.12-72.18-.19-108.28,0-4.75-2.05-7.01-6.41-7.01-52.87-.01-105.74-.01-158.61,0-4.24,0-6.6,2.43-6.6,6.71,0,37.51,0,75.02,0,112.52,0,.62.09,1.23.15,2.17.7-.79,1.16-1.27,1.58-1.78,18.03-21.75,36.06-43.5,54.1-65.25,4.79-5.78,11.22-5.94,16.32-.44,8.06,8.7,16.06,17.44,24.21,26.06,3.82,4.04,7.5,4.07,11.8.49,2.46-2.05,4.89-4.15,7.36-6.19,5.21-4.3,8.42-4.06,13.04.91,10.7,11.53,21.4,23.07,32.1,34.6,3.58,3.86,7.18,7.7,11.16,11.97Z"/><path class="cls-1" d="m885.16,398.39c-3.98-4.27-7.58-8.11-11.16-11.97-10.7-11.53-21.4-23.07-32.1-34.6-4.62-4.98-7.83-5.21-13.04-.91-2.47,2.04-4.9,4.14-7.36,6.19-4.3,3.58-7.98,3.55-11.8-.49-8.14-8.61-16.15-17.36-24.21-26.06-5.09-5.5-11.53-5.33-16.32.44-18.03,21.75-36.06,43.5-54.1,65.25-.42.51-.88,1-1.58,1.78-.07-.93-.15-1.55-.15-2.17,0-37.51,0-75.02,0-112.52,0-4.28,2.36-6.71,6.6-6.71,52.87-.01,105.74-.01,158.61,0,4.36,0,6.4,2.26,6.41,7.01.07,36.09.13,72.18.19,108.28,0,1.98,0,3.95,0,6.48Zm-14.32-86.05c0-11.88-9.54-21.39-21.44-21.4-12.04,0-21.52,9.5-21.51,21.55,0,11.89,9.53,21.4,21.44,21.4,12.03,0,21.52-9.51,21.51-21.55Z"/><path class="cls-2" d="m870.84,312.34c0,12.04-9.49,21.56-21.51,21.55-11.9,0-21.43-9.51-21.44-21.4,0-12.05,9.47-21.55,21.51-21.55,11.9,0,21.43,9.52,21.44,21.4Z"/><path class="cls-2" d="m588.22,750.57c-10.33,0-20.66,0-31,0-2.89,0-4.75-1.85-4.76-4.72,0-17.31,0-34.62,0-51.92,0-2.83,1.87-4.71,4.68-4.71,20.74,0,41.49,0,62.23,0,2.78,0,4.68,1.88,4.68,4.64,0,17.36,0,34.72,0,52.08,0,2.75-1.9,4.64-4.68,4.64-10.38,0-20.77,0-31.15,0Zm30.72-12.76c0-.9,0-1.61,0-2.31-.02-12.89-.04-25.78-.07-38.67,0-1.7-.73-2.5-2.29-2.5-18.88,0-37.76,0-56.65,0-1.51,0-2.36.87-2.36,2.4,0,13.4,0,26.79,0,40.19,0,.22.03.44.06.77.25-.28.41-.45.57-.64,6.44-7.77,12.88-15.54,19.32-23.3,1.71-2.06,4.01-2.12,5.83-.16,2.88,3.11,5.74,6.23,8.64,9.31,1.36,1.44,2.68,1.45,4.21.18.88-.73,1.75-1.48,2.63-2.21,1.86-1.54,3.01-1.45,4.66.33,3.82,4.12,7.64,8.24,11.47,12.36,1.28,1.38,2.56,2.75,3.99,4.27Z"/><path class="cls-1" d="m618.95,737.81c-1.42-1.52-2.71-2.9-3.99-4.27-3.82-4.12-7.64-8.24-11.47-12.36-1.65-1.78-2.8-1.86-4.66-.33-.88.73-1.75,1.48-2.63,2.21-1.53,1.28-2.85,1.27-4.21-.18-2.91-3.08-5.77-6.2-8.64-9.31-1.82-1.96-4.12-1.9-5.83.16-6.44,7.77-12.88,15.54-19.32,23.3-.15.18-.31.36-.57.64-.02-.33-.06-.55-.06-.77,0-13.4,0-26.79,0-40.19,0-1.53.84-2.4,2.36-2.4,18.88,0,37.76,0,56.65,0,1.56,0,2.29.81,2.29,2.5.02,12.89.05,25.78.07,38.67,0,.71,0,1.41,0,2.31Zm-5.11-30.73c0-4.24-3.41-7.64-7.66-7.64-4.3,0-7.68,3.39-7.68,7.7,0,4.25,3.4,7.64,7.66,7.64,4.3,0,7.69-3.4,7.68-7.7Z"/><path class="cls-2" d="m613.83,707.08c0,4.3-3.39,7.7-7.68,7.7-4.25,0-7.65-3.4-7.66-7.64,0-4.3,3.38-7.7,7.68-7.7,4.25,0,7.65,3.4,7.66,7.64Z"/><path class="cls-2" d="m728.88,750.57c-10.33,0-20.66,0-31,0-2.89,0-4.75-1.85-4.76-4.72,0-17.31,0-34.62,0-51.92,0-2.83,1.87-4.71,4.68-4.71,20.74,0,41.49,0,62.23,0,2.78,0,4.68,1.88,4.68,4.64,0,17.36,0,34.72,0,52.08,0,2.75-1.9,4.64-4.68,4.64-10.38,0-20.77,0-31.15,0Zm30.72-12.76c0-.9,0-1.61,0-2.31-.02-12.89-.04-25.78-.07-38.67,0-1.7-.73-2.5-2.29-2.5-18.88,0-37.76,0-56.65,0-1.51,0-2.36.87-2.36,2.4,0,13.4,0,26.79,0,40.19,0,.22.03.44.06.77.25-.28.41-.45.57-.64,6.44-7.77,12.88-15.54,19.32-23.3,1.71-2.06,4.01-2.12,5.83-.16,2.88,3.11,5.74,6.23,8.64,9.31,1.36,1.44,2.68,1.45,4.21.18.88-.73,1.75-1.48,2.63-2.21,1.86-1.54,3.01-1.45,4.66.33,3.82,4.12,7.64,8.24,11.47,12.36,1.28,1.38,2.56,2.75,3.99,4.27Z"/><path class="cls-1" d="m759.6,737.81c-1.42-1.52-2.71-2.9-3.99-4.27-3.82-4.12-7.64-8.24-11.47-12.36-1.65-1.78-2.8-1.86-4.66-.33-.88.73-1.75,1.48-2.63,2.21-1.53,1.28-2.85,1.27-4.21-.18-2.91-3.08-5.77-6.2-8.64-9.31-1.82-1.96-4.12-1.9-5.83.16-6.44,7.77-12.88,15.54-19.32,23.3-.15.18-.31.36-.57.64-.02-.33-.06-.55-.06-.77,0-13.4,0-26.79,0-40.19,0-1.53.84-2.4,2.36-2.4,18.88,0,37.76,0,56.65,0,1.56,0,2.29.81,2.29,2.5.02,12.89.05,25.78.07,38.67,0,.71,0,1.41,0,2.31Zm-5.11-30.73c0-4.24-3.41-7.64-7.66-7.64-4.3,0-7.68,3.39-7.68,7.7,0,4.25,3.4,7.64,7.66,7.64,4.3,0,7.69-3.4,7.68-7.7Z"/><path class="cls-2" d="m754.49,707.08c0,4.3-3.39,7.7-7.68,7.7-4.25,0-7.65-3.4-7.66-7.64,0-4.3,3.38-7.7,7.68-7.7,4.25,0,7.65,3.4,7.66,7.64Z"/><path class="cls-2" d="m869.54,750.57c-10.33,0-20.66,0-31,0-2.89,0-4.75-1.85-4.76-4.72,0-17.31,0-34.62,0-51.92,0-2.83,1.87-4.71,4.68-4.71,20.74,0,41.49,0,62.23,0,2.78,0,4.68,1.88,4.68,4.64,0,17.36,0,34.72,0,52.08,0,2.75-1.9,4.64-4.68,4.64-10.38,0-20.77,0-31.15,0Zm30.72-12.76c0-.9,0-1.61,0-2.31-.02-12.89-.04-25.78-.07-38.67,0-1.7-.73-2.5-2.29-2.5-18.88,0-37.76,0-56.65,0-1.51,0-2.36.87-2.36,2.4,0,13.4,0,26.79,0,40.19,0,.22.03.44.06.77.25-.28.41-.45.57-.64,6.44-7.77,12.88-15.54,19.32-23.3,1.71-2.06,4.01-2.12,5.83-.16,2.88,3.11,5.74,6.23,8.64,9.31,1.36,1.44,2.68,1.45,4.21.18.88-.73,1.75-1.48,2.63-2.21,1.86-1.54,3.01-1.45,4.66.33,3.82,4.12,7.64,8.24,11.47,12.36,1.28,1.38,2.56,2.75,3.99,4.27Z"/><path class="cls-1" d="m900.26,737.81c-1.42-1.52-2.71-2.9-3.99-4.27-3.82-4.12-7.64-8.24-11.47-12.36-1.65-1.78-2.8-1.86-4.66-.33-.88.73-1.75,1.48-2.63,2.21-1.53,1.28-2.85,1.27-4.21-.18-2.91-3.08-5.77-6.2-8.64-9.31-1.82-1.96-4.12-1.9-5.83.16-6.44,7.77-12.88,15.54-19.32,23.3-.15.18-.31.36-.57.64-.02-.33-.06-.55-.06-.77,0-13.4,0-26.79,0-40.19,0-1.53.84-2.4,2.36-2.4,18.88,0,37.76,0,56.65,0,1.56,0,2.29.81,2.29,2.5.02,12.89.05,25.78.07,38.67,0,.71,0,1.41,0,2.31Zm-5.11-30.73c0-4.24-3.41-7.64-7.66-7.64-4.3,0-7.68,3.39-7.68,7.7,0,4.25,3.4,7.64,7.66,7.64,4.3,0,7.69-3.4,7.68-7.7Z"/><path class="cls-2" d="m895.15,707.08c0,4.3-3.39,7.7-7.68,7.7-4.25,0-7.65-3.4-7.66-7.64,0-4.3,3.38-7.7,7.68-7.7,4.25,0,7.65,3.4,7.66,7.64Z"/><path class="cls-2" d="m1010.2,750.57c-10.33,0-20.66,0-31,0-2.89,0-4.75-1.85-4.76-4.72,0-17.31,0-34.62,0-51.92,0-2.83,1.87-4.71,4.68-4.71,20.74,0,41.49,0,62.23,0,2.78,0,4.68,1.88,4.68,4.64,0,17.36,0,34.72,0,52.08,0,2.75-1.9,4.64-4.68,4.64-10.38,0-20.77,0-31.15,0Zm30.72-12.76c0-.9,0-1.61,0-2.31-.02-12.89-.04-25.78-.07-38.67,0-1.7-.73-2.5-2.29-2.5-18.88,0-37.76,0-56.65,0-1.51,0-2.36.87-2.36,2.4,0,13.4,0,26.79,0,40.19,0,.22.03.44.06.77.25-.28.41-.45.57-.64,6.44-7.77,12.88-15.54,19.32-23.3,1.71-2.06,4.01-2.12,5.83-.16,2.88,3.11,5.74,6.23,8.64,9.31,1.36,1.44,2.68,1.45,4.21.18.88-.73,1.75-1.48,2.63-2.21,1.86-1.54,3.01-1.45,4.66.33,3.82,4.12,7.64,8.24,11.47,12.36,1.28,1.38,2.56,2.75,3.99,4.27Z"/><path class="cls-1" d="m1040.92,737.81c-1.42-1.52-2.71-2.9-3.99-4.27-3.82-4.12-7.64-8.24-11.47-12.36-1.65-1.78-2.8-1.86-4.66-.33-.88.73-1.75,1.48-2.63,2.21-1.53,1.28-2.85,1.27-4.21-.18-2.91-3.08-5.77-6.2-8.64-9.31-1.82-1.96-4.12-1.9-5.83.16-6.44,7.77-12.88,15.54-19.32,23.3-.15.18-.31.36-.57.64-.02-.33-.06-.55-.06-.77,0-13.4,0-26.79,0-40.19,0-1.53.84-2.4,2.36-2.4,18.88,0,37.76,0,56.65,0,1.56,0,2.29.81,2.29,2.5.02,12.89.05,25.78.07,38.67,0,.71,0,1.41,0,2.31Zm-5.11-30.73c0-4.24-3.41-7.64-7.66-7.64-4.3,0-7.68,3.39-7.68,7.7,0,4.25,3.4,7.64,7.66,7.64,4.3,0,7.69-3.4,7.68-7.7Z"/><path class="cls-2" d="m1035.81,707.08c0,4.3-3.39,7.7-7.68,7.7-4.25,0-7.65-3.4-7.66-7.64,0-4.3,3.38-7.7,7.68-7.7,4.25,0,7.65,3.4,7.66,7.64Z"/><path class="cls-2" d="m1150.86,750.57c-10.33,0-20.66,0-31,0-2.89,0-4.75-1.85-4.76-4.72,0-17.31,0-34.62,0-51.92,0-2.83,1.87-4.71,4.68-4.71,20.74,0,41.49,0,62.23,0,2.78,0,4.68,1.88,4.68,4.64,0,17.36,0,34.72,0,52.08,0,2.75-1.9,4.64-4.68,4.64-10.38,0-20.77,0-31.15,0Zm30.72-12.76c0-.9,0-1.61,0-2.31-.02-12.89-.04-25.78-.07-38.67,0-1.7-.73-2.5-2.29-2.5-18.88,0-37.76,0-56.65,0-1.51,0-2.36.87-2.36,2.4,0,13.4,0,26.79,0,40.19,0,.22.03.44.06.77.25-.28.41-.45.57-.64,6.44-7.77,12.88-15.54,19.32-23.3,1.71-2.06,4.01-2.12,5.83-.16,2.88,3.11,5.74,6.23,8.64,9.31,1.36,1.44,2.68,1.45,4.21.18.88-.73,1.75-1.48,2.63-2.21,1.86-1.54,3.01-1.45,4.66.33,3.82,4.12,7.64,8.24,11.47,12.36,1.28,1.38,2.56,2.75,3.99,4.27Z"/><path class="cls-1" d="m1181.58,737.81c-1.42-1.52-2.71-2.9-3.99-4.27-3.82-4.12-7.64-8.24-11.47-12.36-1.65-1.78-2.8-1.86-4.66-.33-.88.73-1.75,1.48-2.63,2.21-1.53,1.28-2.85,1.27-4.21-.18-2.91-3.08-5.77-6.2-8.64-9.31-1.82-1.96-4.12-1.9-5.83.16-6.44,7.77-12.88,15.54-19.32,23.3-.15.18-.31.36-.57.64-.02-.33-.06-.55-.06-.77,0-13.4,0-26.79,0-40.19,0-1.53.84-2.4,2.36-2.4,18.88,0,37.76,0,56.65,0,1.56,0,2.29.81,2.29,2.5.02,12.89.05,25.78.07,38.67,0,.71,0,1.41,0,2.31Zm-5.11-30.73c0-4.24-3.41-7.64-7.66-7.64-4.3,0-7.68,3.39-7.68,7.7,0,4.25,3.4,7.64,7.66,7.64,4.3,0,7.69-3.4,7.68-7.7Z"/><path class="cls-2" d="m1176.47,707.08c0,4.3-3.39,7.7-7.68,7.7-4.25,0-7.65-3.4-7.66-7.64,0-4.3,3.38-7.7,7.68-7.7,4.25,0,7.65,3.4,7.66,7.64Z"/></svg>