<?xml version="1.0" encoding="UTF-8"?><svg id="Layer_1" xmlns="http://www.w3.org/2000/svg" viewBox="0 0 1600 900"><defs><style>.cls-1{fill:#575756;}</style></defs><rect class="cls-1" x="431.05" y="247.87" width="332.97" height="34.05" transform="translate(1195.08 529.79) rotate(-180)"/><path class="cls-1" d="m921.25,415c3.43,0,6.22,2.79,6.22,6.22v229.03c0,3.43-2.79,6.22-6.22,6.22h-478.31c-3.43,0-6.22-2.79-6.22-6.22v-229.03c0-3.43,2.79-6.22,6.22-6.22h478.31m0-5.67h-478.31c-6.56,0-11.88,5.32-11.88,11.89v229.03c0,6.56,5.32,11.88,11.88,11.88h478.31c6.56,0,11.88-5.32,11.88-11.88v-229.03c0-6.56-5.32-11.89-11.88-11.89h0Z"/><rect class="cls-1" x="431.05" y="310.79" width="777.66" height="13.84" transform="translate(1639.77 635.41) rotate(-180)"/><rect class="cls-1" x="431.05" y="338.7" width="446.59" height="13.84" transform="translate(1308.7 691.25) rotate(-180)"/><g id="z84S9V"><path class="cls-1" d="m689.95,594.24h-17.85c.98-.53,2.14-.15,3.21-.51-13.61-1.5-25.13-7.18-34.67-16.79-9.51-9.59-15.31-21.04-16.5-34.7-.46.96-.15,2.02-.63,2.92v-18.84c.43.75.16,1.66.54,2.72,2.68-27.75,26.57-51.33,56.97-51.81,28.28-.45,52.68,18.95,58.46,47.46,2.67,13.14.79,25.79-5.43,37.62-9.51,18.07-24.68,28.4-44.86,31.58.32.15.54.26.76.36Zm-28.27-78.31c-1.46-.34-2.58.72-3.6,1.91-4.09,4.76-8.18,9.52-12.24,14.3-2.22,2.61-2.14,4.63.13,7.25,3.46,3.99,6.89,8.01,10.35,12,.89,1.03,1.75,2.1,2.76,3.01,2.35,2.13,6.26,1.02,7.24-1.97.59-1.79.12-3.34-1.06-4.71-3.08-3.56-6.15-7.12-9.27-10.64-.83-.94-.91-1.65-.04-2.65,2.7-3.07,5.31-6.22,7.96-9.33.75-.88,1.5-1.76,2.01-2.81,1.54-3.24-.37-6.33-4.24-6.36Zm35.96,34.93c-.03,2.44,1.31,4.03,3.72,4.48,1.75.32,3.16-.22,4.31-1.55,4.33-5.04,8.7-10.06,12.99-15.13,1.65-1.95,1.57-3.86-.06-5.83-1.26-1.53-2.59-3-3.89-4.5-3.19-3.68-6.35-7.4-9.6-11.02-1.45-1.62-4.28-1.75-5.91-.49-1.67,1.3-2.23,4.09-1.12,5.94.42.7.96,1.34,1.5,1.97,2.83,3.28,5.64,6.59,8.55,9.8.89.98.76,1.59-.03,2.49-2.98,3.37-5.89,6.8-8.85,10.2-.92,1.06-1.62,2.19-1.62,3.65Zm-9.11-34.88c-1.8-.18-3.12.81-4.02,2.46-.34.61-.64,1.25-.92,1.89-4.12,9.63-8.24,19.27-12.34,28.91-.95,2.22-.02,4.57,2.21,5.75,1.98,1.05,4.57.41,5.79-1.5.55-.86.97-1.82,1.38-2.76,1.97-4.58,3.92-9.18,5.88-13.77,2.1-4.93,4.25-9.85,6.27-14.81,1.25-3.08-.86-6.15-4.25-6.16Z"/></g></svg>