<?xml version="1.0" encoding="UTF-8"?><svg id="Layer_1" xmlns="http://www.w3.org/2000/svg" viewBox="0 0 1600 900"><defs><style>.cls-1{fill:none;}.cls-2{fill:#e6e6e6;}.cls-3{fill:#999;}.cls-4{fill:#c6c6c6;}.cls-5{fill:#575756;}</style></defs><rect class="cls-4" x="307.67" y="122.32" width="984.66" height="655.36"/><path class="cls-1" d="m751.95,429.4c1.67,4.98,2.81,10.02,3.91,14.9,1.15,5.08,2.23,9.87,3.86,14.61,2.87,8.34,7.07,15.21,12.5,20.41,6.07,5.82,13.97,9.45,21.11,9.71,1.11.04,2.23-.01,3.33-.11-.09-1.45-.23-2.93-.38-4.47-.26-2.57-.52-5.24-.51-7.98.02-3.5.69-12.11,6.54-16.29,3.07-2.2,6.48-2.35,8.97-2.46l14.26-.63c4.18-.19,7.32-.47,9.66-2.49,2.99-2.58,4.66-7.92,6.27-13.08l.33-1.05c1.36-4.32,3.07-8.86,5.72-12.37-4.43-7.27-9.02-14.83-13.38-22.01h-97.31c8.14,6.59,12.69,15.98,15.15,23.33Z"/><path class="cls-1" d="m750.13,457.42c.4,1.15.82,2.27,1.26,3.38-1.62-4.9-2.75-9.84-3.83-14.63-1.1-4.89-2.14-9.5-3.67-14.07-.27-.8-.57-1.64-.9-2.49,1.04,3.64,1.87,7.34,2.74,11.2,1.23,5.44,2.5,11.07,4.41,16.62Z"/><path class="cls-1" d="m901.02,418.96c-14.78,24.3-29.54,48.45-29.54,48.45,0,0-8.48-13.87-19.02-31.17-1.25,2.54-2.12,5.29-2.58,6.76l-.32,1.03c-1.88,6.01-4,12.81-8.82,16.98-4.75,4.1-10.58,4.36-14.84,4.55l-14.26.63c-2.04.09-3.45.2-4.4.88-1.76,1.26-2.96,5.04-2.98,9.42-.01,2.3.22,4.63.47,7.09.12,1.18.24,2.39.33,3.61.65-.19,1.28-.38,1.9-.58,4.47-1.42,8.95-3.13,13.29-4.78,3.25-1.24,6.62-2.52,10.01-3.7,5.42-1.88,11.32-3.58,17.67-3.28,7.56.35,14.42,3.67,18.35,8.88,4.66,6.17,4.48,13.35,4.32,19.69-.02.75-.04,1.5-.05,2.24-.08,6.06.66,12.28,2.18,18.4h72.53l-44.22-105.11Z"/><path class="cls-2" d="m817.68,341.97c0,11.44,3.59,22.05,9.7,30.77.11.16,44.11,72.77,44.11,72.77l40.54-66.97c.89-1.68,3.75-6.06,3.86-6.23,5.93-8.64,9.4-19.1,9.4-30.35,0-29.67-24.14-53.8-53.8-53.8s-53.8,24.13-53.8,53.8Zm81.68,0c0,15.37-12.51,27.88-27.88,27.88s-27.88-12.51-27.88-27.88,12.51-27.88,27.88-27.88,27.88,12.51,27.88,27.88Z"/><path class="cls-3" d="m871.48,325.43c-9.12,0-16.54,7.42-16.54,16.54s7.42,16.54,16.54,16.54,16.54-7.42,16.54-16.54-7.42-16.54-16.54-16.54Z"/><path class="cls-3" d="m705.57,406.79l-50.64,117.28h208.46c-1.66-6.04-1.46-10.47-1.36-18.51.01-.77.03-1.55.05-2.34.14-5.42.26-10.55-2.61-14.35-2.39-3.17-6.97-5.28-11.96-5.51-4.64-.21-9.15.97-14.49,2.82-3.26,1.13-6.57,2.39-9.76,3.61-4.45,1.7-9.04,3.45-13.75,4.94-4.73,1.5-10.39,3.01-16.51,2.79-9.31-.33-19.04-4.73-26.7-12.07-6.41-6.15-11.34-14.15-14.65-23.78-.1-.29-.18-.58-.28-.87-.44-1.11-.86-2.23-1.26-3.38-1.91-5.55-3.18-11.18-4.41-16.62-.87-3.86-1.71-7.56-2.74-11.2-2.72-7.05-7.55-15.42-15.92-19.84-6.54-3.45-13.82-3.85-21.48-2.97Z"/><path class="cls-5" d="m843.6,341.97c0,15.37,12.51,27.88,27.88,27.88s27.88-12.51,27.88-27.88-12.51-27.88-27.88-27.88-27.88,12.51-27.88,27.88Zm27.88,16.54c-9.12,0-16.54-7.42-16.54-16.54s7.42-16.54,16.54-16.54,16.54,7.42,16.54,16.54-7.42,16.54-16.54,16.54Z"/><path class="cls-5" d="m908.29,407c11.54-19.02,21.53-35.58,22.32-37.26l.11-.18h-.03c3.93-8.38,6.14-17.73,6.14-27.59,0-36.03-29.31-65.34-65.34-65.34s-65.34,29.31-65.34,65.34c0,9.85,2.2,19.19,6.12,27.58h-.01s.04.07.04.07c.62,1.33,6.8,11.65,14.95,25.11h-128.8l-60.75,140.68h324.63l-54.03-128.41Zm17-65.03c0,11.25-3.47,21.71-9.4,30.35-.11.17-2.97,4.55-3.86,6.23l-40.54,66.97s-44-72.62-44.11-72.77c-6.11-8.72-9.7-19.34-9.7-30.77,0-29.67,24.14-53.8,53.8-53.8s53.8,24.13,53.8,53.8Zm-91.18,64.1c4.36,7.18,8.96,14.75,13.38,22.01-2.65,3.51-4.36,8.05-5.72,12.37l-.33,1.05c-1.61,5.16-3.28,10.5-6.27,13.08-2.33,2.02-5.47,2.3-9.66,2.49l-14.26.63c-2.49.11-5.9.26-8.97,2.46-5.85,4.19-6.52,12.79-6.54,16.29-.01,2.75.25,5.41.51,7.98.15,1.53.3,3.01.38,4.47-1.1.1-2.21.15-3.33.11-7.14-.25-15.04-3.88-21.11-9.71-5.42-5.2-9.63-12.07-12.5-20.41-1.63-4.74-2.71-9.53-3.86-14.61-1.1-4.88-2.24-9.92-3.91-14.9-2.46-7.35-7.01-16.74-15.15-23.33h97.31Zm-91.12,23.53c.33.85.63,1.69.9,2.49,1.53,4.57,2.57,9.19,3.67,14.07,1.08,4.79,2.21,9.74,3.83,14.63.1.29.18.58.28.87,3.31,9.63,8.24,17.63,14.65,23.78,7.65,7.34,17.38,11.74,26.7,12.07,6.11.22,11.77-1.29,16.51-2.79,4.7-1.49,9.3-3.24,13.75-4.94,3.19-1.22,6.49-2.48,9.76-3.61,5.34-1.85,9.85-3.03,14.49-2.82,4.98.23,9.57,2.35,11.96,5.51,2.87,3.8,2.74,8.93,2.61,14.35-.02.79-.04,1.57-.05,2.34-.11,8.04-.31,12.48,1.36,18.51h-208.46l50.64-117.28c7.66-.88,14.94-.48,21.48,2.97,8.37,4.42,13.2,12.79,15.92,19.84Zm127.55,76.07c.01-.74.03-1.49.05-2.24.16-6.33.34-13.51-4.32-19.69-3.93-5.21-10.79-8.53-18.35-8.88-6.36-.3-12.25,1.4-17.67,3.28-3.39,1.17-6.75,2.46-10.01,3.7-4.33,1.65-8.81,3.36-13.29,4.78-.62.19-1.25.39-1.9.58-.09-1.22-.21-2.42-.33-3.61-.25-2.46-.48-4.79-.47-7.09.02-4.37,1.22-8.15,2.98-9.42.95-.68,2.36-.79,4.4-.88l14.26-.63c4.26-.19,10.09-.45,14.84-4.55,4.82-4.17,6.95-10.98,8.82-16.98l.32-1.03c.46-1.47,1.33-4.22,2.58-6.76,10.54,17.3,19.02,31.17,19.02,31.17,0,0,14.76-24.15,29.54-48.45l44.22,105.11h-72.53c-1.52-6.12-2.26-12.34-2.18-18.4Z"/></svg>