<svg id="Layer_1" data-name="Layer 1" xmlns="http://www.w3.org/2000/svg" viewBox="0 0 1600 900"><defs><style>.cls-1{fill:#c6c6c6;}.cls-2{fill:#575756;}.cls-3{fill:#999;}.cls-4{fill:#e6e6e6;}</style></defs><rect class="cls-1" x="309.07" y="123.72" width="981.86" height="652.56"/><path class="cls-2" d="M1289.53,125.12V774.88H310.47V125.12h979.06m2.8-2.8H307.67V777.68h984.66V122.32Z"/><path class="cls-3" d="M799.85,558.58H690.16c-10.22,0-16.83-6.57-16.83-16.71q0-91.87,0-183.76c0-10,6.61-16.68,16.56-16.69H910.12c9.84,0,16.55,6.66,16.55,16.42q0,92.16,0,184.33c0,9.74-6.74,16.4-16.57,16.41Zm108.72-45.16c0-3.2,0-5.69,0-8.19q-.12-68.43-.24-136.85c0-6-2.59-8.86-8.1-8.86H699.76c-5.36,0-8.34,3.07-8.34,8.48q0,71.12,0,142.22c0,.78.11,1.56.2,2.74.88-1,1.46-1.61,2-2.26L762,428.24c6.06-7.31,14.19-7.51,20.62-.57,10.19,11,20.3,22.05,30.6,32.94,4.83,5.11,9.48,5.15,14.91.62,3.11-2.59,6.17-5.24,9.3-7.82,6.58-5.44,10.64-5.14,16.47,1.15q20.29,21.87,40.58,43.73C899,503.17,903.54,508,908.57,513.42Z"/><path class="cls-4" d="M908.57,513.42c-5-5.4-9.57-10.25-14.1-15.13q-20.29-21.85-40.58-43.73c-5.83-6.29-9.89-6.59-16.47-1.15-3.13,2.58-6.19,5.23-9.3,7.82-5.43,4.53-10.08,4.49-14.91-.62-10.3-10.89-20.41-21.94-30.6-32.94-6.43-6.94-14.56-6.74-20.62.57L693.62,510.7c-.54.65-1.12,1.26-2,2.26-.09-1.18-.2-2-.2-2.74q0-71.1,0-142.22c0-5.41,3-8.48,8.34-8.48H900.23c5.51,0,8.09,2.86,8.1,8.86q.13,68.43.24,136.85C908.58,507.73,908.57,510.22,908.57,513.42ZM890.48,404.66a27.14,27.14,0,1,0-27.19,27.24A27,27,0,0,0,890.48,404.66Z"/><path class="cls-3" d="M890.48,404.66a27.14,27.14,0,1,1-27.1-27A27,27,0,0,1,890.48,404.66Z"/></svg>