<?xml version="1.0" encoding="UTF-8"?><svg id="Layer_1" xmlns="http://www.w3.org/2000/svg" viewBox="0 0 1600 900"><defs><style>.cls-1{fill:#e6e6e6;}.cls-2{fill:#999;}.cls-3{fill:#c6c6c6;}.cls-4{fill:#575756;}</style></defs><rect class="cls-3" x="316.93" y="123.72" width="981.86" height="652.56"/><path class="cls-4" d="m1297.39,125.12v649.76H318.33V125.12h979.06m2.8-2.8H315.53v655.36h984.66V122.32h0Z"/><path class="cls-2" d="m807.71,558.58c-36.56,0-73.13,0-109.69,0-10.21,0-16.83-6.56-16.83-16.7,0-61.25,0-122.51,0-183.76,0-10.02,6.62-16.68,16.57-16.68,73.41,0,146.82,0,220.23,0,9.83,0,16.54,6.65,16.55,16.42,0,61.44,0,122.88,0,184.33,0,9.74-6.74,16.41-16.57,16.41-36.75,0-73.5,0-110.26,0Z"/><path class="cls-1" d="m876.39,533.03c-8.94,0-16.19-7.25-16.19-16.19v-135.07c0-8.94,7.25-16.19,16.19-16.19s16.19,7.25,16.19,16.19v135.07c0,8.94-7.25,16.19-16.19,16.19Z"/><path class="cls-1" d="m830.7,533.03c-8.94,0-16.19-7.25-16.19-16.19v-70.85c0-8.94,7.25-16.19,16.19-16.19s16.19,7.25,16.19,16.19v70.85c0,8.94-7.25,16.19-16.19,16.19Z"/><path class="cls-1" d="m785.02,533.03c-8.94,0-16.19-7.25-16.19-16.19v-94.75c0-8.94,7.25-16.19,16.19-16.19s16.19,7.25,16.19,16.19v94.75c0,8.94-7.25,16.19-16.19,16.19Z"/><path class="cls-1" d="m739.34,533.03c-8.94,0-16.19-7.25-16.19-16.19v-37.48c0-8.94,7.25-16.19,16.19-16.19s16.19,7.25,16.19,16.19v37.48c0,8.94-7.25,16.19-16.19,16.19Z"/></svg>