<?xml version="1.0" encoding="UTF-8"?><svg id="Layer_1" xmlns="http://www.w3.org/2000/svg" viewBox="0 0 1600 900"><defs><style>.cls-1{fill:#f8f7f8;}.cls-2{fill:#e6e6e6;}.cls-3{fill:#999;}.cls-4{fill:#c6c6c6;}.cls-5{fill:#575756;}</style></defs><rect class="cls-1" x="370.66" y="225.33" width="858.68" height="449.34"/><rect class="cls-4" x="799.89" y="361.36" width="398.32" height="265.14"/><path class="cls-3" d="m998.96,556.11c-20.95,0-41.9,0-62.85,0-5.85,0-9.64-3.64-9.64-9.27,0-33.97,0-67.95,0-101.92,0-5.56,3.79-9.25,9.49-9.25,42.06,0,84.12,0,126.18,0,5.63,0,9.48,3.69,9.48,9.11,0,34.08,0,68.16,0,102.24,0,5.4-3.86,9.1-9.49,9.1-21.06,0-42.11,0-63.17,0Zm62.29-25.05c0-1.77,0-3.16,0-4.54-.04-25.3-.09-50.6-.14-75.9,0-3.33-1.49-4.91-4.64-4.91-38.28,0-76.57,0-114.85,0-3.07,0-4.78,1.7-4.78,4.7,0,26.29,0,52.59,0,78.88,0,.43.06.86.11,1.52.51-.55.84-.89,1.15-1.25,13.06-15.25,26.11-30.5,39.17-45.74,3.47-4.05,8.13-4.17,11.82-.31,5.83,6.1,11.63,12.23,17.53,18.27,2.77,2.83,5.43,2.86,8.54.35,1.78-1.44,3.54-2.91,5.33-4.34,3.77-3.01,6.1-2.85,9.44.64,7.75,8.09,15.5,16.17,23.25,24.26,2.59,2.7,5.2,5.4,8.08,8.39Z"/><path class="cls-2" d="m1061.25,531.06c-2.88-2.99-5.49-5.68-8.08-8.39-7.75-8.08-15.5-16.17-23.25-24.26-3.34-3.49-5.67-3.65-9.44-.64-1.79,1.43-3.55,2.9-5.33,4.34-3.11,2.51-5.78,2.49-8.54-.35-5.9-6.04-11.69-12.17-17.53-18.27-3.69-3.85-8.35-3.74-11.82.31-13.06,15.25-26.11,30.49-39.17,45.74-.31.36-.64.7-1.15,1.25-.05-.65-.11-1.09-.11-1.52,0-26.29,0-52.59,0-78.88,0-3,1.71-4.7,4.78-4.7,38.28,0,76.57,0,114.85,0,3.16,0,4.64,1.58,4.64,4.91.05,25.3.09,50.6.14,75.9,0,1.39,0,2.77,0,4.54Zm-10.37-60.32c0-8.33-6.91-15-15.52-15-8.72,0-15.58,6.66-15.58,15.1,0,8.33,6.9,15,15.52,15,8.71,0,15.59-6.66,15.58-15.11Z"/><path class="cls-3" d="m1050.88,470.74c0,8.44-6.87,15.11-15.58,15.11-8.62,0-15.52-6.67-15.52-15,0-8.45,6.86-15.11,15.58-15.1,8.62,0,15.52,6.67,15.52,15Z"/><rect class="cls-5" x="403.17" y="280.73" width="313.61" height="34.87" transform="translate(1119.96 596.33) rotate(-180)"/><rect class="cls-5" x="433.6" y="459.97" width="153.55" height="16.84" transform="translate(1020.75 936.78) rotate(-180)"/><rect class="cls-5" x="433.6" y="402.49" width="248.8" height="12.46" transform="translate(1116.01 817.44) rotate(-180)"/><rect class="cls-5" x="433.6" y="494.4" width="122.73" height="12.46" transform="translate(989.94 1001.25) rotate(-180)"/><rect class="cls-5" x="403.17" y="457.3" width="21.43" height="22.17" transform="translate(827.78 936.78) rotate(-180)"/><rect class="cls-5" x="433.6" y="366.14" width="153.55" height="16.84" transform="translate(1020.75 749.12) rotate(-180)"/><rect class="cls-5" x="403.17" y="363.47" width="21.43" height="22.17" transform="translate(827.78 749.12) rotate(-180)"/></svg>