<svg id="SvgjsSvg1001" width="288" height="288" xmlns="http://www.w3.org/2000/svg" version="1.1" xmlns:xlink="http://www.w3.org/1999/xlink" xmlns:svgjs="http://svgjs.com/svgjs"><defs id="SvgjsDefs1002"/><g id="SvgjsG1008" transform="matrix(0.9167,0,0,0.9167,11.995223355674739,11.995221290206928)"><svg xmlns="http://www.w3.org/2000/svg" viewBox="0 0 24 24" width="288" height="288"><path d="M15.71,8.29a1,1,0,0,0-1.42,0L12,10.59,9.71,8.29A1,1,0,0,0,8.29,9.71L10.59,12l-2.3,2.29a1,1,0,0,0,0,1.42,1,1,0,0,0,1.42,0L12,13.41l2.29,2.3a1,1,0,0,0,1.42,0,1,1,0,0,0,0-1.42L13.41,12l2.3-2.29A1,1,0,0,0,15.71,8.29Zm3.36-3.36A10,10,0,1,0,4.93,19.07,10,10,0,1,0,19.07,4.93ZM17.66,17.66A8,8,0,1,1,20,12,7.95,7.95,0,0,1,17.66,17.66Z" fill="#ffffff" class="color000 svgShape"/></svg></g></svg>