<?xml version="1.0" encoding="utf-8"?>
<svg version="1.1" id="hdbt_admin_tools_icon_debug" xmlns="http://www.w3.org/2000/svg" x="0px" y="0px" viewBox="0 0 78 78" style="enable-background:new 0 0 78 78;" xml:space="preserve">
	<path d="M72.1,60.1h-3.5l-4.2-4.2c-0.1-0.1-0.3-0.3-0.5-0.4C64,54.6,64,53.8,64,53V42.2l0.1,0.1c0.7,0.7,1.8,1.2,2.8,1.2h5.1 c2.2,0,4-1.8,4-4s-1.8-4-4-4h-3.5l-4.2-4.2c-0.1-0.1-0.3-0.2-0.4-0.4c-0.5-6.6-3.5-12.5-8.1-16.7l2.4-2.4c0.7-0.7,1.2-1.8,1.2-2.8V4 c0-2.2-1.8-4-4-4s-4,1.8-4,4v3.5l-2.4,2.4C46,8.5,42.6,7.7,39,7.7c-3.6,0-7,0.8-10.1,2.1l-2.4-2.4V4c0-2.2-1.8-4-4-4s-4,1.8-4,4v5.1 c0,1.1,0.4,2.1,1.2,2.8l2.4,2.4C17.5,18.5,14.5,24.4,14,31c-0.1,0.1-0.3,0.2-0.4,0.4l-4.2,4.2H5.9c-2.2,0-4,1.8-4,4s1.8,4,4,4H11 c1.1,0,2.1-0.4,2.8-1.2l0.1-0.1V53c0,0.8,0,1.7,0.1,2.5c-0.2,0.1-0.3,0.2-0.5,0.4l-4.2,4.2H5.9c-2.2,0-4,1.8-4,4s1.8,4,4,4H11 c1.1,0,2.1-0.4,2.8-1.2l2.8-2.8C20.7,72.3,29.2,78,39,78s18.3-5.7,22.4-13.9l2.8,2.8c0.7,0.7,1.8,1.2,2.8,1.2h5.1c2.2,0,4-1.8,4-4 S74.3,60.1,72.1,60.1z M56.1,53C56.1,62.4,48.4,70,39,70S21.9,62.4,21.9,53V32.7c0-9.4,7.7-17.1,17.1-17.1s17.1,7.7,17.1,17.1V53z" />
</svg>
