<svg id="Layer_1" data-name="Layer 1" xmlns="http://www.w3.org/2000/svg" viewBox="0 0 1600 900"><defs><style>.cls-1{fill:#575756;}</style></defs><rect class="cls-1" x="298.05" y="264.61" width="631.4" height="40.54"/><rect class="cls-1" x="298.05" y="365.16" width="448.42" height="40.54"/><rect class="cls-1" x="1337.32" y="637.64" width="58.62" height="25.81"/><rect class="cls-1" x="1360.23" y="271.37" width="27.01" height="27.01"/><rect class="cls-1" x="204.06" y="356.13" width="58.61" height="58.61"/><rect class="cls-1" x="204.06" y="225.18" width="1191.88"/><rect class="cls-1" x="204.06" y="332.31" width="1191.88"/><rect class="cls-1" x="204.06" y="674.82" width="1191.88"/><rect class="cls-1" x="204.06" y="495.51" width="525.63" height="25.77"/><rect class="cls-1" x="204.06" y="467.29" width="782.89" height="25.77"/><rect class="cls-1" x="204.06" y="439.07" width="710.88" height="25.77"/><rect class="cls-1" x="204.06" y="600.19" width="218.27" height="25.77"/><rect class="cls-1" x="204.06" y="571.97" width="668.27" height="25.77"/><rect class="cls-1" x="204.06" y="543.75" width="760.58" height="25.77"/><rect class="cls-1" x="1360.23" y="371.93" width="27.01" height="27.01"/><rect class="cls-1" x="204.06" y="255.57" width="58.61" height="58.61"/></svg>