<svg id="Layer_1" data-name="Layer 1" xmlns="http://www.w3.org/2000/svg" viewBox="0 0 1600 900"><defs><style>.cls-1{fill:#f1f1f1;}.cls-2{fill:#575756;}.cls-3{fill:#fff;}.cls-4{fill:#c6c6c6;}.cls-5{fill:#999;}.cls-6{fill:#e6e6e6;}</style></defs><rect class="cls-1" x="-11.94" y="-14.17" width="1623.89" height="928.35"/><rect class="cls-2" x="202.13" y="205.43" width="631.4" height="40.54"/><rect class="cls-3" x="202.13" y="439.79" width="384.45" height="254.78"/><rect class="cls-4" x="203.53" y="289" width="381.64" height="251.98"/><path class="cls-2" d="M583.77,290.4V539.57H204.93V290.4H583.77m2.8-2.8H202.13V542.38H586.57V287.6Z"/><rect class="cls-2" x="219.33" y="636.07" width="31.44" height="27.01"/><rect class="cls-2" x="219.33" y="564.18" width="284.35" height="21.87"/><rect class="cls-2" x="219.33" y="596.51" width="105.43" height="12.89"/><rect class="cls-3" x="1013.43" y="439.79" width="384.45" height="254.78"/><rect class="cls-4" x="1014.83" y="289" width="381.64" height="251.98"/><path class="cls-2" d="M1395.07,290.4V539.57H1016.23V290.4h378.84m2.8-2.8H1013.43V542.38h384.44V287.6Z"/><rect class="cls-2" x="1030.63" y="636.07" width="31.44" height="27.01"/><rect class="cls-2" x="1030.63" y="564.18" width="284.35" height="21.87"/><rect class="cls-2" x="1030.63" y="596.51" width="105.43" height="12.89"/><rect class="cls-3" x="607.78" y="439.79" width="384.45" height="254.78"/><rect class="cls-4" x="609.18" y="289" width="381.64" height="251.98"/><path class="cls-2" d="M989.42,290.4V539.57H610.58V290.4H989.42m2.8-2.8H607.78V542.38H992.22V287.6Z"/><rect class="cls-2" x="624.98" y="636.07" width="31.44" height="27.01"/><rect class="cls-2" x="624.98" y="564.18" width="284.35" height="21.87"/><rect class="cls-2" x="624.98" y="596.51" width="105.43" height="12.89"/><path class="cls-5" d="M394.29,459H349.8c-4.14,0-6.82-2.66-6.82-6.78V377.72A6.36,6.36,0,0,1,349.7,371H439a6.35,6.35,0,0,1,6.71,6.65v74.75A6.37,6.37,0,0,1,439,459Zm44.09-18.32v-3.32q0-27.75-.1-55.49c0-2.44-1-3.59-3.29-3.59H353.7a3.09,3.09,0,0,0-3.38,3.43q0,28.84,0,57.68c0,.31,0,.63.08,1.11.36-.41.59-.65.81-.92l27.73-33.44c2.45-3,5.75-3.05,8.36-.23,4.13,4.46,8.23,8.94,12.41,13.36,2,2.07,3.84,2.09,6,.25,1.26-1.05,2.51-2.13,3.77-3.17,2.67-2.21,4.32-2.08,6.68.47l16.46,17.73C434.49,436.55,436.34,438.52,438.38,440.7Z"/><path class="cls-6" d="M438.38,440.7c-2-2.18-3.89-4.15-5.72-6.13L416.2,416.84c-2.36-2.55-4-2.68-6.68-.47-1.26,1-2.51,2.12-3.77,3.17-2.2,1.84-4.09,1.82-6-.25-4.18-4.42-8.28-8.9-12.41-13.36-2.61-2.82-5.91-2.73-8.36.23L351.21,439.6c-.22.27-.45.51-.81.92,0-.48-.08-.8-.08-1.11q0-28.85,0-57.68a3.09,3.09,0,0,1,3.38-3.43H435c2.24,0,3.29,1.15,3.29,3.59q.06,27.75.1,55.49ZM431,396.6a11,11,0,1,0-11,11A10.95,10.95,0,0,0,431,396.6Z"/><path class="cls-5" d="M431,396.6a11,11,0,1,1-11-11A10.94,10.94,0,0,1,431,396.6Z"/><path class="cls-5" d="M799.94,459H755.46c-4.15,0-6.83-2.66-6.83-6.78V377.72a6.36,6.36,0,0,1,6.72-6.76h89.31a6.35,6.35,0,0,1,6.71,6.65v74.75a6.37,6.37,0,0,1-6.72,6.66ZM844,440.7v-3.32q0-27.75-.1-55.49c0-2.44-1-3.59-3.29-3.59H759.35a3.09,3.09,0,0,0-3.38,3.43v57.68c0,.31,0,.63.08,1.11.36-.41.59-.65.81-.92l27.73-33.44c2.45-3,5.75-3.05,8.36-.23,4.13,4.46,8.23,8.94,12.41,13.36,1.95,2.07,3.84,2.09,6,.25,1.27-1.05,2.51-2.13,3.77-3.17,2.67-2.21,4.32-2.08,6.69.47l16.45,17.73Z"/><path class="cls-6" d="M844,440.7l-5.72-6.13-16.45-17.73c-2.37-2.55-4-2.68-6.69-.47-1.26,1-2.5,2.12-3.77,3.17-2.2,1.84-4.09,1.82-6-.25-4.18-4.42-8.28-8.9-12.41-13.36-2.61-2.82-5.91-2.73-8.36.23L756.86,439.6c-.22.27-.45.51-.81.92,0-.48-.08-.8-.08-1.11V381.73a3.09,3.09,0,0,1,3.38-3.43h81.29c2.24,0,3.29,1.15,3.29,3.59q.06,27.75.1,55.49Zm-7.34-44.1a11,11,0,1,0-11,11A10.95,10.95,0,0,0,836.69,396.6Z"/><path class="cls-5" d="M836.69,396.6a11,11,0,1,1-11-11A10.94,10.94,0,0,1,836.69,396.6Z"/><path class="cls-5" d="M1205.59,459h-44.48c-4.15,0-6.83-2.66-6.83-6.78V377.72A6.37,6.37,0,0,1,1161,371h89.31a6.35,6.35,0,0,1,6.71,6.65v74.75a6.37,6.37,0,0,1-6.72,6.66Zm44.09-18.32v-3.32q0-27.75-.1-55.49c0-2.44-1-3.59-3.29-3.59H1165a3.09,3.09,0,0,0-3.38,3.43v57.68c0,.31,0,.63.08,1.11.36-.41.59-.65.81-.92l27.73-33.44c2.45-3,5.75-3.05,8.36-.23,4.13,4.46,8.23,8.94,12.41,13.36,2,2.07,3.84,2.09,6,.25,1.27-1.05,2.51-2.13,3.78-3.17,2.66-2.21,4.31-2.08,6.68.47L1244,434.57Z"/><path class="cls-6" d="M1249.68,440.7l-5.72-6.13-16.45-17.73c-2.37-2.55-4-2.68-6.68-.47-1.27,1-2.51,2.12-3.78,3.17-2.2,1.84-4.08,1.82-6-.25-4.18-4.42-8.28-8.9-12.41-13.36-2.61-2.82-5.91-2.73-8.36.23l-27.73,33.44c-.22.27-.45.51-.81.92,0-.48-.08-.8-.08-1.11V381.73a3.09,3.09,0,0,1,3.38-3.43h81.29c2.24,0,3.29,1.15,3.29,3.59q.06,27.75.1,55.49Zm-7.34-44.1a11,11,0,1,0-11,11A10.95,10.95,0,0,0,1242.34,396.6Z"/><path class="cls-5" d="M1242.34,396.6a11,11,0,1,1-11-11A10.94,10.94,0,0,1,1242.34,396.6Z"/></svg>