<svg id="Layer_1" data-name="Layer 1" xmlns="http://www.w3.org/2000/svg" viewBox="0 0 1600 900"><defs><style>.cls-1{fill:#c6c6c6;}.cls-2{fill:#575756;}.cls-3{fill:#1e70b7;}.cls-4{fill:#fff;}.cls-5{fill:none;stroke:#fff;stroke-miterlimit:10;stroke-width:3.52px;}.cls-6{fill:#999;}.cls-7{fill:#e6e6e6;}</style></defs><rect class="cls-1" x="-12.77" y="486.58" width="1625.54" height="387.84"/><path class="cls-2" d="M1611.37,488V873H-11.37V488H1611.37m2.8-2.81H-14.17V875.83H1614.17V485.18Z"/><rect class="cls-3" x="-14.17" y="22.82" width="1628.35" height="462.37"/><rect class="cls-4" x="234.45" y="369.95" width="308.48" height="15.76"/><rect class="cls-5" x="201.22" y="349.92" width="374.93" height="55.24"/><rect class="cls-4" x="201.22" y="102.84" width="673.49" height="62.98"/><rect class="cls-4" x="201.22" y="174.77" width="424.45" height="62.98"/><rect class="cls-4" x="201.22" y="270.13" width="626.05" height="18.48"/><rect class="cls-4" x="201.22" y="299.71" width="247.64" height="18.48"/><path class="cls-6" d="M799.87,774.9H704.51c-8.88,0-14.63-5.7-14.63-14.52q0-79.87,0-159.75c0-8.71,5.75-14.5,14.4-14.5H895.74c8.54,0,14.38,5.79,14.38,14.28q0,80.11,0,160.24c0,8.47-5.86,14.26-14.4,14.26Zm94.52-39.27v-7.11l-.21-119c0-5.22-2.26-7.7-7-7.7H712.86c-4.66,0-7.25,2.67-7.25,7.37q0,61.81,0,123.64c0,.68.09,1.35.17,2.38.77-.87,1.27-1.4,1.74-2L767,661.58c5.26-6.35,12.33-6.53,17.92-.48,8.86,9.55,17.65,19.16,26.6,28.63,4.2,4.44,8.24,4.47,13,.54,2.71-2.26,5.37-4.56,8.09-6.8,5.72-4.73,9.25-4.47,14.32,1l35.28,38C886.06,726.73,890,731,894.39,735.63Z"/><path class="cls-7" d="M894.39,735.63c-4.38-4.68-8.33-8.9-12.26-13.14l-35.28-38c-5.07-5.47-8.6-5.73-14.32-1-2.72,2.24-5.38,4.54-8.09,6.8-4.72,3.93-8.76,3.9-13-.54-9-9.47-17.74-19.08-26.6-28.63-5.59-6.05-12.66-5.87-17.92.48l-59.44,71.7c-.47.56-1,1.09-1.74,2-.08-1-.17-1.7-.17-2.38q0-61.82,0-123.64c0-4.7,2.59-7.37,7.25-7.37H887.13c4.79,0,7,2.48,7,7.7l.21,119Zm-15.73-94.54A23.6,23.6,0,1,0,855,664.77,23.45,23.45,0,0,0,878.66,641.09Z"/><path class="cls-6" d="M878.66,641.09a23.6,23.6,0,1,1-23.56-23.51A23.45,23.45,0,0,1,878.66,641.09Z"/></svg>