<svg id="Layer_1" data-name="Layer 1" xmlns="http://www.w3.org/2000/svg" viewBox="0 0 1600 900"><defs><style>.cls-1{fill:#1e70b7;stroke:#575756;stroke-width:2.83px;}.cls-1,.cls-3{stroke-miterlimit:10;}.cls-2{fill:#fff;}.cls-3{fill:none;stroke:#fff;stroke-width:3.52px;}.cls-4{fill:#c6c6c6;}.cls-5{fill:#575756;}.cls-6{fill:#999;}.cls-7{fill:#e6e6e6;}</style></defs><rect class="cls-1" x="-14.17" y="219.97" width="1628.35" height="462.37"/><rect class="cls-2" x="140.77" y="567.1" width="308.48" height="15.76"/><rect class="cls-3" x="107.54" y="547.07" width="374.93" height="55.24"/><rect class="cls-2" x="107.54" y="299.99" width="673.49" height="62.98"/><rect class="cls-2" x="107.54" y="371.92" width="424.45" height="62.98"/><rect class="cls-2" x="107.54" y="467.28" width="479.75" height="18.48"/><rect class="cls-2" x="107.54" y="496.86" width="247.64" height="18.48"/><polygon class="cls-4" points="574.03 680.93 1033.6 221.37 1612.77 221.37 1612.77 680.93 574.03 680.93"/><path class="cls-5" d="M1611.37,222.77V679.53H577.42l456.76-456.76h577.19m2.8-2.8H1033L570.65,682.33H1614.17V220Z"/><path class="cls-6" d="M1202.28,544.39h-95.36c-8.88,0-14.63-5.71-14.63-14.52V370.12c0-8.72,5.75-14.51,14.4-14.51h191.46c8.54,0,14.38,5.78,14.38,14.27q0,80.13,0,160.25c0,8.47-5.86,14.26-14.4,14.26Zm94.52-39.26V498q-.1-59.47-.21-119c0-5.21-2.25-7.69-7-7.7H1115.27c-4.66,0-7.25,2.67-7.25,7.38q0,61.81,0,123.63c0,.68.09,1.36.17,2.38.77-.86,1.27-1.39,1.74-2l59.44-71.69c5.26-6.35,12.33-6.53,17.93-.49,8.85,9.56,17.64,19.17,26.59,28.63,4.2,4.44,8.25,4.48,13,.55,2.7-2.26,5.37-4.57,8.08-6.81,5.72-4.72,9.25-4.46,14.32,1l35.28,38C1288.47,496.22,1292.43,500.44,1296.8,505.13Z"/><path class="cls-7" d="M1296.8,505.13c-4.37-4.69-8.33-8.91-12.26-13.15l-35.28-38c-5.07-5.47-8.6-5.73-14.32-1-2.71,2.24-5.38,4.55-8.08,6.81-4.72,3.93-8.77,3.89-13-.55-9-9.46-17.74-19.07-26.59-28.63-5.6-6-12.67-5.86-17.93.49l-59.44,71.69c-.47.57-1,1.1-1.74,2-.08-1-.17-1.7-.17-2.38q0-61.82,0-123.63c0-4.71,2.59-7.37,7.25-7.38h174.27c4.8,0,7,2.49,7,7.7q.12,59.49.21,119Zm-15.73-94.54a23.6,23.6,0,1,0-23.64,23.67A23.46,23.46,0,0,0,1281.07,410.59Z"/><path class="cls-6" d="M1281.07,410.59a23.6,23.6,0,1,1-23.56-23.52A23.44,23.44,0,0,1,1281.07,410.59Z"/></svg>