<svg id="Layer_1" data-name="Layer 1" xmlns="http://www.w3.org/2000/svg" viewBox="0 0 1600 900"><defs><style>.cls-1{fill:#c6c6c6;}.cls-2{fill:#575756;}.cls-3{fill:#fff;}.cls-4{fill:none;stroke:#fff;stroke-miterlimit:10;stroke-width:3.52px;}.cls-5{fill:#999;}.cls-6{fill:#e6e6e6;}</style></defs><rect class="cls-1" x="-12.78" y="241.57" width="1625.54" height="402.35"/><path class="cls-2" d="M1611.37,243V642.52H-11.37V243H1611.37m2.8-2.8H-14.18V645.32H1614.17V240.17Z"/><rect class="cls-3" x="234.45" y="496.4" width="308.48" height="15.76"/><rect class="cls-4" x="201.22" y="476.37" width="374.93" height="55.24"/><rect class="cls-3" x="201.22" y="346.29" width="443.79" height="62.98"/><path class="cls-5" d="M981.87,537.14H886.51c-8.88,0-14.63-5.71-14.63-14.53q0-79.87,0-159.75c0-8.71,5.75-14.5,14.4-14.5h191.46c8.54,0,14.38,5.78,14.38,14.27q0,80.12,0,160.24c0,8.47-5.86,14.26-14.4,14.27Zm94.52-39.26v-7.12l-.21-119c0-5.22-2.26-7.7-7-7.7H894.86c-4.66,0-7.25,2.67-7.25,7.37q0,61.82,0,123.64c0,.68.09,1.35.17,2.38.77-.87,1.27-1.4,1.74-2q29.72-35.85,59.44-71.69c5.26-6.35,12.33-6.53,17.93-.49,8.85,9.55,17.64,19.16,26.59,28.63,4.2,4.44,8.24,4.47,13,.54,2.71-2.25,5.37-4.56,8.09-6.8,5.72-4.72,9.25-4.46,14.32,1l35.28,38C1068.06,489,1072,493.19,1076.39,497.88Z"/><path class="cls-6" d="M1076.39,497.88c-4.38-4.69-8.33-8.91-12.26-13.15l-35.28-38c-5.07-5.46-8.6-5.72-14.32-1-2.72,2.24-5.38,4.55-8.09,6.8-4.72,3.93-8.76,3.9-13-.54-9-9.47-17.74-19.08-26.59-28.63-5.6-6-12.67-5.86-17.93.49q-29.73,35.84-59.44,71.69c-.47.56-1,1.09-1.74,2-.08-1-.17-1.7-.17-2.38q0-61.82,0-123.64c0-4.7,2.59-7.37,7.25-7.37h174.27c4.79,0,7,2.48,7,7.7l.21,119Zm-15.73-94.55A23.6,23.6,0,1,0,1037,427,23.46,23.46,0,0,0,1060.66,403.33Z"/><path class="cls-5" d="M1060.66,403.33a23.6,23.6,0,1,1-23.56-23.51A23.45,23.45,0,0,1,1060.66,403.33Z"/></svg>