<svg id="Layer_1" data-name="Layer 1" xmlns="http://www.w3.org/2000/svg" viewBox="0 0 1600 900"><defs><style>.cls-1{fill:#c6c6c6;}.cls-2{fill:#575756;}.cls-3{fill:#999;}.cls-4{fill:#e6e6e6;}.cls-5{fill:#e8f3fc;}.cls-6{fill:#999;}</style></defs><rect class="cls-1" x="185.73" y="123.72" width="981.86" height="652.56"/><path class="cls-2" d="M1166.19,125.12V774.88H187.13V125.12h979.06m2.8-2.8H184.32V777.68H1169V122.32Z"/><path class="cls-3" d="M676.5,558.58H566.81C556.6,558.58,550,552,550,541.87V358.11c0-10,6.62-16.68,16.57-16.69H786.78c9.83,0,16.55,6.66,16.55,16.42V542.17c0,9.74-6.74,16.4-16.57,16.41Zm108.73-45.16v-8.19q-.12-68.43-.24-136.85c0-6-2.59-8.86-8.11-8.86H576.42c-5.36,0-8.34,3.07-8.34,8.48q0,71.12,0,142.22c0,.78.11,1.56.19,2.74.89-1,1.47-1.61,2-2.26q34.2-41.22,68.38-82.46c6.05-7.31,14.18-7.51,20.62-.57,10.18,11,20.3,22.05,30.59,32.94,4.83,5.11,9.49,5.15,14.92.62,3.11-2.59,6.17-5.24,9.3-7.82,6.58-5.44,10.64-5.14,16.47,1.15q20.3,21.87,40.58,43.73C775.65,503.17,780.2,508,785.23,513.42Z"/><path class="cls-4" d="M785.23,513.42c-5-5.4-9.58-10.25-14.1-15.13q-20.29-21.85-40.58-43.73c-5.83-6.29-9.89-6.59-16.47-1.15-3.13,2.58-6.19,5.23-9.3,7.82-5.43,4.53-10.09,4.49-14.92-.62-10.29-10.89-20.41-21.94-30.59-32.94-6.44-6.94-14.57-6.74-20.62.57q-34.2,41.22-68.38,82.46c-.53.65-1.11,1.26-2,2.26-.08-1.18-.19-2-.19-2.74q0-71.1,0-142.22c0-5.41,3-8.48,8.34-8.48H776.88c5.52,0,8.1,2.86,8.11,8.86q.13,68.43.24,136.85ZM767.14,404.66A27.15,27.15,0,1,0,740,431.9,27,27,0,0,0,767.14,404.66Z"/><path class="cls-3" d="M767.14,404.66a27.15,27.15,0,1,1-27.1-27A27,27,0,0,1,767.14,404.66Z"/><rect class="cls-5" x="932.38" y="233.49" width="457.83" height="433.02" transform="translate(2322.59 900) rotate(-180)"/><rect class="cls-6" x="959.3" y="329.79" width="378.8" height="32.4"/><rect class="cls-6" x="959.3" y="371.24" width="163.55" height="32.4"/><rect class="cls-6" x="959.3" y="422.17" width="378.8" height="15.25"/><rect class="cls-6" x="959.3" y="446.59" width="351.56" height="15.25"/><rect class="cls-6" x="959.3" y="471.01" width="149.84" height="15.25"/><rect class="cls-6" x="959.3" y="515.02" width="204.75" height="55.19"/><rect class="cls-2" x="986.75" y="534.99" width="149.84" height="15.25"/></svg>
