<svg id="Layer_1" data-name="Layer 1" xmlns="http://www.w3.org/2000/svg" viewBox="0 0 1600 900"><defs><style>.cls-1{fill:#575756;}.cls-2{fill:#1d1d1b;}.cls-3{fill:#fff;}.cls-4{fill:#121211;}.cls-5{fill:#c1a251;}</style></defs><rect class="cls-1" x="205.5" y="246.47" width="152.85" height="29.52"/><path class="cls-2" d="M1102.42,321.12V564.51H821.11V321.12h281.31m2.83-2.83h-287V567.34h287v-249Z"/><rect class="cls-3" x="821.11" y="321.12" width="281.31" height="217.24"/><rect class="cls-1" x="846.57" y="478.27" width="32.93" height="25.65"/><rect class="cls-1" x="846.57" y="386.8" width="160.23" height="20.41"/><rect class="cls-1" x="846.57" y="359.75" width="223.59" height="20.41"/><path class="cls-2" d="M1410.22,321.12V564.51H1128.91V321.12h281.31m2.83-2.83h-287V567.34h287v-249Z"/><rect class="cls-3" x="1128.91" y="321.12" width="281.31" height="217.24"/><rect class="cls-1" x="1154.37" y="478.27" width="32.93" height="25.65"/><rect class="cls-1" x="1154.37" y="359.75" width="223.59" height="20.41"/><path class="cls-2" d="M794.62,321.12V564.51H513.31V321.12H794.62m2.83-2.83h-287V567.34h287v-249Z"/><rect class="cls-3" x="513.31" y="321.12" width="281.31" height="217.24"/><rect class="cls-1" x="538.77" y="478.27" width="32.93" height="25.65"/><rect class="cls-1" x="538.77" y="386.8" width="207.11" height="20.41"/><rect class="cls-1" x="538.77" y="413.84" width="131.66" height="20.41"/><rect class="cls-1" x="538.77" y="359.75" width="223.59" height="20.41"/><path class="cls-2" d="M486.81,321.12V564.51H205.5V321.12H486.81m2.84-2.83h-287V567.34h287v-249Z"/><rect class="cls-3" x="205.5" y="321.12" width="281.31" height="217.24"/><rect class="cls-1" x="230.96" y="478.27" width="32.93" height="25.65"/><rect class="cls-1" x="230.96" y="386.8" width="103.56" height="20.41"/><rect class="cls-1" x="230.96" y="359.75" width="223.59" height="20.41"/><rect class="cls-1" x="205.5" y="156.61" width="483.73" height="40.54"/><rect class="cls-4" x="705.89" y="636.54" width="203.95" height="70.26"/><rect class="cls-3" x="738.05" y="662.78" width="139.63" height="17.79"/><rect class="cls-5" x="1126.08" y="538.36" width="286.99" height="28.99"/><rect class="cls-5" x="818.27" y="538.36" width="286.99" height="28.99"/><rect class="cls-5" x="510.47" y="538.36" width="286.99" height="28.99"/><rect class="cls-5" x="202.67" y="538.36" width="286.99" height="28.99"/></svg>