<svg id="Layer_1" data-name="Layer 1" xmlns="http://www.w3.org/2000/svg" viewBox="0 0 1600 900"><defs><style>.cls-1{fill:#c6c6c6;}.cls-2{fill:#575756;}.cls-3{fill:none;}.cls-4{fill:#e6e6e6;}.cls-5{fill:#999;}</style></defs><rect class="cls-1" x="309.07" y="123.72" width="981.86" height="652.56"/><path class="cls-2" d="M1289.53,125.12V774.88H310.47V125.12h979.06m2.8-2.8H307.67V777.68h984.66V122.32Z"/><path class="cls-3" d="M752,429.4a153.19,153.19,0,0,1,3.9,14.9,138.9,138.9,0,0,0,3.86,14.61c2.87,8.34,7.07,15.2,12.5,20.4,6.07,5.83,14,9.46,21.11,9.71a28.26,28.26,0,0,0,3.32-.11c-.08-1.46-.23-2.93-.38-4.47a75.9,75.9,0,0,1-.51-8c0-3.5.69-12.11,6.54-16.29,3.07-2.2,6.48-2.35,9-2.46l14.26-.64c4.18-.18,7.32-.47,9.65-2.49,3-2.58,4.66-7.92,6.27-13.08l.33-1.05c1.35-4.32,3.07-8.86,5.72-12.37-4.43-7.26-9-14.83-13.39-22H736.8C744.94,412.66,749.49,422.05,752,429.4Z"/><path class="cls-3" d="M750.13,457.42c.4,1.15.82,2.27,1.26,3.38-1.62-4.89-2.75-9.84-3.83-14.63a144.75,144.75,0,0,0-3.68-14.07c-.27-.81-.57-1.64-.9-2.5,1,3.64,1.87,7.34,2.74,11.2A156.77,156.77,0,0,0,750.13,457.42Z"/><path class="cls-3" d="M901,419c-14.78,24.3-29.54,48.45-29.54,48.45s-8.48-13.87-19-31.17a48.15,48.15,0,0,0-2.58,6.76l-.32,1c-1.88,6-4,12.82-8.83,17s-10.58,4.36-14.84,4.55l-14.25.63c-2,.09-3.45.21-4.41.89-1.76,1.26-3,5-3,9.41a67.65,67.65,0,0,0,.47,7.09c.12,1.19.24,2.39.33,3.61.65-.19,1.29-.38,1.9-.58,4.47-1.41,8.95-3.12,13.29-4.78,3.25-1.24,6.62-2.52,10-3.69,5.43-1.88,11.32-3.58,17.68-3.29,7.55.36,14.41,3.68,18.34,8.89,4.66,6.17,4.48,13.35,4.32,19.69,0,.75,0,1.5-.05,2.23a73.09,73.09,0,0,0,2.18,18.4h72.53Z"/><path class="cls-4" d="M817.68,342a53.44,53.44,0,0,0,9.7,30.77c.11.16,44.1,72.78,44.1,72.78l40.54-67c.89-1.68,3.75-6.06,3.86-6.23A53.79,53.79,0,1,0,817.68,342Zm81.68,0a27.88,27.88,0,1,1-27.88-27.88A27.92,27.92,0,0,1,899.36,342Z"/><path class="cls-5" d="M871.48,325.43A16.54,16.54,0,1,0,888,342,16.56,16.56,0,0,0,871.48,325.43Z"/><path class="cls-5" d="M705.57,406.79,654.93,524.07H863.39c-1.67-6-1.47-10.47-1.36-18.51,0-.77,0-1.55.05-2.34.14-5.42.27-10.54-2.6-14.35-2.4-3.17-7-5.28-12-5.51-4.64-.21-9.15,1-14.49,2.82-3.27,1.13-6.57,2.39-9.76,3.61-4.45,1.7-9,3.45-13.75,4.94s-10.39,3-16.5,2.79c-9.32-.33-19-4.73-26.7-12.07-6.41-6.14-11.34-14.14-14.65-23.78-.1-.29-.18-.58-.28-.87-.44-1.11-.86-2.23-1.26-3.38a156.77,156.77,0,0,1-4.41-16.62c-.87-3.86-1.7-7.56-2.74-11.2-2.72-7.05-7.55-15.42-15.92-19.84C720.52,406.31,713.23,405.92,705.57,406.79Z"/><path class="cls-2" d="M843.6,342a27.88,27.88,0,1,0,27.88-27.88A27.92,27.92,0,0,0,843.6,342Zm27.88,16.54A16.54,16.54,0,1,1,888,342,16.56,16.56,0,0,1,871.48,358.51Z"/><path class="cls-2" d="M908.29,407c11.54-19,21.52-35.58,22.31-37.26l.11-.18h0a65.33,65.33,0,1,0-118.42,0h0l0,.07c.62,1.33,6.8,11.65,15,25.11H698.43L637.68,535.41H962.32Zm17-65a53.47,53.47,0,0,1-9.4,30.35c-.11.17-3,4.55-3.86,6.23l-40.54,67s-44-72.62-44.1-72.78A53.79,53.79,0,1,1,925.28,342Zm-91.18,64.1c4.36,7.18,9,14.75,13.39,22-2.65,3.51-4.37,8.05-5.72,12.37l-.33,1.05c-1.61,5.16-3.28,10.5-6.27,13.08-2.33,2-5.47,2.31-9.65,2.49l-14.26.64c-2.49.11-5.9.26-9,2.46-5.85,4.18-6.52,12.79-6.54,16.29a75.9,75.9,0,0,0,.51,8c.15,1.54.3,3,.38,4.47a28.26,28.26,0,0,1-3.32.11c-7.15-.25-15-3.88-21.11-9.71-5.43-5.2-9.63-12.06-12.5-20.4a138.9,138.9,0,0,1-3.86-14.61,153.19,153.19,0,0,0-3.9-14.9c-2.46-7.35-7-16.74-15.15-23.33ZM743,429.6c.33.86.63,1.69.9,2.5a144.75,144.75,0,0,1,3.68,14.07c1.08,4.79,2.21,9.74,3.83,14.63.1.29.18.58.28.87,3.31,9.64,8.24,17.64,14.65,23.78,7.65,7.34,17.38,11.74,26.7,12.07,6.11.22,11.77-1.29,16.5-2.79s9.3-3.24,13.75-4.94c3.19-1.22,6.49-2.48,9.76-3.61,5.34-1.85,9.85-3,14.49-2.82,5,.23,9.56,2.34,12,5.51,2.87,3.81,2.74,8.93,2.6,14.35,0,.79,0,1.57-.05,2.34-.11,8-.31,12.47,1.36,18.51H654.93l50.64-117.28c7.66-.87,14.95-.48,21.49,3C735.43,414.18,740.26,422.55,743,429.6Zm127.55,76.07c0-.73,0-1.48.05-2.23.16-6.34.34-13.52-4.32-19.69-3.93-5.21-10.79-8.53-18.34-8.89-6.36-.29-12.25,1.41-17.68,3.29-3.38,1.17-6.75,2.45-10,3.69-4.34,1.66-8.82,3.37-13.29,4.78-.61.2-1.25.39-1.9.58-.09-1.22-.21-2.42-.33-3.61a67.65,67.65,0,0,1-.47-7.09c0-4.37,1.22-8.15,3-9.41,1-.68,2.37-.8,4.41-.89l14.25-.63c4.26-.19,10.09-.45,14.84-4.55s6.95-11,8.83-17l.32-1a48.15,48.15,0,0,1,2.58-6.76c10.54,17.3,19,31.17,19,31.17S886.24,443.26,901,419l44.22,105.11H872.71A73.09,73.09,0,0,1,870.53,505.67Z"/></svg>