<svg id="Layer_1" data-name="Layer 1" xmlns="http://www.w3.org/2000/svg" viewBox="0 0 1600 900"><defs><style>.cls-1{fill:#c6c6c6;}.cls-2{fill:#575756;}.cls-3{fill:#999;}.cls-4{fill:#e6e6e6;}</style></defs><rect class="cls-1" x="450.3" y="116.43" width="697.91" height="463.57"/><path class="cls-2" d="M1146.81,117.83V578.6H451.7V117.83h695.11m2.8-2.8H448.9V581.4h700.71V115Z"/><rect class="cls-1" x="383.93" y="656.21" width="127.36" height="127.36"/><path class="cls-2" d="M509.89,657.61V782.17H385.33V657.61H509.89m2.8-2.8H382.53V785H512.69V654.81Z"/><path class="cls-3" d="M447.56,750.57h-31a4.45,4.45,0,0,1-4.76-4.72V693.92a4.44,4.44,0,0,1,4.69-4.71h62.23a4.43,4.43,0,0,1,4.67,4.64v52.08a4.44,4.44,0,0,1-4.68,4.64Zm30.73-12.76v-2.32q0-19.34-.07-38.67c0-1.69-.73-2.5-2.29-2.5H419.28a2.15,2.15,0,0,0-2.35,2.4q0,20.09,0,40.18c0,.22,0,.44.05.78.25-.28.42-.46.57-.64l19.32-23.3c1.71-2.07,4-2.12,5.83-.16,2.87,3.1,5.73,6.23,8.64,9.3,1.36,1.45,2.68,1.46,4.21.18l2.63-2.21c1.86-1.54,3-1.45,4.66.33l11.46,12.35Z"/><path class="cls-4" d="M478.29,737.81l-4-4.28-11.46-12.35c-1.65-1.78-2.8-1.87-4.66-.33l-2.63,2.21c-1.53,1.28-2.85,1.27-4.21-.18-2.91-3.07-5.77-6.2-8.64-9.3-1.82-2-4.12-1.91-5.83.16L417.55,737c-.15.18-.32.36-.57.64,0-.34-.05-.56-.05-.78q0-20.08,0-40.18a2.15,2.15,0,0,1,2.35-2.4h56.65c1.56,0,2.29.81,2.29,2.5q0,19.33.07,38.67Zm-5.12-30.73a7.67,7.67,0,1,0-7.68,7.69A7.62,7.62,0,0,0,473.17,707.08Z"/><path class="cls-3" d="M473.17,707.08a7.67,7.67,0,1,1-7.65-7.65A7.61,7.61,0,0,1,473.17,707.08Z"/><rect class="cls-1" x="524.59" y="656.21" width="127.36" height="127.36"/><path class="cls-2" d="M650.55,657.61V782.17H526V657.61H650.55m2.8-2.8H523.18V785H653.35V654.81Z"/><rect class="cls-1" x="665.24" y="656.21" width="127.36" height="127.36"/><path class="cls-2" d="M791.2,657.61V782.17H666.65V657.61H791.2m2.81-2.8H663.84V785H794V654.81Z"/><rect class="cls-1" x="805.9" y="656.21" width="127.36" height="127.36"/><path class="cls-2" d="M931.86,657.61V782.17H807.3V657.61H931.86m2.81-2.8H804.5V785H934.67V654.81Z"/><rect class="cls-1" x="946.56" y="656.21" width="127.36" height="127.36"/><path class="cls-2" d="M1072.52,657.61V782.17H948V657.61h124.56m2.8-2.8H945.16V785h130.16V654.81Z"/><rect class="cls-1" x="1087.22" y="656.21" width="127.36" height="127.36"/><path class="cls-2" d="M1213.18,657.61V782.17H1088.62V657.61h124.56m2.8-2.8H1085.82V785H1216V654.81Z"/><rect class="cls-2" x="1169.69" y="340.55" width="46.29" height="37.27"/><rect class="cls-2" x="382.53" y="340.55" width="46.29" height="37.27"/><path class="cls-3" d="M799.13,434.12H712.35c-8.08,0-13.32-5.19-13.32-13.22V275.51c0-7.93,5.24-13.2,13.11-13.2H886.38c7.78,0,13.1,5.26,13.1,13V421.14c0,7.71-5.34,13-13.11,13Zm86-35.73v-6.48q-.09-54.14-.19-108.27c0-4.75-2.06-7-6.42-7H719.94c-4.23,0-6.59,2.43-6.59,6.71q0,56.27,0,112.52c0,.62.08,1.24.15,2.17.7-.79,1.16-1.27,1.58-1.78L769.18,331c4.79-5.78,11.22-5.95,16.32-.45,8,8.7,16.06,17.44,24.2,26.06,3.83,4,7.51,4.07,11.8.49,2.46-2.05,4.89-4.15,7.36-6.19,5.21-4.3,8.42-4.06,13,.92q16.05,17.3,32.1,34.6C877.58,390.28,881.18,394.12,885.16,398.39Z"/><path class="cls-4" d="M885.16,398.39c-4-4.27-7.58-8.11-11.16-12q-16.07-17.3-32.1-34.6c-4.62-5-7.83-5.22-13-.92-2.47,2-4.9,4.14-7.36,6.19-4.29,3.58-8,3.55-11.8-.49-8.14-8.62-16.15-17.36-24.2-26.06-5.1-5.5-11.53-5.33-16.32.45l-54.1,65.25c-.42.51-.88,1-1.58,1.78-.07-.93-.15-1.55-.15-2.17q0-56.25,0-112.52c0-4.28,2.36-6.71,6.59-6.71H878.55c4.36,0,6.41,2.26,6.42,7q.1,54.14.19,108.27Zm-14.32-86.05a21.48,21.48,0,1,0-21.51,21.55A21.34,21.34,0,0,0,870.84,312.34Z"/><path class="cls-3" d="M870.84,312.34A21.48,21.48,0,1,1,849.4,291,21.33,21.33,0,0,1,870.84,312.34Z"/><path class="cls-3" d="M588.22,750.57h-31a4.45,4.45,0,0,1-4.76-4.72V693.92a4.43,4.43,0,0,1,4.68-4.71h62.23a4.43,4.43,0,0,1,4.68,4.64v52.08a4.44,4.44,0,0,1-4.68,4.64ZM619,737.81v-2.32q0-19.34-.07-38.67c0-1.69-.74-2.5-2.29-2.5H559.94a2.15,2.15,0,0,0-2.35,2.4q0,20.09,0,40.18c0,.22,0,.44,0,.78l.57-.64,19.32-23.3c1.71-2.07,4-2.12,5.82-.16,2.88,3.1,5.74,6.23,8.65,9.3,1.36,1.45,2.68,1.46,4.21.18l2.63-2.21c1.86-1.54,3-1.45,4.66.33L615,733.53Z"/><path class="cls-4" d="M619,737.81l-4-4.28L603.5,721.18c-1.65-1.78-2.8-1.87-4.66-.33l-2.63,2.21c-1.53,1.28-2.85,1.27-4.21-.18-2.91-3.07-5.77-6.2-8.65-9.3-1.82-2-4.11-1.91-5.82.16L558.21,737l-.57.64c0-.34,0-.56,0-.78q0-20.08,0-40.18a2.15,2.15,0,0,1,2.35-2.4h56.65c1.55,0,2.28.81,2.29,2.5q0,19.33.07,38.67Zm-5.12-30.73a7.67,7.67,0,1,0-7.68,7.69A7.62,7.62,0,0,0,613.83,707.08Z"/><path class="cls-3" d="M613.83,707.08a7.67,7.67,0,1,1-7.65-7.65A7.61,7.61,0,0,1,613.83,707.08Z"/><path class="cls-3" d="M728.88,750.57h-31a4.45,4.45,0,0,1-4.76-4.72V693.92a4.43,4.43,0,0,1,4.68-4.71H760a4.43,4.43,0,0,1,4.68,4.64v52.08a4.44,4.44,0,0,1-4.68,4.64Zm30.72-12.76c0-.91,0-1.61,0-2.32l-.06-38.67c0-1.69-.74-2.5-2.29-2.5H700.6a2.16,2.16,0,0,0-2.36,2.4V736.9c0,.22,0,.44.06.78l.56-.64,19.32-23.3a3.57,3.57,0,0,1,5.83-.16c2.88,3.1,5.74,6.23,8.65,9.3,1.36,1.45,2.68,1.46,4.21.18l2.63-2.21c1.86-1.54,3-1.45,4.65.33l11.47,12.35Z"/><path class="cls-4" d="M759.6,737.81l-4-4.28-11.47-12.35c-1.64-1.78-2.79-1.87-4.65-.33l-2.63,2.21c-1.53,1.28-2.85,1.27-4.21-.18-2.91-3.07-5.77-6.2-8.65-9.3a3.57,3.57,0,0,0-5.83.16L698.86,737l-.56.64c0-.34-.06-.56-.06-.78V696.72a2.16,2.16,0,0,1,2.36-2.4h56.65c1.55,0,2.28.81,2.29,2.5l.06,38.67C759.61,736.2,759.6,736.9,759.6,737.81Zm-5.11-30.73a7.67,7.67,0,1,0-7.68,7.69A7.63,7.63,0,0,0,754.49,707.08Z"/><path class="cls-3" d="M754.49,707.08a7.67,7.67,0,1,1-7.66-7.65A7.62,7.62,0,0,1,754.49,707.08Z"/><path class="cls-3" d="M869.54,750.57h-31a4.45,4.45,0,0,1-4.76-4.72V693.92a4.43,4.43,0,0,1,4.68-4.71H900.7a4.43,4.43,0,0,1,4.68,4.64v52.08a4.44,4.44,0,0,1-4.68,4.64Zm30.72-12.76v-2.32q0-19.34-.07-38.67c0-1.69-.73-2.5-2.29-2.5H841.26a2.16,2.16,0,0,0-2.36,2.4V736.9c0,.22,0,.44.06.78l.56-.64,19.32-23.3c1.71-2.07,4-2.12,5.83-.16,2.88,3.1,5.74,6.23,8.65,9.3,1.36,1.45,2.67,1.46,4.21.18.88-.73,1.74-1.48,2.63-2.21,1.86-1.54,3-1.45,4.65.33q5.73,6.18,11.47,12.35Z"/><path class="cls-4" d="M900.26,737.81l-4-4.28q-5.74-6.16-11.47-12.35c-1.65-1.78-2.79-1.87-4.65-.33-.89.73-1.75,1.48-2.63,2.21-1.54,1.28-2.85,1.27-4.21-.18-2.91-3.07-5.77-6.2-8.65-9.3-1.82-2-4.12-1.91-5.83.16L839.52,737l-.56.64c0-.34-.06-.56-.06-.78V696.72a2.16,2.16,0,0,1,2.36-2.4H897.9c1.56,0,2.29.81,2.29,2.5q0,19.33.07,38.67Zm-5.11-30.73a7.67,7.67,0,1,0-7.68,7.69A7.63,7.63,0,0,0,895.15,707.08Z"/><path class="cls-3" d="M895.15,707.08a7.67,7.67,0,1,1-7.66-7.65A7.62,7.62,0,0,1,895.15,707.08Z"/><path class="cls-3" d="M1010.2,750.57h-31a4.44,4.44,0,0,1-4.75-4.72V693.92a4.43,4.43,0,0,1,4.68-4.71h62.23a4.42,4.42,0,0,1,4.67,4.64q0,26,0,52.08a4.44,4.44,0,0,1-4.68,4.64Zm30.72-12.76v-2.32q0-19.34-.07-38.67c0-1.69-.73-2.5-2.29-2.5H981.92a2.16,2.16,0,0,0-2.36,2.4V736.9c0,.22,0,.44.06.78l.56-.64,19.32-23.3c1.71-2.07,4-2.12,5.83-.16,2.88,3.1,5.74,6.23,8.64,9.3,1.37,1.45,2.68,1.46,4.22.18.88-.73,1.74-1.48,2.63-2.21,1.85-1.54,3-1.45,4.65.33q5.73,6.18,11.47,12.35C1038.21,734.91,1039.5,736.28,1040.92,737.81Z"/><path class="cls-4" d="M1040.92,737.81c-1.42-1.53-2.71-2.9-4-4.28q-5.75-6.16-11.47-12.35c-1.65-1.78-2.8-1.87-4.65-.33-.89.73-1.75,1.48-2.63,2.21-1.54,1.28-2.85,1.27-4.22-.18-2.9-3.07-5.76-6.2-8.64-9.3-1.82-2-4.12-1.91-5.83.16L980.18,737l-.56.64c0-.34-.06-.56-.06-.78V696.72a2.16,2.16,0,0,1,2.36-2.4h56.64c1.56,0,2.29.81,2.29,2.5q0,19.33.07,38.67Zm-5.11-30.73a7.67,7.67,0,1,0-7.68,7.69A7.63,7.63,0,0,0,1035.81,707.08Z"/><path class="cls-3" d="M1035.81,707.08a7.67,7.67,0,1,1-7.66-7.65A7.62,7.62,0,0,1,1035.81,707.08Z"/><path class="cls-3" d="M1150.86,750.57h-31a4.44,4.44,0,0,1-4.75-4.72V693.92a4.43,4.43,0,0,1,4.68-4.71H1182a4.42,4.42,0,0,1,4.67,4.64q0,26,0,52.08a4.44,4.44,0,0,1-4.68,4.64Zm30.72-12.76v-2.32q0-19.34-.07-38.67c0-1.69-.73-2.5-2.29-2.5h-56.64a2.16,2.16,0,0,0-2.36,2.4V736.9c0,.22,0,.44.06.78l.56-.64,19.32-23.3c1.71-2.07,4-2.12,5.83-.16,2.88,3.1,5.73,6.23,8.64,9.3,1.37,1.45,2.68,1.46,4.22.18.88-.73,1.74-1.48,2.62-2.21,1.86-1.54,3-1.45,4.66.33l11.46,12.35Z"/><path class="cls-4" d="M1181.58,737.81l-4-4.28-11.46-12.35c-1.65-1.78-2.8-1.87-4.66-.33-.88.73-1.74,1.48-2.62,2.21-1.54,1.28-2.85,1.27-4.22-.18-2.91-3.07-5.76-6.2-8.64-9.3-1.82-2-4.12-1.91-5.83.16L1120.84,737l-.56.64c0-.34-.06-.56-.06-.78V696.72a2.16,2.16,0,0,1,2.36-2.4h56.64c1.56,0,2.29.81,2.29,2.5q0,19.33.07,38.67Zm-5.11-30.73a7.67,7.67,0,1,0-7.69,7.69A7.64,7.64,0,0,0,1176.47,707.08Z"/><path class="cls-3" d="M1176.47,707.08a7.67,7.67,0,1,1-7.66-7.65A7.62,7.62,0,0,1,1176.47,707.08Z"/></svg>